<svg width="1005" height="447" viewBox="0 0 1005 447" fill="none" xmlns="http://www.w3.org/2000/svg">
<rect width="1003.02" height="488.935" transform="matrix(1 -9.83903e-05 -0.000103735 1 0.984375 -0.0620117)" fill="#F5F5F5"/>
<ellipse cx="44.3666" cy="52.3289" rx="44.3666" ry="52.3289" transform="matrix(0.732639 0.680617 -0.715255 0.698863 712.225 219.792)" fill="#D9D9D9" fill-opacity="0.56"/>
<path d="M738.855 253.193C746.138 259.959 751.882 266.556 753.184 274.033C754.48 281.469 751.397 289.913 740.648 300.415C730.743 310.094 716.945 318.869 703.637 323.357C690.299 327.855 677.625 327.999 669.766 320.698C662.658 314.095 661.507 303.407 665.008 291.527C668.504 279.663 676.614 266.72 687.831 255.76C699.053 244.795 708.209 240.87 716.298 241.276C724.404 241.683 731.587 246.441 738.855 253.193Z" fill="#CF6944" fill-opacity="0.76" stroke="black" stroke-width="0.89071"/>
<path d="M744.574 287.075C740.904 296.036 733.572 301.578 731.396 300.547C729.22 299.516 733.024 292.302 736.694 283.341C740.364 274.38 743.324 267.717 745.5 268.748C747.677 269.779 748.245 278.114 744.574 287.075Z" fill="#E9E9E9"/>
<path d="M745.334 269.153C745.679 269.316 746.072 269.844 746.367 270.886C746.653 271.895 746.812 273.267 746.79 274.905C746.746 278.179 745.982 282.449 744.167 286.883C742.356 291.303 739.641 294.88 737.118 297.219C735.855 298.389 734.652 299.239 733.647 299.731C733.144 299.977 732.704 300.128 732.34 300.19C731.97 300.252 731.718 300.216 731.562 300.142C731.429 300.079 731.331 299.973 731.268 299.768C731.198 299.543 731.176 299.213 731.227 298.761C731.328 297.858 731.699 296.622 732.266 295.099C733.403 292.05 735.254 288.046 737.102 283.535C738.939 279.05 740.588 275.167 742.045 272.535C742.775 271.215 743.44 270.243 744.036 269.667C744.648 269.075 745.053 269.02 745.334 269.153Z" stroke="black" stroke-opacity="0.77" stroke-width="0.89071"/>
<mask id="path-6-inside-1_236_1117" fill="white">
<path d="M664.095 311.434C665.133 315.041 666.989 318.213 669.749 320.778C672.488 323.322 675.803 324.958 679.516 325.824L668.592 336.456C668.272 336.767 667.932 337.05 667.578 337.306C667.602 337.328 667.627 337.349 667.651 337.371C672.494 341.883 673.034 348.837 668.857 352.901C664.681 356.964 657.37 356.601 652.528 352.088C649.761 349.51 648.401 346.135 648.521 342.958C645.188 343.139 641.616 341.918 638.85 339.34C634.008 334.828 633.468 327.876 637.644 323.812C641.331 320.224 647.46 320.088 652.178 323.21C652.467 322.813 652.794 322.433 653.16 322.076L664.095 311.434Z"/>
</mask>
<path d="M664.095 311.434C665.133 315.041 666.989 318.213 669.749 320.778C672.488 323.322 675.803 324.958 679.516 325.824L668.592 336.456C668.272 336.767 667.932 337.05 667.578 337.306C667.602 337.328 667.627 337.349 667.651 337.371C672.494 341.883 673.034 348.837 668.857 352.901C664.681 356.964 657.37 356.601 652.528 352.088C649.761 349.51 648.401 346.135 648.521 342.958C645.188 343.139 641.616 341.918 638.85 339.34C634.008 334.828 633.468 327.876 637.644 323.812C641.331 320.224 647.46 320.088 652.178 323.21C652.467 322.813 652.794 322.433 653.16 322.076L664.095 311.434Z" fill="#E7E7E7"/>
<path d="M664.095 311.434L664.975 311.203L664.555 309.745L663.444 310.826L664.095 311.434ZM669.749 320.778L669.112 321.4L669.112 321.4L669.749 320.778ZM679.516 325.824L680.168 326.431L681.287 325.342L679.734 324.98L679.516 325.824ZM668.592 336.456L669.243 337.064L669.243 337.064L668.592 336.456ZM667.578 337.306L667.027 336.614L666.179 337.228L666.945 337.931L667.578 337.306ZM667.651 337.371L668.289 336.749L668.289 336.749L667.651 337.371ZM668.857 352.901L669.509 353.508L669.509 353.508L668.857 352.901ZM652.528 352.088L651.889 352.709L651.889 352.709L652.528 352.088ZM648.521 342.958L649.432 342.988L649.468 342.036L648.47 342.09L648.521 342.958ZM638.85 339.34L638.212 339.962L638.212 339.962L638.85 339.34ZM637.644 323.812L636.993 323.204L636.993 323.204L637.644 323.812ZM652.178 323.21L651.657 323.924L652.406 324.42L652.927 323.705L652.178 323.21ZM653.16 322.076L653.812 322.683L653.812 322.683L653.16 322.076ZM664.095 311.434L663.216 311.664C664.292 315.404 666.224 318.717 669.112 321.4L669.749 320.778L670.387 320.155C667.754 317.709 665.975 314.677 664.975 311.203L664.095 311.434ZM669.749 320.778L669.112 321.4C671.98 324.064 675.445 325.769 679.299 326.668L679.516 325.824L679.734 324.98C676.161 324.146 672.996 322.58 670.387 320.155L669.749 320.778ZM679.516 325.824L678.865 325.216L667.94 335.849L668.592 336.456L669.243 337.064L680.168 326.431L679.516 325.824ZM668.592 336.456L667.94 335.849C667.653 336.128 667.347 336.382 667.027 336.614L667.578 337.306L668.129 337.997C668.516 337.717 668.89 337.407 669.243 337.064L668.592 336.456ZM667.578 337.306L666.945 337.931C666.966 337.951 666.987 337.969 666.997 337.978C667.003 337.983 667.007 337.986 667.01 337.989C667.012 337.992 667.013 337.992 667.013 337.992L667.651 337.371L668.289 336.749C668.266 336.728 668.244 336.709 668.233 336.698C668.218 336.685 668.214 336.682 668.212 336.68L667.578 337.306ZM667.651 337.371L667.013 337.992C671.576 342.245 671.956 348.645 668.206 352.293L668.857 352.901L669.509 353.508C674.112 349.029 673.411 341.522 668.289 336.749L667.651 337.371ZM668.857 352.901L668.206 352.293C664.456 355.942 657.729 355.719 653.166 351.466L652.528 352.088L651.889 352.709C657.011 357.482 664.906 357.987 669.509 353.508L668.857 352.901ZM652.528 352.088L653.166 351.466C650.575 349.052 649.322 345.911 649.432 342.988L648.521 342.958L647.609 342.927C647.48 346.359 648.947 349.968 651.889 352.709L652.528 352.088ZM648.521 342.958L648.47 342.09C645.403 342.257 642.079 341.133 639.488 338.719L638.85 339.34L638.212 339.962C641.154 342.704 644.973 344.021 648.572 343.825L648.521 342.958ZM638.85 339.34L639.488 338.719C634.926 334.467 634.546 328.068 638.295 324.419L637.644 323.812L636.993 323.204C632.39 327.684 633.091 335.189 638.212 339.962L638.85 339.34ZM637.644 323.812L638.295 324.419C641.609 321.195 647.227 320.992 651.657 323.924L652.178 323.21L652.699 322.496C647.693 319.184 641.053 319.253 636.993 323.204L637.644 323.812ZM652.178 323.21L652.927 323.705C653.188 323.346 653.483 323.003 653.812 322.683L653.16 322.076L652.509 321.468C652.105 321.862 651.746 322.28 651.429 322.715L652.178 323.21ZM653.16 322.076L653.812 322.683L664.746 312.041L664.095 311.434L663.444 310.826L652.509 321.468L653.16 322.076Z" fill="black" mask="url(#path-6-inside-1_236_1117)"/>
<ellipse cx="44.1256" cy="52.6115" rx="44.1256" ry="52.6115" transform="matrix(0.651164 0.758937 -0.788932 0.61448 930.654 270.415)" fill="#D9D9D9" fill-opacity="0.56"/>
<path d="M953.174 306.456C959.611 313.959 964.54 321.129 964.952 328.697C965.361 336.224 961.299 344.285 949.378 353.571C938.392 362.127 923.646 369.369 909.892 372.404C896.106 375.445 883.497 374.227 876.553 366.134C870.272 358.813 870.388 348.072 875.269 336.641C880.144 325.225 889.732 313.232 902.173 303.542C914.618 293.848 924.18 290.929 932.171 292.199C940.175 293.472 946.75 298.969 953.174 306.456Z" fill="#CF6944" fill-opacity="0.76" stroke="black" stroke-width="0.89071"/>
<path d="M954.856 340.738C950.151 349.249 942.211 353.97 940.171 352.713C938.13 351.455 942.762 344.694 947.466 336.183C952.171 327.672 955.899 321.368 957.939 322.626C959.98 323.884 959.56 332.227 954.856 340.738Z" fill="#E9E9E9"/>
<path d="M957.727 323.009C958.048 323.206 958.376 323.772 958.546 324.841C958.711 325.874 958.707 327.253 958.491 328.88C958.061 332.128 956.799 336.29 954.471 340.501C952.15 344.7 949.03 347.965 946.246 350.019C944.854 351.046 943.558 351.762 942.501 352.144C941.972 352.335 941.516 352.437 941.147 352.459C940.772 352.482 940.528 352.419 940.383 352.329C940.26 352.254 940.175 352.14 940.136 351.928C940.094 351.697 940.112 351.367 940.216 350.922C940.423 350.034 940.936 348.845 941.679 347.393C943.169 344.485 945.482 340.705 947.851 336.42C950.205 332.161 952.301 328.479 954.06 326.019C954.941 324.786 955.717 323.891 956.378 323.382C957.058 322.858 957.467 322.848 957.727 323.009Z" stroke="black" stroke-opacity="0.77" stroke-width="0.89071"/>
<mask id="path-12-inside-2_236_1117" fill="white">
<path d="M872.014 356.318C872.619 360.014 874.088 363.365 876.529 366.209C878.95 369.031 882.051 371.011 885.638 372.27L873.49 381.694C873.148 381.958 872.792 382.194 872.425 382.403C872.445 382.426 872.466 382.448 872.486 382.472C876.765 387.474 876.48 394.442 871.851 398.032C867.221 401.623 860 400.478 855.722 395.476C853.277 392.617 852.325 389.118 852.818 385.974C849.485 385.798 846.08 384.202 843.635 381.344C839.357 376.341 839.641 369.374 844.271 365.783C848.356 362.615 854.458 363.135 858.777 366.739C859.102 366.387 859.46 366.056 859.854 365.75L872.014 356.318Z"/>
</mask>
<path d="M872.014 356.318C872.619 360.014 874.088 363.365 876.529 366.209C878.95 369.031 882.051 371.011 885.638 372.27L873.49 381.694C873.148 381.958 872.792 382.194 872.425 382.403C872.445 382.426 872.466 382.448 872.486 382.472C876.765 387.474 876.48 394.442 871.851 398.032C867.221 401.623 860 400.478 855.722 395.476C853.277 392.617 852.325 389.118 852.818 385.974C849.485 385.798 846.08 384.202 843.635 381.344C839.357 376.341 839.641 369.374 844.271 365.783C848.356 362.615 854.458 363.135 858.777 366.739C859.102 366.387 859.46 366.056 859.854 365.75L872.014 356.318Z" fill="#E7E7E7"/>
<path d="M872.014 356.318L872.914 356.191L872.667 354.685L871.435 355.641L872.014 356.318ZM876.529 366.209L875.826 366.757L875.826 366.757L876.529 366.209ZM885.638 372.27L886.217 372.947L887.458 371.984L885.946 371.454L885.638 372.27ZM873.49 381.694L874.068 382.371L874.068 382.371L873.49 381.694ZM872.425 382.403L871.952 381.656L871.047 382.172L871.725 382.954L872.425 382.403ZM872.486 382.472L873.19 381.925L873.19 381.925L872.486 382.472ZM871.851 398.032L872.429 398.71L872.429 398.71L871.851 398.032ZM855.722 395.476L855.018 396.022L855.018 396.022L855.722 395.476ZM852.818 385.974L853.719 386.111L853.869 385.159L852.86 385.105L852.818 385.974ZM843.635 381.344L842.932 381.89L842.932 381.89L843.635 381.344ZM844.271 365.783L843.692 365.106L843.692 365.106L844.271 365.783ZM858.777 366.739L858.181 367.391L858.866 367.963L859.463 367.318L858.777 366.739ZM859.854 365.75L860.433 366.427L860.433 366.427L859.854 365.75ZM872.014 356.318L871.113 356.444C871.742 360.277 873.271 363.778 875.826 366.757L876.529 366.209L877.231 365.662C874.906 362.951 873.497 359.75 872.914 356.191L872.014 356.318ZM876.529 366.209L875.826 366.757C878.363 369.714 881.608 371.779 885.331 373.086L885.638 372.27L885.946 371.454C882.495 370.243 879.536 368.348 877.231 365.662L876.529 366.209ZM885.638 372.27L885.06 371.593L872.911 381.017L873.49 381.694L874.068 382.371L886.217 372.947L885.638 372.27ZM873.49 381.694L872.911 381.017C872.605 381.254 872.284 381.466 871.952 381.656L872.425 382.403L872.898 383.151C873.299 382.922 873.691 382.663 874.068 382.371L873.49 381.694ZM872.425 382.403L871.725 382.954C871.744 382.976 871.763 382.996 871.771 383.005C871.782 383.017 871.783 383.019 871.783 383.018L872.486 382.472L873.19 381.925C873.169 381.901 873.15 381.88 873.14 381.869C873.134 381.863 873.131 381.859 873.128 381.856C873.125 381.853 873.124 381.852 873.125 381.852L872.425 382.403ZM872.486 382.472L871.782 383.018C875.807 387.723 875.437 394.124 871.272 397.355L871.851 398.032L872.429 398.71C877.522 394.759 877.723 387.226 873.19 381.925L872.486 382.472ZM871.851 398.032L871.272 397.355C867.106 400.586 860.45 399.635 856.425 394.929L855.722 395.476L855.018 396.022C859.551 401.322 867.336 402.66 872.429 398.71L871.851 398.032ZM855.722 395.476L856.425 394.929C854.139 392.256 853.265 389.004 853.719 386.111L852.818 385.974L851.917 385.837C851.384 389.233 852.415 392.979 855.018 396.022L855.722 395.476ZM852.818 385.974L852.86 385.105C849.793 384.943 846.625 383.471 844.339 380.798L843.635 381.344L842.932 381.89C845.534 384.934 849.177 386.652 852.776 386.842L852.818 385.974ZM843.635 381.344L844.339 380.798C840.315 376.092 840.684 369.691 844.849 366.46L844.271 365.783L843.692 365.106C838.599 369.057 838.399 376.59 842.932 381.89L843.635 381.344ZM844.271 365.783L844.849 366.46C848.529 363.607 854.132 364.013 858.181 367.391L858.777 366.739L859.373 366.086C854.784 362.257 848.183 361.623 843.692 365.106L844.271 365.783ZM858.777 366.739L859.463 367.318C859.756 367 860.079 366.702 860.433 366.427L859.854 365.75L859.275 365.073C858.842 365.41 858.448 365.775 858.091 366.16L858.777 366.739ZM859.854 365.75L860.433 366.427L872.592 356.995L872.014 356.318L871.435 355.641L859.275 365.073L859.854 365.75Z" fill="black" mask="url(#path-12-inside-2_236_1117)"/>
<ellipse cx="44.1906" cy="52.5355" rx="44.1906" ry="52.5355" transform="matrix(0.671161 -0.741311 0.772598 0.634896 808.651 75.2188)" fill="#D9D9D9" fill-opacity="0.56"/>
<path d="M842.023 47.8499C848.668 40.5102 855.229 34.6441 862.982 32.9479C870.693 31.261 879.728 33.6764 891.386 43.2561C902.129 52.0842 912.161 64.6674 917.673 77.0491C923.197 89.4592 924.116 101.502 916.947 109.421C910.463 116.582 899.339 118.331 886.679 115.73C874.036 113.131 859.982 106.21 847.817 96.2132C835.647 86.2123 830.978 77.7455 830.911 70.0275C830.845 62.2954 835.392 55.1741 842.023 47.8499Z" fill="#CF6944" fill-opacity="0.76" stroke="black" stroke-width="0.89071"/>
<path d="M877.173 40.3374C886.784 43.279 893.036 49.9126 892.088 52.0451C891.14 54.1776 883.351 51.0015 873.74 48.0599C864.129 45.1183 856.968 42.7112 857.916 40.5787C858.864 38.4462 867.562 37.3959 877.173 40.3374Z" fill="#E9E9E9"/>
<path d="M858.349 40.7115C858.498 40.3759 859.026 39.9698 860.102 39.6249C861.141 39.2915 862.568 39.0562 864.287 38.9769C867.719 38.8183 872.239 39.283 876.995 40.7385C881.736 42.1897 885.649 44.5524 888.253 46.8089C889.556 47.9378 890.52 49.0301 891.097 49.9559C891.385 50.419 891.57 50.8291 891.657 51.1717C891.745 51.5196 891.723 51.7608 891.655 51.9128C891.598 52.0413 891.494 52.1401 891.282 52.2134C891.05 52.2935 890.706 52.3344 890.229 52.3138C889.275 52.2725 887.958 51.9972 886.328 51.5507C883.065 50.6566 878.757 49.1395 873.918 47.6586C869.108 46.1864 864.94 44.8563 862.094 43.6319C860.667 43.0179 859.607 42.4447 858.967 41.9132C858.308 41.3662 858.228 40.9846 858.349 40.7115Z" stroke="black" stroke-opacity="0.77" stroke-width="0.89071"/>
<mask id="path-18-inside-3_236_1117" fill="white">
<path d="M907.584 115.38C911.3 114.172 914.511 112.213 917.03 109.43C919.529 106.67 921.041 103.417 921.723 99.8331L933.553 109.594C933.889 109.871 934.197 110.169 934.479 110.48C934.5 110.457 934.519 110.432 934.54 110.409C938.974 105.528 946.225 104.59 950.737 108.312C955.248 112.035 955.312 119.009 950.879 123.89C948.347 126.679 944.894 128.178 941.558 128.26C941.951 131.418 940.889 134.889 938.356 137.677C933.923 142.558 926.672 143.498 922.161 139.775C918.179 136.489 917.664 130.672 920.645 125.995C920.222 125.749 919.812 125.469 919.425 125.149L907.584 115.38Z"/>
</mask>
<path d="M907.584 115.38C911.3 114.172 914.511 112.213 917.03 109.43C919.529 106.67 921.041 103.417 921.723 99.8331L933.553 109.594C933.889 109.871 934.197 110.169 934.479 110.48C934.5 110.457 934.519 110.432 934.54 110.409C938.974 105.528 946.225 104.59 950.737 108.312C955.248 112.035 955.312 119.009 950.879 123.89C948.347 126.679 944.894 128.178 941.558 128.26C941.951 131.418 940.889 134.889 938.356 137.677C933.923 142.558 926.672 143.498 922.161 139.775C918.179 136.489 917.664 130.672 920.645 125.995C920.222 125.749 919.812 125.469 919.425 125.149L907.584 115.38Z" fill="#E7E7E7"/>
<path d="M907.584 115.38L907.296 114.557L905.785 115.048L906.985 116.039L907.584 115.38ZM917.03 109.43L917.718 109.996L917.718 109.996L917.03 109.43ZM921.723 99.8331L922.322 99.1739L921.113 98.1762L920.826 99.6838L921.723 99.8331ZM933.553 109.594L934.153 108.935L934.152 108.935L933.553 109.594ZM934.479 110.48L933.788 111.051L934.479 111.813L935.17 111.042L934.479 110.48ZM934.54 110.409L933.853 109.843L933.853 109.843L934.54 110.409ZM950.737 108.312L951.336 107.653L951.336 107.653L950.737 108.312ZM950.879 123.89L951.567 124.457L951.567 124.457L950.879 123.89ZM941.558 128.26L941.541 127.39L940.534 127.415L940.652 128.368L941.558 128.26ZM938.356 137.677L939.044 138.244L939.044 138.244L938.356 137.677ZM922.161 139.775L921.561 140.434L921.561 140.434L922.161 139.775ZM920.645 125.995L921.423 126.443L921.896 125.701L921.123 125.252L920.645 125.995ZM919.425 125.149L920.025 124.49L920.025 124.49L919.425 125.149ZM907.584 115.38L907.873 116.202C911.727 114.95 915.081 112.909 917.718 109.996L917.03 109.43L916.342 108.865C913.941 111.517 910.874 113.394 907.296 114.557L907.584 115.38ZM917.03 109.43L917.718 109.996C920.336 107.104 921.912 103.703 922.62 99.9825L921.723 99.8331L920.826 99.6838C920.17 103.132 918.722 106.236 916.342 108.865L917.03 109.43ZM921.723 99.8331L921.124 100.492L932.954 110.253L933.553 109.594L934.152 108.935L922.322 99.1739L921.723 99.8331ZM933.553 109.594L932.954 110.253C933.254 110.501 933.532 110.769 933.788 111.051L934.479 110.48L935.17 109.908C934.862 109.569 934.524 109.241 934.153 108.935L933.553 109.594ZM934.479 110.48L935.17 111.042C935.19 111.02 935.208 110.999 935.216 110.99C935.226 110.977 935.228 110.975 935.228 110.976L934.54 110.409L933.853 109.843C933.832 109.866 933.813 109.888 933.804 109.899C933.798 109.906 933.795 109.91 933.792 109.913C933.79 109.915 933.789 109.916 933.789 109.917C933.788 109.918 933.788 109.918 933.788 109.918L934.479 110.48ZM934.54 110.409L935.228 110.976C939.399 106.383 946.081 105.624 950.138 108.971L950.737 108.312L951.336 107.653C946.37 103.556 938.548 104.674 933.853 109.843L934.54 110.409ZM950.737 108.312L950.138 108.971C954.195 112.319 954.364 118.731 950.192 123.324L950.879 123.89L951.567 124.457C956.261 119.288 956.302 111.75 951.336 107.653L950.737 108.312ZM950.879 123.89L950.192 123.324C947.823 125.933 944.61 127.316 941.541 127.39L941.558 128.26L941.575 129.129C945.177 129.041 948.871 127.425 951.567 124.457L950.879 123.89ZM941.558 128.26L940.652 128.368C941.014 131.274 940.039 134.502 937.669 137.111L938.356 137.677L939.044 138.244C941.739 135.276 942.888 131.561 942.463 128.151L941.558 128.26ZM938.356 137.677L937.669 137.111C933.497 141.704 926.817 142.463 922.76 139.116L922.161 139.775L921.561 140.434C926.527 144.532 934.349 143.413 939.044 138.244L938.356 137.677ZM922.161 139.775L922.76 139.116C919.176 136.158 918.627 130.829 921.423 126.443L920.645 125.995L919.867 125.547C916.701 130.514 917.182 136.82 921.561 140.434L922.161 139.775ZM920.645 125.995L921.123 125.252C920.74 125.029 920.371 124.776 920.025 124.49L919.425 125.149L918.826 125.808C919.254 126.161 919.704 126.469 920.167 126.738L920.645 125.995ZM919.425 125.149L920.025 124.49L908.184 114.72L907.584 115.38L906.985 116.039L918.826 125.808L919.425 125.149Z" fill="black" mask="url(#path-18-inside-3_236_1117)"/>
<ellipse cx="44.0195" cy="52.7353" rx="44.0195" ry="52.7353" transform="matrix(0.611295 0.791403 -0.818761 0.574135 251.429 5.11182)" fill="#D9D9D9" fill-opacity="0.56"/>
<path d="M271.997 42.1967C278.026 50.002 282.565 57.3999 282.572 64.9776C282.58 72.5155 278.093 80.3702 265.691 89.0667C254.263 97.0807 239.15 103.6 225.251 105.964C211.319 108.334 198.793 106.507 192.29 98.0891C186.409 90.4748 187.098 79.7535 192.584 68.5723C198.061 57.4071 208.276 45.893 221.218 36.8182C234.165 27.7393 243.87 25.2866 251.783 26.9423C259.709 28.6008 265.981 34.4082 271.997 42.1967Z" fill="#CF6944" fill-opacity="0.76" stroke="black" stroke-width="0.89071"/>
<path d="M271.847 76.5174C266.695 84.7896 258.513 89.1203 256.543 87.7653C254.572 86.4103 259.558 79.8828 264.71 71.6105C269.863 63.3382 273.922 57.2225 275.893 58.5774C277.864 59.9324 276.999 68.2451 271.847 76.5174Z" fill="#E9E9E9"/>
<path d="M275.662 58.9493C275.97 59.1617 276.268 59.741 276.381 60.8167C276.49 61.8568 276.412 63.2352 276.111 64.8491C275.508 68.0726 274.025 72.168 271.475 76.2615C268.933 80.3432 265.643 83.4523 262.753 85.3691C261.307 86.3281 259.975 86.9802 258.899 87.31C258.36 87.475 257.9 87.5545 257.53 87.5589C257.155 87.5632 256.914 87.4893 256.774 87.3934C256.657 87.3126 256.579 87.1954 256.551 86.9822C256.52 86.7489 256.556 86.4195 256.683 85.9801C256.938 85.1035 257.513 83.9407 258.334 82.5262C259.976 79.6943 262.489 76.0304 265.083 71.8662C267.661 67.7261 269.951 64.1503 271.839 61.7791C272.785 60.5899 273.608 59.7332 274.295 59.2566C275.003 58.7655 275.411 58.7772 275.662 58.9493Z" stroke="black" stroke-opacity="0.77" stroke-width="0.89071"/>
<mask id="path-24-inside-4_236_1117" fill="white">
<path d="M188.282 88.0653C188.689 91.7856 189.978 95.2035 192.264 98.1625C194.531 101.098 197.523 103.226 201.038 104.657L188.385 113.493C188.036 113.736 187.673 113.95 187.302 114.139C187.321 114.162 187.34 114.185 187.358 114.209C191.364 119.413 190.709 126.357 185.894 129.719C181.079 133.081 173.927 131.588 169.921 126.384C167.633 123.411 166.869 119.87 167.529 116.754C164.21 116.417 160.895 114.658 158.606 111.685C154.6 106.482 155.255 99.538 160.069 96.1758C164.318 93.2094 170.384 94.0237 174.505 97.8308C174.844 97.5007 175.214 97.1908 175.617 96.909L188.282 88.0653Z"/>
</mask>
<path d="M188.282 88.0653C188.689 91.7856 189.978 95.2035 192.264 98.1625C194.531 101.098 197.523 103.226 201.038 104.657L188.385 113.493C188.036 113.736 187.673 113.95 187.302 114.139C187.321 114.162 187.34 114.185 187.358 114.209C191.364 119.413 190.709 126.357 185.894 129.719C181.079 133.081 173.927 131.588 169.921 126.384C167.633 123.411 166.869 119.87 167.529 116.754C164.21 116.417 160.895 114.658 158.606 111.685C154.6 106.482 155.255 99.538 160.069 96.1758C164.318 93.2094 170.384 94.0237 174.505 97.8308C174.844 97.5007 175.214 97.1908 175.617 96.909L188.282 88.0653Z" fill="#E7E7E7"/>
<path d="M188.282 88.0653L189.187 87.9863L189.02 86.4645L187.739 87.3594L188.282 88.0653ZM192.264 98.1625L191.534 98.6739L191.534 98.6739L192.264 98.1625ZM201.038 104.657L201.581 105.363L202.872 104.461L201.385 103.856L201.038 104.657ZM188.385 113.493L188.928 114.199L188.928 114.199L188.385 113.493ZM187.302 114.139L186.867 113.368L185.941 113.84L186.576 114.654L187.302 114.139ZM187.358 114.209L188.088 113.699L188.088 113.699L187.358 114.209ZM185.894 129.719L186.437 130.425L186.437 130.425L185.894 129.719ZM169.921 126.384L169.191 126.894L169.191 126.894L169.921 126.384ZM167.529 116.754L168.421 116.938L168.622 115.991L167.613 115.888L167.529 116.754ZM158.606 111.685L157.876 112.196L157.876 112.196L158.606 111.685ZM160.069 96.1758L159.526 95.4699L159.526 95.4699L160.069 96.1758ZM174.505 97.8308L173.878 98.4533L174.531 99.0569L175.159 98.4454L174.505 97.8308ZM175.617 96.909L175.074 96.2031L175.074 96.2031L175.617 96.909ZM188.282 88.0653L187.377 88.1444C187.8 92.0033 189.14 95.5746 191.534 98.6739L192.264 98.1625L192.993 97.6511C190.816 94.8325 189.579 91.5679 189.187 87.9863L188.282 88.0653ZM192.264 98.1625L191.534 98.6739C193.911 101.751 197.042 103.972 200.692 105.458L201.038 104.657L201.385 103.856C198.003 102.48 195.151 100.445 192.993 97.6511L192.264 98.1625ZM201.038 104.657L200.495 103.951L187.842 112.787L188.385 113.493L188.928 114.199L201.581 105.363L201.038 104.657ZM188.385 113.493L187.842 112.787C187.531 113.004 187.204 113.197 186.867 113.368L187.302 114.139L187.738 114.909C188.143 114.703 188.542 114.468 188.928 114.199L188.385 113.493ZM187.302 114.139L186.576 114.654C186.624 114.715 186.6 114.683 186.628 114.719L187.358 114.209L188.088 113.699C188.074 113.68 188.061 113.663 188.051 113.652C188.04 113.638 188.035 113.631 188.029 113.624L187.302 114.139ZM187.358 114.209L186.628 114.719C190.393 119.61 189.688 125.985 185.351 129.013L185.894 129.719L186.437 130.425C191.73 126.729 192.336 119.216 188.088 113.699L187.358 114.209ZM185.894 129.719L185.351 129.013C181.014 132.041 174.416 130.764 170.651 125.874L169.921 126.384L169.191 126.894C173.438 132.411 181.144 134.121 186.437 130.425L185.894 129.719ZM169.921 126.384L170.651 125.874C168.512 123.095 167.814 119.806 168.421 116.938L167.529 116.754L166.637 116.57C165.924 119.935 166.753 123.727 169.191 126.894L169.921 126.384ZM167.529 116.754L167.613 115.888C164.559 115.578 161.475 113.954 159.336 111.175L158.606 111.685L157.876 112.196C160.314 115.363 163.861 117.256 167.446 117.62L167.529 116.754ZM158.606 111.685L159.336 111.175C155.571 106.285 156.276 99.9099 160.612 96.8817L160.069 96.1758L159.526 95.4699C154.234 99.1661 153.628 106.679 157.876 112.196L158.606 111.685ZM160.069 96.1758L160.612 96.8818C164.442 94.2075 170.017 94.8869 173.878 98.4533L174.505 97.8308L175.132 97.2083C170.751 93.1606 164.193 92.2113 159.526 95.4699L160.069 96.1758ZM174.505 97.8308L175.159 98.4454C175.466 98.1464 175.799 97.8674 176.16 97.615L175.617 96.909L175.074 96.2031C174.629 96.5142 174.222 96.8551 173.851 97.2163L174.505 97.8308ZM175.617 96.909L176.16 97.615L188.825 88.7712L188.282 88.0653L187.739 87.3594L175.074 96.2031L175.617 96.909Z" fill="black" mask="url(#path-24-inside-4_236_1117)"/>
<ellipse cx="44.2347" cy="52.4841" rx="44.2347" ry="52.4841" transform="matrix(0.686358 -0.727287 0.759451 0.650538 235.73 274.798)" fill="#D9D9D9" fill-opacity="0.56"/>
<path d="M269.687 248.088C276.489 240.88 283.176 235.144 290.964 233.6C298.711 232.064 307.691 234.656 319.139 244.462C329.688 253.498 339.446 266.276 344.689 278.763C349.944 291.278 350.603 303.337 343.264 311.113C336.626 318.147 325.465 319.678 312.865 316.829C300.281 313.984 286.379 306.788 274.433 296.555C262.482 286.318 257.997 277.761 258.098 270.043C258.198 262.311 262.899 255.281 269.687 248.088Z" fill="#CF6944" fill-opacity="0.76" stroke="black" stroke-width="0.89071"/>
<path d="M304.991 241.266C314.537 244.395 320.644 251.15 319.65 253.263C318.656 255.377 310.938 252.049 301.392 248.919C291.847 245.79 284.739 243.243 285.733 241.13C286.727 239.016 295.446 238.136 304.991 241.266Z" fill="#E9E9E9"/>
<path d="M286.164 241.27C286.32 240.937 286.857 240.542 287.939 240.219C288.986 239.906 290.418 239.699 292.138 239.653C295.572 239.562 300.081 240.115 304.804 241.663C309.514 243.207 313.375 245.646 315.929 247.953C317.208 249.107 318.147 250.218 318.704 251.155C318.982 251.623 319.158 252.037 319.237 252.381C319.317 252.731 319.291 252.971 319.22 253.122C319.16 253.249 319.053 253.347 318.839 253.416C318.606 253.492 318.261 253.526 317.785 253.496C316.833 253.436 315.522 253.135 313.902 252.656C310.659 251.698 306.384 250.097 301.579 248.522C296.802 246.956 292.663 245.545 289.844 244.265C288.43 243.623 287.384 243.029 286.756 242.485C286.109 241.925 286.036 241.542 286.164 241.27Z" stroke="black" stroke-opacity="0.77" stroke-width="0.89071"/>
<mask id="path-30-inside-5_236_1117" fill="white">
<path d="M333.774 316.889C337.516 315.754 340.768 313.858 343.347 311.125C345.905 308.415 347.486 305.192 348.245 301.623L359.856 311.608C360.188 311.894 360.491 312.199 360.769 312.518C360.79 312.495 360.811 312.47 360.833 312.447C365.371 307.654 372.641 306.858 377.071 310.668C381.501 314.478 381.413 321.453 376.876 326.246C374.283 328.984 370.799 330.416 367.462 330.431C367.787 333.597 366.651 337.047 364.058 339.785C359.52 344.578 352.25 345.375 347.82 341.565C343.91 338.202 343.521 332.375 346.603 327.758C346.182 327.502 345.778 327.212 345.395 326.883L333.774 316.889Z"/>
</mask>
<path d="M333.774 316.889C337.516 315.754 340.768 313.858 343.347 311.125C345.905 308.415 347.486 305.192 348.245 301.623L359.856 311.608C360.188 311.894 360.491 312.199 360.769 312.518C360.79 312.495 360.811 312.47 360.833 312.447C365.371 307.654 372.641 306.858 377.071 310.668C381.501 314.478 381.413 321.453 376.876 326.246C374.283 328.984 370.799 330.416 367.462 330.431C367.787 333.597 366.651 337.047 364.058 339.785C359.52 344.578 352.25 345.375 347.82 341.565C343.91 338.202 343.521 332.375 346.603 327.758C346.182 327.502 345.778 327.212 345.395 326.883L333.774 316.889Z" fill="#E7E7E7"/>
<path d="M333.774 316.889L333.502 316.06L331.983 316.521L333.162 317.535L333.774 316.889ZM343.347 311.125L344.023 311.705L344.023 311.705L343.347 311.125ZM348.245 301.623L348.858 300.976L347.671 299.955L347.352 301.454L348.245 301.623ZM359.856 311.608L360.469 310.961L360.469 310.961L359.856 311.608ZM360.769 312.518L360.065 313.075L360.741 313.852L361.448 313.094L360.769 312.518ZM360.833 312.447L360.157 311.867L360.157 311.867L360.833 312.447ZM377.071 310.668L377.684 310.021L377.684 310.021L377.071 310.668ZM376.876 326.246L377.551 326.826L377.551 326.826L376.876 326.246ZM367.462 330.431L367.462 329.562L366.457 329.567L366.554 330.52L367.462 330.431ZM364.058 339.785L364.734 340.366L364.734 340.366L364.058 339.785ZM347.82 341.565L347.207 342.211L347.207 342.211L347.82 341.565ZM346.603 327.758L347.371 328.222L347.86 327.489L347.096 327.024L346.603 327.758ZM345.395 326.883L346.008 326.236L346.008 326.236L345.395 326.883ZM333.774 316.889L334.047 317.717C337.927 316.54 341.324 314.565 344.023 311.705L343.347 311.125L342.67 310.546C340.212 313.151 337.105 314.968 333.502 316.06L333.774 316.889ZM343.347 311.125L344.023 311.705C346.703 308.865 348.351 305.496 349.139 301.791L348.245 301.623L347.352 301.454C346.622 304.889 345.107 307.964 342.67 310.546L343.347 311.125ZM348.245 301.623L347.633 302.269L359.243 312.254L359.856 311.608L360.469 310.961L348.858 300.976L348.245 301.623ZM359.856 311.608L359.243 312.254C359.541 312.51 359.814 312.785 360.065 313.075L360.769 312.518L361.472 311.962C361.169 311.613 360.836 311.277 360.469 310.961L359.856 311.608ZM360.769 312.518L361.448 313.094C361.468 313.073 361.487 313.052 361.495 313.043C361.5 313.037 361.503 313.033 361.506 313.03C361.508 313.028 361.509 313.027 361.508 313.028L360.833 312.447L360.157 311.867C360.136 311.89 360.117 311.911 360.106 311.923C360.094 311.937 360.091 311.94 360.089 311.942L360.769 312.518ZM360.833 312.447L361.508 313.028C365.78 308.516 372.476 307.889 376.458 311.314L377.071 310.668L377.684 310.021C372.806 305.826 364.961 306.793 360.157 311.867L360.833 312.447ZM377.071 310.668L376.458 311.314C380.441 314.74 380.472 321.153 376.2 325.665L376.876 326.246L377.551 326.826C382.355 321.752 382.561 314.216 377.684 310.021L377.071 310.668ZM376.876 326.246L376.2 325.665C373.774 328.228 370.532 329.548 367.462 329.562L367.462 330.431L367.462 331.3C371.066 331.283 374.792 329.74 377.551 326.826L376.876 326.246ZM367.462 330.431L366.554 330.52C366.854 333.433 365.809 336.642 363.383 339.205L364.058 339.785L364.734 340.366C367.492 337.452 368.72 333.76 368.369 330.342L367.462 330.431ZM364.058 339.785L363.383 339.205C359.111 343.717 352.415 344.343 348.433 340.918L347.82 341.565L347.207 342.211C352.085 346.407 359.93 345.44 364.734 340.366L364.058 339.785ZM347.82 341.565L348.433 340.918C344.915 337.892 344.48 332.554 347.371 328.222L346.603 327.758L345.834 327.294C342.562 332.197 342.906 338.511 347.207 342.211L347.82 341.565ZM346.603 327.758L347.096 327.024C346.716 326.793 346.351 326.531 346.008 326.236L345.395 326.883L344.782 327.529C345.204 327.892 345.649 328.211 346.11 328.491L346.603 327.758ZM345.395 326.883L346.008 326.236L334.387 316.242L333.774 316.889L333.162 317.535L344.782 327.529L345.395 326.883Z" fill="black" mask="url(#path-30-inside-5_236_1117)"/>
<ellipse cx="44.1872" cy="52.5391" rx="44.1872" ry="52.5391" transform="matrix(0.673101 0.739527 -0.77092 0.636959 219.267 307.998)" fill="#D9D9D9" fill-opacity="0.56"/>
<path d="M242.876 343.4C249.54 350.721 254.685 357.751 255.327 365.305C255.966 372.818 252.152 380.987 240.52 390.599C229.8 399.456 215.282 407.103 201.626 410.518C187.939 413.939 175.298 413.073 168.109 405.175C161.606 398.03 161.396 387.29 165.926 375.729C170.45 364.184 179.668 351.929 191.808 341.899C203.952 331.865 213.42 328.683 221.446 329.731C229.487 330.782 236.226 336.094 242.876 343.4Z" fill="#CF6944" fill-opacity="0.76" stroke="black" stroke-width="0.89071"/>
<path d="M245.603 377.62C241.16 386.258 233.368 391.197 231.29 389.996C229.212 388.796 233.635 381.91 238.078 373.272C242.521 364.634 246.055 358.229 248.133 359.43C250.211 360.631 250.046 368.982 245.603 377.62Z" fill="#E9E9E9"/>
<path d="M247.933 359.819C248.26 360.008 248.606 360.564 248.808 361.628C249.005 362.656 249.042 364.035 248.877 365.666C248.546 368.925 247.411 373.12 245.212 377.394C243.02 381.655 240.001 385.004 237.281 387.135C235.921 388.201 234.647 388.952 233.602 389.362C233.079 389.568 232.627 389.683 232.259 389.715C231.885 389.748 231.638 389.692 231.49 389.607C231.365 389.534 231.277 389.423 231.231 389.212C231.182 388.982 231.189 388.652 231.279 388.205C231.46 387.312 231.936 386.109 232.635 384.636C234.035 381.689 236.233 377.846 238.469 373.498C240.693 369.175 242.676 365.437 244.359 362.929C245.203 361.672 245.951 360.756 246.595 360.229C247.259 359.687 247.667 359.665 247.933 359.819Z" stroke="black" stroke-opacity="0.77" stroke-width="0.89071"/>
<mask id="path-36-inside-6_236_1117" fill="white">
<path d="M163.271 395.49C163.989 399.167 165.561 402.475 168.087 405.251C170.593 408.004 173.753 409.898 177.377 411.057L165.53 420.806C165.194 421.082 164.841 421.329 164.477 421.55C164.498 421.573 164.52 421.596 164.541 421.619C168.971 426.501 168.899 433.473 164.381 437.19C159.863 440.908 152.609 439.964 148.18 435.081C145.649 432.292 144.591 428.821 144.988 425.664C141.651 425.58 138.199 424.08 135.669 421.291C131.239 416.408 131.311 409.437 135.828 405.719C139.816 402.439 145.933 402.79 150.36 406.274C150.676 405.911 151.027 405.566 151.414 405.247L163.271 395.49Z"/>
</mask>
<path d="M163.271 395.49C163.989 399.167 165.561 402.475 168.087 405.251C170.593 408.004 173.753 409.898 177.377 411.057L165.53 420.806C165.194 421.082 164.841 421.329 164.477 421.55C164.498 421.573 164.52 421.596 164.541 421.619C168.971 426.501 168.899 433.473 164.381 437.19C159.863 440.908 152.609 439.964 148.18 435.081C145.649 432.292 144.591 428.821 144.988 425.664C141.651 425.58 138.199 424.08 135.669 421.291C131.239 416.408 131.311 409.437 135.828 405.719C139.816 402.439 145.933 402.79 150.36 406.274C150.676 405.911 151.027 405.566 151.414 405.247L163.271 395.49Z" fill="#E7E7E7"/>
<path d="M163.271 395.49L164.167 395.336L163.875 393.841L162.673 394.83L163.271 395.49ZM168.087 405.251L167.4 405.818L167.4 405.818L168.087 405.251ZM177.377 411.057L177.975 411.716L179.186 410.72L177.662 410.232L177.377 411.057ZM165.53 420.806L166.128 421.465L166.128 421.465L165.53 420.806ZM164.477 421.55L163.983 420.816L163.092 421.358L163.794 422.121L164.477 421.55ZM164.541 421.619L165.229 421.053L165.229 421.053L164.541 421.619ZM164.381 437.19L164.98 437.85L164.98 437.85L164.381 437.19ZM148.18 435.081L147.492 435.648L147.492 435.648L148.18 435.081ZM144.988 425.664L145.893 425.773L146.014 424.82L145.006 424.795L144.988 425.664ZM135.669 421.291L134.981 421.857L134.981 421.857L135.669 421.291ZM135.828 405.719L135.23 405.06L135.23 405.06L135.828 405.719ZM150.36 406.274L149.782 406.943L150.485 407.496L151.063 406.832L150.36 406.274ZM151.414 405.247L152.012 405.907L152.012 405.907L151.414 405.247ZM163.271 395.49L162.375 395.644C163.119 399.457 164.756 402.913 167.4 405.818L168.087 405.251L168.773 404.683C166.366 402.038 164.858 398.877 164.167 395.336L163.271 395.49ZM168.087 405.251L167.4 405.818C170.026 408.703 173.331 410.678 177.093 411.881L177.377 411.057L177.662 410.232C174.175 409.118 171.16 407.305 168.773 404.683L168.087 405.251ZM177.377 411.057L176.779 410.397L164.932 420.146L165.53 420.806L166.128 421.465L177.975 411.716L177.377 411.057ZM165.53 420.806L164.932 420.146C164.631 420.393 164.314 420.615 163.983 420.816L164.477 421.55L164.971 422.284C165.368 422.043 165.757 421.771 166.128 421.465L165.53 420.806ZM164.477 421.55L163.794 422.121C163.843 422.175 163.825 422.153 163.854 422.185L164.541 421.619L165.229 421.053C165.213 421.035 165.198 421.019 165.187 421.008C165.175 420.994 165.168 420.987 165.161 420.979L164.477 421.55ZM164.541 421.619L163.854 422.185C168.022 426.779 167.846 433.187 163.783 436.53L164.381 437.19L164.98 437.85C169.952 433.758 169.92 426.223 165.229 421.053L164.541 421.619ZM164.381 437.19L163.783 436.53C159.72 439.874 153.036 439.109 148.867 434.515L148.18 435.081L147.492 435.648C152.183 440.818 160.007 441.942 164.98 437.85L164.381 437.19ZM148.18 435.081L148.868 434.515C146.5 431.906 145.528 428.678 145.893 425.773L144.988 425.664L144.083 425.554C143.654 428.964 144.798 432.679 147.492 435.648L148.18 435.081ZM144.988 425.664L145.006 424.795C141.935 424.718 138.724 423.334 136.356 420.724L135.669 421.291L134.981 421.857C137.675 424.826 141.367 426.443 144.971 426.533L144.988 425.664ZM135.669 421.291L136.356 420.724C132.188 416.13 132.364 409.722 136.427 406.379L135.828 405.719L135.23 405.06C130.257 409.152 130.29 416.687 134.981 421.857L135.669 421.291ZM135.828 405.719L136.427 406.379C140.016 403.426 145.63 403.676 149.782 406.943L150.36 406.274L150.937 405.605C146.235 401.905 139.616 401.451 135.23 405.06L135.828 405.719ZM150.36 406.274L151.063 406.832C151.349 406.503 151.664 406.193 152.012 405.907L151.414 405.247L150.816 404.587C150.389 404.939 150.003 405.318 149.657 405.716L150.36 406.274ZM151.414 405.247L152.012 405.907L163.869 396.15L163.271 395.49L162.673 394.83L150.816 404.587L151.414 405.247Z" fill="black" mask="url(#path-36-inside-6_236_1117)"/>
<path d="M555.84 293.047C550.33 288.518 541.72 289.353 536.614 294.991C531.508 300.63 531.902 308.867 537.411 313.396C542.921 317.926 551.532 317.092 556.638 311.453C561.745 305.814 561.35 297.577 555.84 293.047Z" fill="#E7E7E7" stroke="black"/>
<path d="M542.084 308.236C536.574 303.707 527.965 304.542 522.858 310.18C517.752 315.819 518.146 324.056 523.655 328.585C529.165 333.115 537.776 332.281 542.882 326.642C547.989 321.003 547.594 312.766 542.084 308.236Z" fill="#E7E7E7" stroke="black"/>
<path d="M438.13 222.781C432.62 218.252 424.01 219.087 418.903 224.725C413.797 230.364 414.191 238.601 419.701 243.13C425.211 247.66 433.821 246.826 438.928 241.187C444.034 235.548 443.639 227.311 438.13 222.781Z" fill="#E7E7E7" stroke="black"/>
<path d="M453.032 206.327C447.523 201.798 438.913 202.632 433.806 208.271C428.7 213.909 429.094 222.146 434.604 226.676C440.113 231.205 448.724 230.371 453.831 224.732C458.937 219.094 458.542 210.856 453.032 206.327Z" fill="#E7E7E7" stroke="black"/>
<mask id="path-42-inside-7_236_1117" fill="white">
<path d="M538.149 306.985C541.856 302.891 541.403 296.73 537.137 293.223L454.445 225.244C450.179 221.737 443.715 222.212 440.007 226.306L436.629 230.036C432.921 234.13 433.374 240.292 437.64 243.799L520.333 311.777C524.599 315.285 531.063 314.809 534.77 310.715L538.149 306.985Z"/>
</mask>
<path d="M538.149 306.985C541.856 302.891 541.403 296.73 537.137 293.223L454.445 225.244C450.179 221.737 443.715 222.212 440.007 226.306L436.629 230.036C432.921 234.13 433.374 240.292 437.64 243.799L520.333 311.777C524.599 315.285 531.063 314.809 534.77 310.715L538.149 306.985Z" fill="#E7E7E7"/>
<path d="M538.149 306.985C542.227 302.482 541.729 295.704 537.036 291.846L455.889 225.138C451.196 221.28 444.085 221.803 440.007 226.306C443.344 222.622 449.507 222.478 453.773 225.985L536.466 293.964C540.732 297.471 541.486 303.301 538.149 306.985ZM436.629 230.036C432.55 234.539 433.049 241.317 437.742 245.175L518.889 311.884C523.582 315.741 530.692 315.218 534.77 310.715C531.434 314.4 525.27 314.543 521.004 311.036L438.312 243.058C434.045 239.551 433.292 233.721 436.629 230.036ZM528.057 318.128L544.862 299.573L528.057 318.128ZM446.72 218.894L429.916 237.449L446.72 218.894Z" fill="black" mask="url(#path-42-inside-7_236_1117)"/>
<ellipse cx="11.5769" cy="12.2347" rx="11.5769" ry="12.2347" transform="matrix(-0.772464 -0.63503 -0.67128 0.741225 458.934 223.043)" fill="#E7E7E7"/>
<ellipse cx="11.5769" cy="12.2347" rx="11.5769" ry="12.2347" transform="matrix(-0.772464 -0.63503 -0.67128 0.741225 560.989 301.785)" fill="#E7E7E7"/>
<ellipse cx="11.5769" cy="12.2347" rx="11.5769" ry="12.2347" transform="matrix(-0.772464 -0.63503 -0.67128 0.741225 549.908 314.021)" fill="#E7E7E7"/>
<ellipse cx="11.5769" cy="12.2347" rx="11.5769" ry="12.2347" transform="matrix(-0.772464 -0.63503 -0.67128 0.741225 448.864 230.959)" fill="#E7E7E7"/>
<path d="M533.389 217.603C538.56 212.731 538.37 204.488 532.87 199.189C527.37 193.891 518.721 193.618 513.549 198.49C508.379 203.362 508.569 211.605 514.068 216.904C519.568 222.202 528.218 222.475 533.389 217.603Z" fill="#E7E7E7" stroke="black"/>
<path d="M518.585 203.342C523.756 198.47 523.566 190.227 518.066 184.928C512.566 179.63 503.917 179.357 498.746 184.229C493.575 189.101 493.765 197.345 499.265 202.643C504.764 207.942 513.414 208.214 518.585 203.342Z" fill="#E7E7E7" stroke="black"/>
<path d="M616.229 111.34C621.401 106.468 621.21 98.225 615.711 92.9264C610.211 87.6279 601.561 87.3551 596.39 92.2273C591.219 97.0995 591.409 105.343 596.909 110.641C602.409 115.94 611.058 116.212 616.229 111.34Z" fill="#E7E7E7" stroke="black"/>
<path d="M632.267 126.791C637.438 121.919 637.248 113.676 631.748 108.377C626.248 103.079 617.598 102.806 612.427 107.678C607.256 112.55 607.446 120.793 612.946 126.092C618.446 131.39 627.096 131.663 632.267 126.791Z" fill="#E7E7E7" stroke="black"/>
<mask id="path-52-inside-8_236_1117" fill="white">
<path d="M520.234 199.72C524.211 203.552 530.694 203.588 534.714 199.8L612.334 126.666C616.354 122.879 616.389 116.702 612.411 112.87L608.722 109.316C604.745 105.485 598.262 105.449 594.243 109.236L516.622 182.371C512.602 186.158 512.568 192.335 516.545 196.166L520.234 199.72Z"/>
</mask>
<path d="M520.234 199.72C524.211 203.552 530.694 203.588 534.714 199.8L612.334 126.666C616.354 122.879 616.389 116.702 612.411 112.87L608.722 109.316C604.745 105.485 598.262 105.449 594.243 109.236L516.622 182.371C512.602 186.158 512.568 192.335 516.545 196.166L520.234 199.72Z" fill="#E7E7E7"/>
<path d="M520.234 199.72C524.609 203.935 531.74 203.975 536.162 199.809L612.327 128.046C616.749 123.879 616.786 117.085 612.411 112.87C615.991 116.319 615.634 122.185 611.614 125.972L533.994 199.107C529.974 202.894 523.813 203.169 520.234 199.72ZM608.723 109.317C604.347 105.102 597.216 105.062 592.795 109.228L516.63 180.991C512.208 185.157 512.17 191.952 516.545 196.166C512.965 192.718 513.322 186.852 517.342 183.065L594.963 109.93C598.983 106.143 605.143 105.868 608.723 109.317ZM509.343 189.228L527.435 206.658L509.343 189.228ZM619.613 119.808L601.521 102.379L619.613 119.808Z" fill="black" mask="url(#path-52-inside-8_236_1117)"/>
<ellipse cx="11.538" cy="12.2761" rx="11.538" ry="12.2761" transform="matrix(0.72784 -0.685772 -0.72015 -0.693793 614.309 131.076)" fill="#E7E7E7"/>
<ellipse cx="11.538" cy="12.2761" rx="11.538" ry="12.2761" transform="matrix(0.72784 -0.685772 -0.72015 -0.693793 523.839 221.802)" fill="#E7E7E7"/>
<ellipse cx="11.538" cy="12.2761" rx="11.538" ry="12.2761" transform="matrix(0.72784 -0.685772 -0.72015 -0.693793 511.915 210.313)" fill="#E7E7E7"/>
<ellipse cx="11.538" cy="12.2761" rx="11.538" ry="12.2761" transform="matrix(0.72784 -0.685772 -0.72015 -0.693793 606.825 120.888)" fill="#E7E7E7"/>
<path d="M527.998 377.42C523.552 382.628 515.028 383.143 508.942 378.426C502.856 373.709 501.651 365.652 506.098 360.444C510.545 355.236 519.069 354.721 525.155 359.439C531.24 364.156 532.445 372.212 527.998 377.42Z" fill="#E7E7E7" stroke="black"/>
<path d="M511.668 364.763C507.221 369.971 498.697 370.486 492.611 365.769C486.526 361.052 485.32 352.996 489.767 347.787C494.214 342.579 502.738 342.065 508.824 346.782C514.91 351.5 516.115 359.555 511.668 364.763Z" fill="#E7E7E7" stroke="black"/>
<path d="M427.316 463.542C422.869 468.75 414.346 469.265 408.26 464.548C402.174 459.831 400.968 451.774 405.415 446.566C409.862 441.358 418.386 440.844 424.472 445.561C430.558 450.278 431.763 458.334 427.316 463.542Z" fill="#E7E7E7" stroke="black"/>
<mask id="path-61-inside-9_236_1117" fill="white">
<path d="M508.144 366.638C512.509 370.021 513.14 376.169 509.554 380.369L442.928 458.395C439.341 462.595 432.895 463.257 428.53 459.874L424.363 456.644C419.998 453.261 419.367 447.113 422.953 442.913L489.579 364.887C493.166 360.687 499.611 360.025 503.977 363.408L508.144 366.638Z"/>
</mask>
<path d="M508.144 366.638C512.509 370.021 513.14 376.169 509.554 380.369L442.928 458.395C439.341 462.595 432.895 463.257 428.53 459.874L424.363 456.644C419.998 453.261 419.367 447.113 422.953 442.913L489.579 364.887C493.166 360.687 499.611 360.025 503.977 363.408L508.144 366.638Z" fill="#E7E7E7"/>
<path d="M508.144 366.638C512.945 370.36 513.64 377.122 509.695 381.742L444.367 458.247C440.422 462.867 433.332 463.596 428.53 459.874C432.459 462.919 438.551 461.983 442.137 457.783L508.763 379.756C512.35 375.556 512.072 369.683 508.144 366.638ZM424.363 456.644C419.561 452.922 418.867 446.16 422.812 441.54L488.139 365.035C492.084 360.415 499.175 359.686 503.977 363.408C500.048 360.363 493.956 361.299 490.37 365.499L423.743 443.526C420.157 447.726 420.434 453.599 424.363 456.644ZM496.073 357.282L516.047 372.764L496.073 357.282ZM436.434 466L416.459 450.518L436.434 466Z" fill="black" mask="url(#path-61-inside-9_236_1117)"/>
<ellipse cx="11.1657" cy="12.3452" rx="11.1657" ry="12.3452" transform="matrix(-0.649361 0.7605 -0.790349 -0.612627 447.472 460.128)" fill="#E7E7E7"/>
<ellipse cx="11.1657" cy="12.3452" rx="11.1657" ry="12.3452" transform="matrix(-0.649361 0.7605 -0.790349 -0.612627 531.287 368.156)" fill="#E7E7E7"/>
<ellipse cx="11.1657" cy="12.3452" rx="11.1657" ry="12.3452" transform="matrix(-0.649361 0.7605 -0.790349 -0.612627 518.132 357.96)" fill="#E7E7E7"/>
<ellipse cx="11.1657" cy="12.3452" rx="11.1657" ry="12.3452" transform="matrix(-0.649361 0.7605 -0.790349 -0.612627 436.142 453.973)" fill="#E7E7E7"/>
</svg>
