<svg width="1018" height="518" viewBox="0 0 1018 518" fill="none" xmlns="http://www.w3.org/2000/svg">
<ellipse cx="226.638" cy="90.9252" rx="46.1252" ry="54.4582" transform="rotate(46.3343 226.638 90.9252)" fill="#D9D9D9" fill-opacity="0.56"/>
<path d="M259.958 56.5111C267.094 63.9871 272.678 71.2303 273.716 79.2517C274.748 87.2308 271.291 96.1215 259.976 106.922C249.548 116.875 235.204 125.722 221.519 130.019C207.804 134.325 194.922 134.017 187.215 125.942C180.244 118.639 179.486 107.201 183.494 94.6669C187.497 82.1488 196.227 68.6505 208.035 57.3801C219.848 46.105 229.297 42.2533 237.502 42.9825C245.722 43.713 252.837 49.0502 259.958 56.5111Z" fill="#CF6944" fill-opacity="0.76" stroke="black" stroke-width="0.89071"/>
<path d="M264.459 92.8378C260.391 102.252 252.735 107.89 250.566 106.711C248.396 105.533 252.533 97.9852 256.601 88.5706C260.669 79.1561 263.929 72.1635 266.098 73.3419C268.268 74.5202 268.527 83.4233 264.459 92.8378Z" fill="#E9E9E9"/>
<path d="M265.921 73.7504C266.272 73.9409 266.653 74.5259 266.913 75.6491C267.165 76.7371 267.274 78.2053 267.189 79.9517C267.019 83.4406 266.081 87.9654 264.068 92.6255C262.06 97.2722 259.166 100.987 256.513 103.388C255.186 104.59 253.931 105.452 252.89 105.941C252.369 106.185 251.914 106.33 251.539 106.383C251.16 106.436 250.903 106.389 250.742 106.302C250.605 106.228 250.507 106.107 250.449 105.881C250.386 105.635 250.376 105.28 250.445 104.798C250.583 103.837 251.006 102.532 251.641 100.93C252.911 97.7223 254.945 93.5214 256.992 88.783C259.028 84.0714 260.851 79.9938 262.431 77.2415C263.223 75.8614 263.936 74.8474 264.565 74.2535C265.211 73.6437 265.632 73.5933 265.921 73.7504Z" stroke="black" stroke-opacity="0.77" stroke-width="0.89071"/>
<mask id="path-5-inside-1_236_1117" fill="white">
<path d="M181.824 115.85C182.741 119.732 184.503 123.18 187.208 126.013C189.891 128.825 193.195 130.689 196.931 131.748L185.172 142.927C184.926 143.161 184.669 143.377 184.405 143.577C184.418 143.591 184.432 143.604 184.445 143.618C189.189 148.603 189.472 156.032 185.077 160.21C180.682 164.388 173.274 163.733 168.53 158.748C165.82 155.899 164.569 152.253 164.811 148.872C161.42 148.944 157.84 147.513 155.13 144.665C150.387 139.679 150.104 132.25 154.499 128.073C158.367 124.395 164.571 124.463 169.236 127.932C169.486 127.621 169.757 127.322 170.054 127.04L181.824 115.85Z"/>
</mask>
<path d="M181.824 115.85C182.741 119.732 184.503 123.18 187.208 126.013C189.891 128.825 193.195 130.689 196.931 131.748L185.172 142.927C184.926 143.161 184.669 143.377 184.405 143.577C184.418 143.591 184.432 143.604 184.445 143.618C189.189 148.603 189.472 156.032 185.077 160.21C180.682 164.388 173.274 163.733 168.53 158.748C165.82 155.899 164.569 152.253 164.811 148.872C161.42 148.944 157.84 147.513 155.13 144.665C150.387 139.679 150.104 132.25 154.499 128.073C158.367 124.395 164.571 124.463 169.236 127.932C169.486 127.621 169.757 127.322 170.054 127.04L181.824 115.85Z" fill="#E7E7E7"/>
<path d="M181.824 115.85L182.691 115.645L182.335 114.135L181.211 115.204L181.824 115.85ZM187.208 126.013L186.564 126.628L186.564 126.628L187.208 126.013ZM196.931 131.748L197.545 132.393L198.677 131.317L197.174 130.891L196.931 131.748ZM185.172 142.927L185.785 143.573L185.785 143.573L185.172 142.927ZM184.405 143.577L183.867 142.867L183.069 143.471L183.762 144.193L184.405 143.577ZM184.445 143.618L185.091 143.004L185.091 143.004L184.445 143.618ZM185.077 160.21L185.691 160.855L185.691 160.855L185.077 160.21ZM168.53 158.748L167.885 159.362L167.885 159.362L168.53 158.748ZM164.811 148.872L165.699 148.936L165.769 147.961L164.792 147.982L164.811 148.872ZM155.13 144.665L154.485 145.279L154.485 145.279L155.13 144.665ZM154.499 128.073L153.885 127.427L153.885 127.427L154.499 128.073ZM169.236 127.932L168.705 128.647L169.394 129.159L169.931 128.49L169.236 127.932ZM170.054 127.04L170.668 127.685L170.668 127.685L170.054 127.04ZM181.824 115.85L180.957 116.054C181.906 120.074 183.738 123.668 186.564 126.628L187.208 126.013L187.852 125.399C185.268 122.691 183.575 119.389 182.691 115.645L181.824 115.85ZM187.208 126.013L186.564 126.628C189.369 129.567 192.816 131.507 196.688 132.605L196.931 131.748L197.174 130.891C193.573 129.87 190.414 128.082 187.852 125.399L187.208 126.013ZM196.931 131.748L196.317 131.102L184.558 142.282L185.172 142.927L185.785 143.573L197.545 132.393L196.931 131.748ZM185.172 142.927L184.558 142.282C184.338 142.49 184.107 142.685 183.867 142.867L184.405 143.577L184.943 144.287C185.231 144.069 185.513 143.831 185.785 143.573L185.172 142.927ZM184.405 143.577L183.762 144.193C183.777 144.209 183.792 144.223 183.797 144.228C183.804 144.236 183.803 144.235 183.8 144.232L184.445 143.618L185.091 143.004C185.075 142.987 185.06 142.972 185.054 142.966C185.045 142.958 185.046 142.958 185.048 142.96L184.405 143.577ZM184.445 143.618L183.8 144.232C188.28 148.94 188.427 155.796 184.463 159.564L185.077 160.21L185.691 160.855C190.516 156.268 190.098 148.267 185.091 143.004L184.445 143.618ZM185.077 160.21L184.463 159.564C180.499 163.333 173.656 162.842 169.176 158.134L168.53 158.748L167.885 159.362C172.893 164.624 180.865 165.443 185.691 160.855L185.077 160.21ZM168.53 158.748L169.176 158.134C166.631 155.459 165.476 152.057 165.699 148.936L164.811 148.872L163.922 148.808C163.661 152.45 165.009 156.339 167.885 159.362L168.53 158.748ZM164.811 148.872L164.792 147.982C161.661 148.048 158.32 146.725 155.776 144.051L155.13 144.665L154.485 145.279C157.361 148.301 161.179 149.84 164.83 149.763L164.811 148.872ZM155.13 144.665L155.776 144.051C151.296 139.342 151.149 132.486 155.112 128.718L154.499 128.073L153.885 127.427C149.059 132.015 149.478 140.016 154.485 145.279L155.13 144.665ZM154.499 128.073L155.112 128.718C158.605 125.398 164.314 125.382 168.705 128.647L169.236 127.932L169.768 127.218C164.828 123.544 158.13 123.392 153.885 127.427L154.499 128.073ZM169.236 127.932L169.931 128.49C170.158 128.207 170.403 127.937 170.668 127.685L170.054 127.04L169.441 126.394C169.112 126.706 168.814 127.036 168.542 127.375L169.236 127.932ZM170.054 127.04L170.668 127.685L182.438 116.495L181.824 115.85L181.211 115.204L169.441 126.394L170.054 127.04Z" fill="black" mask="url(#path-5-inside-1_236_1117)"/>
<rect x="1.00903" y="7.00049" width="1015.98" height="445" fill="#F5F5F5"/>
<ellipse cx="718.571" cy="302.151" rx="46.1252" ry="54.4585" transform="rotate(44.2773 718.571 302.151)" fill="#D9D9D9" fill-opacity="0.56"/>
<path d="M750.635 266.562C758.034 273.777 763.875 280.815 765.2 288.794C766.518 296.731 763.383 305.74 752.462 316.94C742.399 327.261 728.381 336.618 714.858 341.403C701.307 346.199 688.422 346.353 680.431 338.561C673.202 331.512 672.034 320.108 675.589 307.439C679.14 294.785 687.381 280.982 698.777 269.295C710.177 257.603 719.482 253.414 727.708 253.848C735.949 254.283 743.25 259.362 750.635 266.562Z" fill="#CF6944" fill-opacity="0.76" stroke="black" stroke-width="0.89071"/>
<path d="M756.437 302.704C752.71 312.259 745.261 318.167 743.05 317.067C740.84 315.968 744.704 308.276 748.431 298.722C752.158 289.167 755.165 282.062 757.376 283.162C759.586 284.262 760.164 293.15 756.437 302.704Z" fill="#E9E9E9"/>
<path d="M757.213 283.577C757.571 283.754 757.972 284.325 758.272 285.438C758.563 286.517 758.725 287.98 758.703 289.728C758.658 293.221 757.884 297.777 756.039 302.506C754.199 307.222 751.44 311.038 748.875 313.533C747.592 314.782 746.368 315.688 745.345 316.214C744.834 316.477 744.384 316.638 744.012 316.704C743.635 316.771 743.375 316.734 743.212 316.653C743.072 316.583 742.97 316.465 742.904 316.241C742.832 315.998 742.81 315.644 742.861 315.16C742.965 314.194 743.341 312.875 743.918 311.251C745.072 308 746.953 303.729 748.829 298.92C750.695 294.138 752.37 289.998 753.85 287.191C754.592 285.783 755.269 284.744 755.876 284.128C756.499 283.495 756.918 283.43 757.213 283.577Z" stroke="black" stroke-opacity="0.77" stroke-width="0.89071"/>
<mask id="path-12-inside-2_236_1117" fill="white">
<path d="M674.682 328.668C675.736 332.514 677.622 335.897 680.427 338.632C683.209 341.345 686.577 343.089 690.349 344.013L678.998 355.609C678.761 355.851 678.511 356.075 678.254 356.284C678.268 356.298 678.283 356.311 678.297 356.325C683.217 361.137 683.766 368.55 679.524 372.883C675.282 377.216 667.855 376.828 662.935 372.016C660.124 369.267 658.743 365.668 658.864 362.28C655.478 362.474 651.85 361.172 649.039 358.422C644.119 353.61 643.57 346.197 647.812 341.864C651.546 338.05 657.747 337.896 662.535 341.195C662.773 340.875 663.034 340.566 663.321 340.273L674.682 328.668Z"/>
</mask>
<path d="M674.682 328.668C675.736 332.514 677.622 335.897 680.427 338.632C683.209 341.345 686.577 343.089 690.349 344.013L678.998 355.609C678.761 355.851 678.511 356.075 678.254 356.284C678.268 356.298 678.283 356.311 678.297 356.325C683.217 361.137 683.766 368.55 679.524 372.883C675.282 377.216 667.855 376.828 662.935 372.016C660.124 369.267 658.743 365.668 658.864 362.28C655.478 362.474 651.85 361.172 649.039 358.422C644.119 353.61 643.57 346.197 647.812 341.864C651.546 338.05 657.747 337.896 662.535 341.195C662.773 340.875 663.034 340.566 663.321 340.273L674.682 328.668Z" fill="#E7E7E7"/>
<path d="M674.682 328.668L675.541 328.432L675.13 326.936L674.045 328.045L674.682 328.668ZM680.427 338.632L679.805 339.27L679.805 339.27L680.427 338.632ZM690.349 344.013L690.986 344.637L692.079 343.52L690.561 343.148L690.349 344.013ZM678.998 355.609L679.634 356.232L679.634 356.232L678.998 355.609ZM678.254 356.284L677.691 355.594L676.916 356.227L677.634 356.924L678.254 356.284ZM678.297 356.325L678.92 355.688L678.92 355.688L678.297 356.325ZM679.524 372.883L680.16 373.506L680.16 373.506L679.524 372.883ZM662.935 372.016L662.312 372.653L662.312 372.653L662.935 372.016ZM658.864 362.28L659.754 362.311L659.789 361.334L658.813 361.39L658.864 362.28ZM649.039 358.422L648.416 359.059L648.416 359.059L649.039 358.422ZM647.812 341.864L647.176 341.241L647.176 341.241L647.812 341.864ZM662.535 341.195L662.029 341.929L662.736 342.416L663.249 341.727L662.535 341.195ZM663.321 340.273L663.957 340.896L663.957 340.896L663.321 340.273ZM674.682 328.668L673.823 328.904C674.915 332.886 676.875 336.413 679.805 339.27L680.427 338.632L681.048 337.994C678.369 335.381 676.558 332.142 675.541 328.432L674.682 328.668ZM680.427 338.632L679.805 339.27C682.713 342.106 686.228 343.921 690.137 344.879L690.349 344.013L690.561 343.148C686.926 342.258 683.705 340.584 681.048 337.994L680.427 338.632ZM690.349 344.013L689.713 343.39L678.361 354.986L678.998 355.609L679.634 356.232L690.986 344.637L690.349 344.013ZM678.998 355.609L678.361 354.986C678.15 355.201 677.926 355.403 677.691 355.594L678.254 356.284L678.817 356.975C679.096 356.747 679.371 356.501 679.634 356.232L678.998 355.609ZM678.254 356.284L677.634 356.924C677.65 356.939 677.664 356.953 677.67 356.957C677.678 356.965 677.677 356.964 677.674 356.961L678.297 356.325L678.92 355.688C678.903 355.672 678.888 355.658 678.881 355.652C678.872 355.643 678.873 355.644 678.875 355.645L678.254 356.284ZM678.297 356.325L677.674 356.961C682.32 361.506 682.713 368.352 678.887 372.26L679.524 372.883L680.16 373.506C684.818 368.749 684.113 360.768 678.92 355.688L678.297 356.325ZM679.524 372.883L678.887 372.26C675.061 376.168 668.204 375.924 663.558 371.379L662.935 372.016L662.312 372.653C667.506 377.732 675.502 378.264 680.16 373.506L679.524 372.883ZM662.935 372.016L663.558 371.379C660.919 368.798 659.643 365.439 659.754 362.311L658.864 362.28L657.974 362.248C657.844 365.896 659.33 369.735 662.312 372.653L662.935 372.016ZM658.864 362.28L658.813 361.39C655.687 361.569 652.3 360.367 649.662 357.786L649.039 358.422L648.416 359.059C651.399 361.977 655.269 363.378 658.915 363.169L658.864 362.28ZM649.039 358.422L649.662 357.786C645.016 353.241 644.623 346.395 648.449 342.487L647.812 341.864L647.176 341.241C642.518 345.998 643.223 353.979 648.416 359.059L649.039 358.422ZM647.812 341.864L648.449 342.487C651.82 339.043 657.523 338.823 662.029 341.929L662.535 341.195L663.04 340.462C657.971 336.968 651.273 337.056 647.176 341.241L647.812 341.864ZM662.535 341.195L663.249 341.727C663.465 341.437 663.701 341.158 663.957 340.896L663.321 340.273L662.684 339.65C662.367 339.974 662.08 340.314 661.82 340.663L662.535 341.195ZM663.321 340.273L663.957 340.896L675.318 329.291L674.682 328.668L674.045 328.045L662.684 339.65L663.321 340.273Z" fill="black" mask="url(#path-12-inside-2_236_1117)"/>
<ellipse cx="932.501" cy="355.137" rx="46.125" ry="54.4581" transform="rotate(50.7349 932.501 355.137)" fill="#D9D9D9" fill-opacity="0.56"/>
<path d="M968.364 323.381C974.905 331.382 979.917 339.033 980.337 347.11C980.754 355.145 976.624 363.743 964.513 373.644C953.353 382.767 938.373 390.488 924.398 393.723C910.393 396.964 897.573 395.668 890.508 387.026C884.118 379.209 884.24 367.747 889.198 355.557C894.15 343.383 903.89 330.594 916.528 320.263C929.171 309.928 938.888 306.813 947.012 308.169C955.152 309.528 961.836 315.396 968.364 323.381Z" fill="#CF6944" fill-opacity="0.76" stroke="black" stroke-width="0.89071"/>
<path d="M970.064 359.945C965.286 369.02 957.221 374.053 955.148 372.712C953.074 371.37 957.779 364.162 962.557 355.088C967.335 346.013 971.122 339.291 973.195 340.633C975.268 341.974 974.843 350.871 970.064 359.945Z" fill="#E9E9E9"/>
<path d="M972.987 341.026C973.322 341.243 973.657 341.856 973.83 342.996C973.998 344.1 973.994 345.572 973.775 347.307C973.338 350.772 972.056 355.212 969.691 359.704C967.332 364.183 964.162 367.664 961.332 369.855C959.917 370.951 958.599 371.715 957.524 372.122C956.986 372.326 956.521 372.435 956.144 372.458C955.762 372.483 955.508 372.417 955.355 372.318C955.224 372.233 955.135 372.105 955.095 371.875C955.051 371.625 955.068 371.27 955.174 370.795C955.385 369.847 955.908 368.578 956.663 367.03C958.176 363.929 960.526 359.897 962.931 355.33C965.322 350.788 967.452 346.862 969.239 344.239C970.135 342.924 970.924 341.968 971.596 341.424C972.287 340.865 972.71 340.848 972.987 341.026Z" stroke="black" stroke-opacity="0.77" stroke-width="0.89071"/>
<mask id="path-18-inside-3_236_1117" fill="white">
<path d="M885.908 376.55C886.524 380.49 888.017 384.063 890.496 387.096C892.956 390.105 896.106 392.217 899.75 393.56L887.167 403.805C886.904 404.019 886.631 404.213 886.352 404.393C886.365 404.408 886.378 404.422 886.39 404.437C890.737 409.772 890.449 417.201 885.747 421.029C881.044 424.857 873.708 423.636 869.361 418.301C866.877 415.253 865.91 411.522 866.411 408.169C863.025 407.981 859.565 406.279 857.082 403.231C852.735 397.896 853.023 390.468 857.725 386.64C861.864 383.27 868.044 383.814 872.429 387.631C872.702 387.34 872.996 387.062 873.314 386.803L885.908 376.55Z"/>
</mask>
<path d="M885.908 376.55C886.524 380.49 888.017 384.063 890.496 387.096C892.956 390.105 896.106 392.217 899.75 393.56L887.167 403.805C886.904 404.019 886.631 404.213 886.352 404.393C886.365 404.408 886.378 404.422 886.39 404.437C890.737 409.772 890.449 417.201 885.747 421.029C881.044 424.857 873.708 423.636 869.361 418.301C866.877 415.253 865.91 411.522 866.411 408.169C863.025 407.981 859.565 406.279 857.082 403.231C852.735 397.896 853.023 390.468 857.725 386.64C861.864 383.27 868.044 383.814 872.429 387.631C872.702 387.34 872.996 387.062 873.314 386.803L885.908 376.55Z" fill="#E7E7E7"/>
<path d="M885.908 376.55L886.788 376.412L886.549 374.879L885.346 375.859L885.908 376.55ZM890.496 387.096L889.806 387.66L889.806 387.66L890.496 387.096ZM899.75 393.56L900.313 394.25L901.524 393.264L900.058 392.724L899.75 393.56ZM887.167 403.805L887.729 404.495L887.729 404.495L887.167 403.805ZM886.352 404.393L885.87 403.643L885.029 404.185L885.664 404.958L886.352 404.393ZM886.39 404.437L887.08 403.875L887.08 403.875L886.39 404.437ZM885.747 421.029L886.309 421.72L886.309 421.72L885.747 421.029ZM869.361 418.301L868.67 418.864L868.67 418.864L869.361 418.301ZM866.411 408.169L867.292 408.301L867.436 407.334L866.46 407.28L866.411 408.169ZM857.082 403.231L856.391 403.794L856.391 403.794L857.082 403.231ZM857.725 386.64L857.163 385.949L857.163 385.949L857.725 386.64ZM872.429 387.631L871.845 388.303L872.492 388.867L873.079 388.24L872.429 387.631ZM873.314 386.803L873.876 387.494L873.876 387.494L873.314 386.803ZM885.908 376.55L885.028 376.687C885.665 380.767 887.216 384.492 889.806 387.66L890.496 387.096L891.186 386.533C888.817 383.635 887.382 380.213 886.788 376.412L885.908 376.55ZM890.496 387.096L889.806 387.66C892.378 390.805 895.666 393.004 899.442 394.396L899.75 393.56L900.058 392.724C896.546 391.43 893.534 389.405 891.186 386.533L890.496 387.096ZM899.75 393.56L899.188 392.869L886.605 403.114L887.167 403.805L887.729 404.495L900.313 394.25L899.75 393.56ZM887.167 403.805L886.605 403.114C886.371 403.304 886.125 403.48 885.87 403.643L886.352 404.393L886.834 405.142C887.136 404.947 887.437 404.733 887.729 404.495L887.167 403.805ZM886.352 404.393L885.664 404.958C885.678 404.975 885.691 404.99 885.696 404.996C885.703 405.004 885.702 405.003 885.7 405L886.39 404.437L887.08 403.875C887.066 403.857 887.052 403.841 887.047 403.834C887.038 403.825 887.039 403.826 887.04 403.827L886.352 404.393ZM886.39 404.437L885.699 405C889.805 410.038 889.426 416.885 885.184 420.338L885.747 421.029L886.309 421.72C891.473 417.516 891.669 409.506 887.08 403.875L886.39 404.437ZM885.747 421.029L885.184 420.338C880.943 423.791 874.157 422.777 870.051 417.739L869.361 418.301L868.67 418.864C873.259 424.495 881.146 425.923 886.309 421.72L885.747 421.029ZM869.361 418.301L870.051 417.739C867.72 414.877 866.829 411.396 867.292 408.301L866.411 408.169L865.53 408.037C864.99 411.648 866.035 415.63 868.67 418.864L869.361 418.301ZM866.411 408.169L866.46 407.28C863.334 407.106 860.104 405.53 857.772 402.668L857.082 403.231L856.391 403.794C859.027 407.028 862.715 408.856 866.361 409.058L866.411 408.169ZM857.082 403.231L857.772 402.668C853.667 397.63 854.046 390.783 858.287 387.33L857.725 386.64L857.163 385.949C851.999 390.153 851.802 398.162 856.391 403.794L857.082 403.231ZM857.725 386.64L858.287 387.33C862.025 384.288 867.717 384.71 871.845 388.303L872.429 387.631L873.014 386.959C868.37 382.918 861.704 382.252 857.163 385.949L857.725 386.64ZM872.429 387.631L873.079 388.24C873.327 387.976 873.592 387.725 873.876 387.494L873.314 386.803L872.752 386.112C872.4 386.399 872.077 386.704 871.779 387.022L872.429 387.631ZM873.314 386.803L873.876 387.494L886.47 377.24L885.908 376.55L885.346 375.859L872.752 386.112L873.314 386.803Z" fill="black" mask="url(#path-18-inside-3_236_1117)"/>
<ellipse cx="892.873" cy="77.4549" rx="46.125" ry="54.4581" transform="rotate(-49.2203 892.873 77.4549)" fill="#D9D9D9" fill-opacity="0.56"/>
<path d="M855.396 47.6222C862.146 39.7965 868.814 33.5371 876.698 31.7278C884.54 29.9281 893.722 32.5088 905.567 42.7256C916.483 52.141 926.677 65.5607 932.279 78.7658C937.893 91.9993 938.832 104.851 931.542 113.303C924.948 120.948 913.636 122.81 900.774 120.034C887.927 117.261 873.646 109.878 861.286 99.2168C848.92 88.5509 844.173 79.519 844.104 71.2822C844.036 63.0299 848.659 55.4323 855.396 47.6222Z" fill="#CF6944" fill-opacity="0.76" stroke="black" stroke-width="0.89071"/>
<path d="M891.116 39.6263C900.88 42.7639 907.232 49.8378 906.269 52.1115C905.306 54.3852 897.393 50.9978 887.629 47.8602C877.865 44.7227 870.59 42.1552 871.553 39.8815C872.515 37.6078 881.352 36.4888 891.116 39.6263Z" fill="#E9E9E9"/>
<path d="M871.976 40.0182C872.132 39.6507 872.678 39.2153 873.77 38.8476C874.829 38.4915 876.279 38.2411 878.026 38.1565C881.515 37.9877 886.109 38.4829 890.942 40.036C895.762 41.5846 899.739 44.1059 902.386 46.5135C903.71 47.7181 904.69 48.8842 905.277 49.873C905.571 50.3678 905.758 50.8064 905.847 51.1738C905.937 51.5464 905.916 51.8073 905.845 51.975C905.784 52.119 905.673 52.2284 905.453 52.308C905.215 52.3946 904.862 52.4387 904.376 52.4166C903.406 52.3724 902.066 52.0772 900.41 51.6008C897.095 50.6471 892.717 49.0296 887.803 47.4504C882.916 45.8802 878.681 44.461 875.789 43.1548C874.339 42.4998 873.26 41.8878 872.608 41.3195C871.939 40.736 871.848 40.3219 871.976 40.0182Z" stroke="black" stroke-opacity="0.77" stroke-width="0.89071"/>
<mask id="path-24-inside-4_236_1117" fill="white">
<path d="M922.018 119.645C925.793 118.357 929.054 116.269 931.613 113.303C934.152 110.36 935.687 106.892 936.38 103.07L948.646 113.693C948.902 113.915 949.141 114.151 949.366 114.394C949.378 114.379 949.39 114.364 949.403 114.349C953.906 109.145 961.272 108.144 965.856 112.114C970.439 116.084 970.505 123.521 966.002 128.725C963.43 131.698 959.921 133.296 956.532 133.382C956.932 136.75 955.854 140.451 953.282 143.424C948.779 148.628 941.412 149.629 936.829 145.659C932.794 142.165 932.262 135.984 935.263 131.005C934.93 130.787 934.605 130.545 934.295 130.277L922.018 119.645Z"/>
</mask>
<path d="M922.018 119.645C925.793 118.357 929.054 116.269 931.613 113.303C934.152 110.36 935.687 106.892 936.38 103.07L948.646 113.693C948.902 113.915 949.141 114.151 949.366 114.394C949.378 114.379 949.39 114.364 949.403 114.349C953.906 109.145 961.272 108.144 965.856 112.114C970.439 116.084 970.505 123.521 966.002 128.725C963.43 131.698 959.921 133.296 956.532 133.382C956.932 136.75 955.854 140.451 953.282 143.424C948.779 148.628 941.412 149.629 936.829 145.659C932.794 142.165 932.262 135.984 935.263 131.005C934.93 130.787 934.605 130.545 934.295 130.277L922.018 119.645Z" fill="#E7E7E7"/>
<path d="M922.018 119.645L921.731 118.802L920.263 119.303L921.435 120.318L922.018 119.645ZM931.613 113.303L932.288 113.884L932.288 113.884L931.613 113.303ZM936.38 103.07L936.963 102.397L935.782 101.374L935.503 102.911L936.38 103.07ZM948.646 113.693L949.229 113.02L949.229 113.02L948.646 113.693ZM949.366 114.394L948.711 114.998L949.39 115.733L950.041 114.974L949.366 114.394ZM949.403 114.349L948.73 113.766L948.729 113.766L949.403 114.349ZM965.856 112.114L966.439 111.441L966.439 111.441L965.856 112.114ZM966.002 128.725L966.676 129.308L966.676 129.308L966.002 128.725ZM956.532 133.382L956.51 132.492L955.533 132.517L955.648 133.487L956.532 133.382ZM953.282 143.424L953.955 144.007L953.955 144.007L953.282 143.424ZM936.829 145.659L936.246 146.332L936.246 146.332L936.829 145.659ZM935.263 131.005L936.026 131.465L936.47 130.729L935.751 130.259L935.263 131.005ZM934.295 130.277L934.878 129.603L934.878 129.603L934.295 130.277ZM922.018 119.645L922.306 120.488C926.215 119.155 929.615 116.983 932.288 113.884L931.613 113.303L930.939 112.721C928.494 115.555 925.372 117.56 921.731 118.802L922.018 119.645ZM931.613 113.303L932.288 113.884C934.941 110.808 936.539 107.189 937.256 103.229L936.38 103.07L935.503 102.911C934.836 106.594 933.362 109.911 930.939 112.721L931.613 113.303ZM936.38 103.07L935.796 103.744L948.063 114.366L948.646 113.693L949.229 113.02L936.963 102.397L936.38 103.07ZM948.646 113.693L948.062 114.366C948.29 114.564 948.505 114.775 948.711 114.998L949.366 114.394L950.02 113.79C949.776 113.526 949.514 113.267 949.229 113.02L948.646 113.693ZM949.366 114.394L950.041 114.974C950.056 114.958 950.068 114.942 950.073 114.936C950.08 114.928 950.079 114.929 950.077 114.932L949.403 114.349L948.729 113.766C948.714 113.784 948.701 113.8 948.696 113.807C948.688 113.816 948.688 113.815 948.69 113.814L949.366 114.394ZM949.403 114.349L950.077 114.932C954.329 110.017 961.139 109.207 965.273 112.788L965.856 112.114L966.439 111.441C961.406 107.082 953.483 108.273 948.73 113.766L949.403 114.349ZM965.856 112.114L965.273 112.788C969.407 116.368 969.581 123.227 965.329 128.142L966.002 128.725L966.676 129.308C971.429 123.814 971.471 115.8 966.439 111.441L965.856 112.114ZM966.002 128.725L965.329 128.142C962.913 130.933 959.638 132.412 956.51 132.492L956.532 133.382L956.555 134.273C960.205 134.18 963.946 132.463 966.676 129.308L966.002 128.725ZM956.532 133.382L955.648 133.487C956.017 136.597 955.023 140.051 952.608 142.842L953.282 143.424L953.955 144.007C956.685 140.852 957.848 136.903 957.417 133.277L956.532 133.382ZM953.282 143.424L952.608 142.842C948.355 147.756 941.546 148.566 937.412 144.986L936.829 145.659L936.246 146.332C941.279 150.691 949.202 149.501 953.955 144.007L953.282 143.424ZM936.829 145.659L937.412 144.986C933.769 141.831 933.201 136.151 936.026 131.465L935.263 131.005L934.501 130.545C931.323 135.818 931.819 142.498 936.246 146.332L936.829 145.659ZM935.263 131.005L935.751 130.259C935.448 130.061 935.155 129.843 934.878 129.603L934.295 130.277L933.712 130.95C934.054 131.247 934.412 131.512 934.776 131.75L935.263 131.005ZM934.295 130.277L934.878 129.603L922.602 118.972L922.018 119.645L921.435 120.318L933.712 130.95L934.295 130.277Z" fill="black" mask="url(#path-24-inside-4_236_1117)"/>
<ellipse cx="238.909" cy="71.4287" rx="46.125" ry="54.4581" transform="rotate(53.6485 238.909 71.4287)" fill="#D9D9D9" fill-opacity="0.56"/>
<path d="M276.339 41.5369C282.465 49.8605 287.082 57.7556 287.09 65.8439C287.098 73.8895 282.537 82.267 269.939 91.5388C258.329 100.083 242.976 107.033 228.855 109.553C214.703 112.078 201.965 110.132 195.349 101.142C189.365 93.0108 190.069 81.5691 195.64 69.6476C201.204 57.7408 211.582 45.4634 224.729 35.7879C237.881 26.1086 247.743 23.4917 255.789 25.2595C263.849 27.0306 270.226 33.23 276.339 41.5369Z" fill="#CF6944" fill-opacity="0.76" stroke="black" stroke-width="0.89071"/>
<path d="M276.179 78.1406C270.945 86.9606 262.634 91.5774 260.632 90.1324C258.63 88.6874 263.695 81.7278 268.928 72.9078C274.161 64.0878 278.285 57.5671 280.287 59.0121C282.289 60.4571 281.412 69.3206 276.179 78.1406Z" fill="#E9E9E9"/>
<path d="M280.059 59.3948C280.383 59.6283 280.686 60.2571 280.801 61.4042C280.912 62.5154 280.833 63.9855 280.527 65.7069C279.914 69.1458 278.408 73.5145 275.818 77.8803C273.235 82.2336 269.891 85.5493 266.954 87.5938C265.485 88.6166 264.13 89.312 263.035 89.6641C262.488 89.8403 262.018 89.9254 261.64 89.93C261.257 89.9346 261.007 89.8558 260.86 89.7493C260.733 89.6577 260.651 89.5253 260.622 89.2936C260.591 89.0416 260.626 88.6885 260.756 88.2196C261.015 87.2834 261.602 86.043 262.435 84.5347C264.103 81.5152 266.655 77.6074 269.289 73.1682C271.908 68.7542 274.235 64.9418 276.152 62.413C277.114 61.145 277.951 60.2301 278.65 59.7211C279.368 59.1984 279.792 59.202 280.059 59.3948Z" stroke="black" stroke-opacity="0.77" stroke-width="0.89071"/>
<mask id="path-30-inside-5_236_1117" fill="white">
<path d="M191.287 90.4455C191.702 94.4123 193.011 98.0566 195.333 101.212C197.637 104.342 200.676 106.611 204.247 108.137L191.159 117.729C190.886 117.93 190.603 118.11 190.316 118.275C190.327 118.291 190.34 118.306 190.351 118.322C194.422 123.871 193.756 131.275 188.865 134.859C183.974 138.443 176.71 136.851 172.639 131.302C170.314 128.132 169.537 124.356 170.208 121.033C166.836 120.673 163.468 118.798 161.142 115.627C157.072 110.078 157.737 102.674 162.628 99.0899C166.933 95.935 173.077 96.7925 177.263 100.828C177.55 100.551 177.858 100.288 178.188 100.046L191.287 90.4455Z"/>
</mask>
<path d="M191.287 90.4455C191.702 94.4123 193.011 98.0566 195.333 101.212C197.637 104.342 200.676 106.611 204.247 108.137L191.159 117.729C190.886 117.93 190.603 118.11 190.316 118.275C190.327 118.291 190.34 118.306 190.351 118.322C194.422 123.871 193.756 131.275 188.865 134.859C183.974 138.443 176.71 136.851 172.639 131.302C170.314 128.132 169.537 124.356 170.208 121.033C166.836 120.673 163.468 118.798 161.142 115.627C157.072 110.078 157.737 102.674 162.628 99.0899C166.933 95.935 173.077 96.7925 177.263 100.828C177.55 100.551 177.858 100.288 178.188 100.046L191.287 90.4455Z" fill="#E7E7E7"/>
<path d="M191.287 90.4455L192.173 90.3529L192.012 88.8101L190.761 89.7271L191.287 90.4455ZM195.333 101.212L194.616 101.74L194.616 101.74L195.333 101.212ZM204.247 108.137L204.774 108.856L206.034 107.932L204.597 107.318L204.247 108.137ZM191.159 117.729L191.686 118.448L191.686 118.448L191.159 117.729ZM190.316 118.275L189.872 117.503L189.004 118L189.6 118.805L190.316 118.275ZM190.351 118.322L191.069 117.795L191.069 117.795L190.351 118.322ZM188.865 134.859L189.392 135.578L189.392 135.578L188.865 134.859ZM172.639 131.302L171.921 131.829L171.921 131.829L172.639 131.302ZM170.208 121.033L171.081 121.209L171.275 120.251L170.303 120.147L170.208 121.033ZM161.142 115.627L160.424 116.154L160.424 116.154L161.142 115.627ZM162.628 99.0899L162.101 98.3714L162.101 98.3715L162.628 99.0899ZM177.263 100.828L176.645 101.469L177.263 102.065L177.881 101.469L177.263 100.828ZM178.188 100.046L178.715 100.764L178.715 100.764L178.188 100.046ZM191.287 90.4455L190.402 90.5381C190.831 94.6455 192.19 98.444 194.616 101.74L195.333 101.212L196.051 100.684C193.832 97.6693 192.573 94.1791 192.173 90.3529L191.287 90.4455ZM195.333 101.212L194.616 101.74C197.024 105.012 200.196 107.375 203.897 108.956L204.247 108.137L204.597 107.318C201.156 105.848 198.25 103.672 196.051 100.684L195.333 101.212ZM204.247 108.137L203.721 107.419L190.633 117.011L191.159 117.729L191.686 118.448L204.774 108.856L204.247 108.137ZM191.159 117.729L190.633 117.011C190.39 117.189 190.135 117.352 189.872 117.503L190.316 118.275L190.759 119.048C191.071 118.869 191.382 118.671 191.686 118.448L191.159 117.729ZM190.316 118.275L189.6 118.805C189.612 118.822 189.625 118.838 189.629 118.844C189.636 118.853 189.635 118.852 189.633 118.849L190.351 118.322L191.069 117.795C191.056 117.776 191.043 117.76 191.038 117.753C191.03 117.743 191.03 117.744 191.032 117.745L190.316 118.275ZM190.351 118.322L189.633 118.849C193.477 124.089 192.75 130.908 188.339 134.141L188.865 134.859L189.392 135.578C194.763 131.642 195.366 123.653 191.069 117.795L190.351 118.322ZM188.865 134.859L188.339 134.141C183.927 137.373 177.202 136.016 173.358 130.775L172.639 131.302L171.921 131.829C176.218 137.686 184.022 139.513 189.392 135.578L188.865 134.859ZM172.639 131.302L173.358 130.775C171.174 127.799 170.462 124.277 171.081 121.209L170.208 121.033L169.335 120.857C168.613 124.435 169.453 128.465 171.921 131.829L172.639 131.302ZM170.208 121.033L170.303 120.147C167.189 119.815 164.043 118.077 161.86 115.101L161.142 115.627L160.424 116.154C162.892 119.518 166.483 121.531 170.114 121.919L170.208 121.033ZM161.142 115.627L161.86 115.101C158.016 109.86 158.743 103.041 163.154 99.8083L162.628 99.0899L162.101 98.3715C156.731 102.307 156.127 110.297 160.424 116.154L161.142 115.627ZM162.628 99.0899L163.154 99.8084C167.041 96.96 172.705 97.6712 176.645 101.469L177.263 100.828L177.881 100.186C173.449 95.9139 166.825 94.9099 162.101 98.3714L162.628 99.0899ZM177.263 100.828L177.881 101.469C178.142 101.217 178.419 100.981 178.715 100.764L178.188 100.046L177.662 99.3273C177.297 99.5952 176.958 99.8842 176.645 100.187L177.263 100.828ZM178.188 100.046L178.715 100.764L191.814 91.1639L191.287 90.4455L190.761 89.7271L177.662 99.3273L178.188 100.046Z" fill="black" mask="url(#path-30-inside-5_236_1117)"/>
<ellipse cx="310.845" cy="291.668" rx="46.125" ry="54.4581" transform="rotate(-48.0412 310.845 291.668)" fill="#D9D9D9" fill-opacity="0.56"/>
<path d="M273.989 261.071C280.899 253.386 287.695 247.265 295.614 245.618C303.491 243.98 312.619 246.749 324.251 257.208C334.971 266.846 344.887 280.472 350.215 293.79C355.556 307.136 356.231 320.004 348.768 328.305C342.017 335.812 330.671 337.441 317.867 334.401C305.08 331.365 290.955 323.689 278.816 312.776C266.673 301.857 262.112 292.73 262.213 284.493C262.315 276.241 267.093 268.741 273.989 261.071Z" fill="#CF6944" fill-opacity="0.76" stroke="black" stroke-width="0.89071"/>
<path d="M309.866 253.812C319.564 257.15 325.769 264.353 324.759 266.606C323.75 268.86 315.908 265.31 306.211 261.972C296.514 258.634 289.293 255.918 290.302 253.664C291.311 251.411 300.169 250.474 309.866 253.812Z" fill="#E9E9E9"/>
<path d="M290.723 253.81C290.886 253.446 291.44 253.021 292.54 252.676C293.606 252.342 295.062 252.122 296.809 252.073C300.301 251.976 304.884 252.566 309.684 254.218C314.471 255.865 318.395 258.468 320.992 260.93C322.292 262.161 323.247 263.347 323.814 264.348C324.097 264.848 324.276 265.291 324.357 265.66C324.439 266.034 324.412 266.295 324.338 266.461C324.274 266.604 324.161 266.711 323.94 266.786C323.699 266.868 323.346 266.904 322.861 266.872C321.892 266.808 320.558 266.485 318.912 265.975C315.618 264.953 311.274 263.246 306.393 261.566C301.54 259.896 297.335 258.39 294.47 257.024C293.034 256.339 291.968 255.705 291.328 255.124C290.671 254.527 290.588 254.111 290.723 253.81Z" stroke="black" stroke-opacity="0.77" stroke-width="0.89071"/>
<mask id="path-36-inside-6_236_1117" fill="white">
<path d="M339.116 334.449C342.916 333.24 346.22 331.219 348.839 328.306C351.438 325.416 353.044 321.98 353.815 318.174L365.86 329.047C366.111 329.274 366.345 329.514 366.565 329.762C366.578 329.748 366.59 329.732 366.604 329.718C371.213 324.608 378.598 323.759 383.099 327.822C387.6 331.886 387.512 339.322 382.903 344.432C380.27 347.352 376.73 348.877 373.34 348.894C373.67 352.269 372.516 355.948 369.883 358.867C365.274 363.977 357.889 364.826 353.388 360.763C349.426 357.186 349.021 350.996 352.124 346.079C351.795 345.854 351.475 345.606 351.171 345.331L339.116 334.449Z"/>
</mask>
<path d="M339.116 334.449C342.916 333.24 346.22 331.219 348.839 328.306C351.438 325.416 353.044 321.98 353.815 318.174L365.86 329.047C366.111 329.274 366.345 329.514 366.565 329.762C366.578 329.748 366.59 329.732 366.604 329.718C371.213 324.608 378.598 323.759 383.099 327.822C387.6 331.886 387.512 339.322 382.903 344.432C380.27 347.352 376.73 348.877 373.34 348.894C373.67 352.269 372.516 355.948 369.883 358.867C365.274 363.977 357.889 364.826 353.388 360.763C349.426 357.186 349.021 350.996 352.124 346.079C351.795 345.854 351.475 345.606 351.171 345.331L339.116 334.449Z" fill="#E7E7E7"/>
<path d="M339.116 334.449L338.846 333.6L337.367 334.071L338.519 335.11L339.116 334.449ZM348.839 328.306L349.501 328.901L349.501 328.901L348.839 328.306ZM353.815 318.174L354.412 317.512L353.252 316.465L352.942 317.997L353.815 318.174ZM365.86 329.047L366.457 328.385L366.457 328.385L365.86 329.047ZM366.565 329.762L365.898 330.353L366.562 331.102L367.229 330.356L366.565 329.762ZM366.604 329.718L365.942 329.121L365.942 329.121L366.604 329.718ZM383.099 327.822L383.696 327.161L383.696 327.161L383.099 327.822ZM382.903 344.432L383.565 345.029L383.565 345.029L382.903 344.432ZM373.34 348.894L373.335 348.003L372.358 348.008L372.453 348.981L373.34 348.894ZM369.883 358.867L370.544 359.464L370.544 359.464L369.883 358.867ZM353.388 360.763L352.791 361.424L352.791 361.424L353.388 360.763ZM352.124 346.079L352.877 346.555L353.336 345.828L352.627 345.344L352.124 346.079ZM351.171 345.331L351.768 344.67L351.768 344.67L351.171 345.331ZM339.116 334.449L339.386 335.298C343.321 334.045 346.765 331.944 349.501 328.901L348.839 328.306L348.177 327.71C345.674 330.494 342.511 332.434 338.846 333.6L339.116 334.449ZM348.839 328.306L349.501 328.901C352.218 325.88 353.889 322.295 354.688 318.35L353.815 318.174L352.942 317.997C352.199 321.665 350.657 324.951 348.177 327.71L348.839 328.306ZM353.815 318.174L353.218 318.835L365.263 329.708L365.86 329.047L366.457 328.385L354.412 317.512L353.815 318.174ZM365.86 329.047L365.263 329.708C365.487 329.91 365.697 330.126 365.898 330.353L366.565 329.762L367.232 329.172C366.994 328.902 366.736 328.638 366.457 328.385L365.86 329.047ZM366.565 329.762L367.229 330.356C367.243 330.34 367.257 330.324 367.261 330.319C367.268 330.311 367.267 330.312 367.265 330.314L366.604 329.718L365.942 329.121C365.927 329.139 365.913 329.154 365.907 329.161C365.899 329.17 365.9 329.17 365.901 329.168L366.565 329.762ZM366.604 329.718L367.265 330.315C371.618 325.488 378.443 324.819 382.502 328.483L383.099 327.822L383.696 327.161C378.754 322.699 370.808 323.727 365.942 329.121L366.604 329.718ZM383.099 327.822L382.502 328.483C386.562 332.149 386.595 339.01 382.242 343.836L382.903 344.432L383.565 345.029C388.43 339.635 388.637 331.623 383.696 327.161L383.099 327.822ZM382.903 344.432L382.242 343.836C379.77 346.577 376.465 347.988 373.335 348.003L373.34 348.894L373.344 349.784C376.995 349.767 380.77 348.127 383.565 345.029L382.903 344.432ZM373.34 348.894L372.453 348.981C372.759 352.097 371.694 355.53 369.222 358.271L369.883 358.867L370.544 359.464C373.339 356.366 374.582 352.441 374.226 348.807L373.34 348.894ZM369.883 358.867L369.222 358.271C364.869 363.096 358.044 363.766 353.984 360.102L353.388 360.763L352.791 361.424C357.733 365.886 365.679 364.858 370.544 359.464L369.883 358.867ZM353.388 360.763L353.984 360.102C350.408 356.872 349.957 351.182 352.877 346.555L352.124 346.079L351.371 345.604C348.085 350.81 348.444 357.499 352.791 361.424L353.388 360.763ZM352.124 346.079L352.627 345.344C352.328 345.14 352.04 344.916 351.768 344.67L351.171 345.331L350.574 345.992C350.91 346.296 351.262 346.569 351.622 346.815L352.124 346.079ZM351.171 345.331L351.768 344.67L339.713 333.788L339.116 334.449L338.519 335.11L350.574 345.992L351.171 345.331Z" fill="black" mask="url(#path-36-inside-6_236_1117)"/>
<ellipse cx="211.863" cy="395.484" rx="46.125" ry="54.4581" transform="rotate(49.0686 211.863 395.484)" fill="#D9D9D9" fill-opacity="0.56"/>
<path d="M246.787 362.699C253.558 370.507 258.791 378.008 259.444 386.07C260.095 394.089 256.217 402.804 244.4 413.052C233.509 422.497 218.76 430.65 204.885 434.289C190.981 437.936 178.128 437.014 170.815 428.581C164.2 420.953 163.989 409.492 168.59 397.164C173.186 384.851 182.55 371.784 194.882 361.089C207.219 350.391 216.842 346.995 225.002 348.114C233.178 349.236 240.03 354.907 246.787 362.699Z" fill="#CF6944" fill-opacity="0.76" stroke="black" stroke-width="0.89071"/>
<path d="M249.55 399.199C245.038 408.408 237.122 413.674 235.011 412.393C232.9 411.113 237.392 403.771 241.905 394.561C246.417 385.352 250.007 378.523 252.118 379.803C254.229 381.084 254.062 389.989 249.55 399.199Z" fill="#E9E9E9"/>
<path d="M251.921 380.203C252.263 380.41 252.615 381.012 252.821 382.147C253.021 383.245 253.06 384.717 252.891 386.457C252.556 389.934 251.403 394.409 249.17 398.968C246.942 403.514 243.874 407.086 241.11 409.358C239.727 410.495 238.432 411.296 237.369 411.735C236.837 411.954 236.376 412.076 235.999 412.111C235.618 412.146 235.363 412.088 235.207 411.993C235.073 411.912 234.981 411.787 234.934 411.558C234.883 411.309 234.89 410.955 234.982 410.477C235.165 409.523 235.65 408.24 236.361 406.67C237.782 403.527 240.014 399.428 242.285 394.792C244.544 390.183 246.558 386.197 248.268 383.523C249.125 382.183 249.886 381.204 250.543 380.64C251.217 380.062 251.639 380.032 251.921 380.203Z" stroke="black" stroke-opacity="0.77" stroke-width="0.89071"/>
<mask id="path-42-inside-7_236_1117" fill="white">
<path d="M165.912 418.243C166.642 422.164 168.238 425.692 170.805 428.651C173.351 431.588 176.562 433.607 180.243 434.843L167.963 445.45C167.706 445.671 167.439 445.874 167.166 446.061C167.179 446.076 167.192 446.09 167.205 446.105C171.705 451.311 171.634 458.744 167.044 462.708C162.455 466.671 155.087 465.664 150.586 460.458C148.015 457.483 146.939 453.782 147.343 450.416C143.952 450.326 140.445 448.725 137.874 445.751C133.374 440.545 133.446 433.111 138.034 429.148C142.074 425.659 148.266 426.023 152.761 429.711C153.025 429.413 153.312 429.126 153.622 428.858L165.912 418.243Z"/>
</mask>
<path d="M165.912 418.243C166.642 422.164 168.238 425.692 170.805 428.651C173.351 431.588 176.562 433.607 180.243 434.843L167.963 445.45C167.706 445.671 167.439 445.874 167.166 446.061C167.179 446.076 167.192 446.09 167.205 446.105C171.705 451.311 171.634 458.744 167.044 462.708C162.455 466.671 155.087 465.664 150.586 460.458C148.015 457.483 146.939 453.782 147.343 450.416C143.952 450.326 140.445 448.725 137.874 445.751C133.374 440.545 133.446 433.111 138.034 429.148C142.074 425.659 148.266 426.023 152.761 429.711C153.025 429.413 153.312 429.126 153.622 428.858L165.912 418.243Z" fill="#E7E7E7"/>
<path d="M165.912 418.243L166.788 418.08L166.504 416.555L165.33 417.569L165.912 418.243ZM170.805 428.651L170.132 429.235L170.132 429.235L170.805 428.651ZM180.243 434.843L180.826 435.517L182.008 434.496L180.527 433.999L180.243 434.843ZM167.963 445.45L168.545 446.124L168.545 446.124L167.963 445.45ZM167.166 446.061L166.662 445.326L165.837 445.892L166.494 446.646L167.166 446.061ZM167.205 446.105L167.879 445.522L167.879 445.522L167.205 446.105ZM167.044 462.708L167.626 463.382L167.626 463.382L167.044 462.708ZM150.586 460.458L149.912 461.04L149.912 461.04L150.586 460.458ZM147.343 450.416L148.227 450.522L148.343 449.551L147.366 449.525L147.343 450.416ZM137.874 445.751L137.2 446.334L137.2 446.334L137.874 445.751ZM138.034 429.148L137.452 428.474L137.452 428.474L138.034 429.148ZM152.761 429.711L152.196 430.4L152.86 430.945L153.429 430.301L152.761 429.711ZM153.622 428.858L154.204 429.532L154.204 429.532L153.622 428.858ZM165.912 418.243L165.037 418.406C165.792 422.466 167.451 426.143 170.132 429.235L170.805 428.651L171.478 428.068C169.026 425.24 167.492 421.862 166.788 418.08L165.912 418.243ZM170.805 428.651L170.132 429.235C172.794 432.304 176.145 434.407 179.96 435.687L180.243 434.843L180.527 433.999C176.979 432.808 173.909 430.871 171.478 428.068L170.805 428.651ZM180.243 434.843L179.661 434.169L167.381 444.776L167.963 445.45L168.545 446.124L180.826 435.517L180.243 434.843ZM167.963 445.45L167.381 444.776C167.153 444.973 166.912 445.155 166.662 445.326L167.166 446.061L167.669 446.796C167.966 446.592 168.26 446.37 168.545 446.124L167.963 445.45ZM167.166 446.061L166.494 446.646C166.508 446.663 166.522 446.677 166.527 446.683C166.534 446.691 166.533 446.69 166.531 446.687L167.205 446.105L167.879 445.522C167.864 445.505 167.849 445.489 167.844 445.483C167.835 445.474 167.836 445.474 167.837 445.476L167.166 446.061ZM167.205 446.105L166.531 446.687C170.781 451.604 170.601 458.459 166.462 462.034L167.044 462.708L167.626 463.382C172.666 459.03 172.63 451.018 167.879 445.522L167.205 446.105ZM167.044 462.708L166.462 462.034C162.323 465.608 155.51 464.792 151.26 459.875L150.586 460.458L149.912 461.04C154.663 466.536 162.588 467.733 167.626 463.382L167.044 462.708ZM150.586 460.458L151.26 459.875C148.846 457.083 147.855 453.629 148.227 450.522L147.343 450.416L146.458 450.31C146.024 453.934 147.184 457.884 149.912 461.04L150.586 460.458ZM147.343 450.416L147.366 449.525C144.236 449.442 140.962 447.961 138.548 445.169L137.874 445.751L137.2 446.334C139.929 449.49 143.669 451.209 147.319 451.306L147.343 450.416ZM137.874 445.751L138.548 445.169C134.298 440.252 134.478 433.397 138.617 429.822L138.034 429.148L137.452 428.474C132.413 432.826 132.449 440.838 137.2 446.334L137.874 445.751ZM138.034 429.148L138.617 429.822C142.264 426.672 147.966 426.929 152.196 430.4L152.761 429.711L153.326 429.023C148.567 425.118 141.885 424.646 137.452 428.474L138.034 429.148ZM152.761 429.711L153.429 430.301C153.669 430.03 153.926 429.772 154.204 429.532L153.622 428.858L153.039 428.184C152.697 428.48 152.382 428.795 152.094 429.122L152.761 429.711ZM153.622 428.858L154.204 429.532L166.494 418.917L165.912 418.243L165.33 417.569L153.039 428.184L153.622 428.858Z" fill="black" mask="url(#path-42-inside-7_236_1117)"/>
<path d="M564.724 309.035C559.122 304.202 550.362 305.091 545.164 311.116C539.965 317.141 540.368 325.936 545.97 330.77C551.572 335.603 560.331 334.713 565.53 328.689C570.728 322.664 570.325 313.869 564.724 309.035Z" fill="#E7E7E7" stroke="black"/>
<path d="M550.751 325.23C545.149 320.396 536.389 321.286 531.191 327.31C525.992 333.335 526.395 342.131 531.997 346.964C537.599 351.798 546.358 350.908 551.557 344.883C556.755 338.859 556.352 330.063 550.751 325.23Z" fill="#E7E7E7" stroke="black"/>
<path d="M445.136 234.1C439.534 229.266 430.774 230.156 425.576 236.18C420.377 242.205 420.78 251.001 426.382 255.834C431.984 260.668 440.743 259.778 445.942 253.753C451.14 247.729 450.737 238.933 445.136 234.1Z" fill="#E7E7E7" stroke="black"/>
<path d="M460.274 216.556C454.672 211.722 445.912 212.612 440.713 218.636C435.515 224.661 435.918 233.457 441.52 238.29C447.122 243.124 455.881 242.234 461.079 236.209C466.278 230.185 465.875 221.389 460.274 216.556Z" fill="#E7E7E7" stroke="black"/>
<mask id="path-48-inside-8_236_1117" fill="white">
<path d="M547.021 323.573C550.629 319.391 550.164 313.077 545.983 309.469L461.425 236.508C457.243 232.9 450.929 233.365 447.321 237.546L443.308 242.197C439.7 246.378 440.165 252.693 444.346 256.301L528.904 329.262C533.086 332.87 539.4 332.405 543.008 328.223L547.021 323.573Z"/>
</mask>
<path d="M547.021 323.573C550.629 319.391 550.164 313.077 545.983 309.469L461.425 236.508C457.243 232.9 450.929 233.365 447.321 237.546L443.308 242.197C439.7 246.378 440.165 252.693 444.346 256.301L528.904 329.262C533.086 332.87 539.4 332.405 543.008 328.223L547.021 323.573Z" fill="#E7E7E7"/>
<path d="M547.021 323.573C550.99 318.973 550.478 312.027 545.879 308.058L462.835 236.404C458.235 232.435 451.289 232.947 447.321 237.546C450.568 233.783 456.59 233.657 460.771 237.265L545.329 310.226C549.511 313.834 550.268 319.809 547.021 323.573ZM443.308 242.197C439.339 246.796 439.851 253.742 444.45 257.711L527.494 329.365C532.093 333.334 539.039 332.823 543.008 328.223C539.761 331.987 533.739 332.112 529.557 328.504L445 255.544C440.818 251.936 440.061 245.96 443.308 242.197ZM536.475 335.794L553.554 316.001L536.475 335.794ZM453.853 229.975L436.775 249.768L453.853 229.975Z" fill="black" mask="url(#path-48-inside-8_236_1117)"/>
<ellipse cx="11.9966" cy="12.7742" rx="11.9966" ry="12.7742" transform="matrix(-0.757117 -0.653279 -0.653279 0.757117 466.253 234.396)" fill="#E7E7E7"/>
<ellipse cx="11.9966" cy="12.7742" rx="11.9966" ry="12.7742" transform="matrix(-0.757117 -0.653279 -0.653279 0.757117 569.938 318.367)" fill="#E7E7E7"/>
<ellipse cx="11.9966" cy="12.7742" rx="11.9966" ry="12.7742" transform="matrix(-0.757117 -0.653279 -0.653279 0.757117 558.681 331.412)" fill="#E7E7E7"/>
<ellipse cx="11.9966" cy="12.7742" rx="11.9966" ry="12.7742" transform="matrix(-0.757117 -0.653279 -0.653279 0.757117 456.024 242.834)" fill="#E7E7E7"/>
<path d="M541.905 228.621C547.165 223.418 546.97 214.615 541.375 208.957C535.78 203.299 526.98 203.006 521.719 208.209C516.458 213.412 516.654 222.214 522.249 227.872C527.844 233.53 536.644 233.823 541.905 228.621Z" fill="#E7E7E7" stroke="black"/>
<path d="M526.864 213.413C532.125 208.21 531.93 199.407 526.335 193.749C520.74 188.091 511.939 187.798 506.679 193.001C501.418 198.204 501.613 207.006 507.209 212.664C512.804 218.321 521.604 218.615 526.864 213.413Z" fill="#E7E7E7" stroke="black"/>
<path d="M626.05 115.324C631.311 110.122 631.116 101.319 625.521 95.6608C619.925 90.0028 611.125 89.71 605.864 94.9127C600.604 100.115 600.799 108.918 606.394 114.575C611.99 120.233 620.789 120.527 626.05 115.324Z" fill="#E7E7E7" stroke="black"/>
<path d="M642.344 131.8C647.604 126.597 647.409 117.794 641.814 112.136C636.219 106.478 627.419 106.186 622.158 111.388C616.897 116.591 617.093 125.393 622.688 131.051C628.283 136.709 637.083 137.002 642.344 131.8Z" fill="#E7E7E7" stroke="black"/>
<mask id="path-58-inside-9_236_1117" fill="white">
<path d="M528.811 209.825C532.694 213.752 539.026 213.787 542.953 209.904L622.363 131.372C626.29 127.489 626.325 121.157 622.442 117.23L618.123 112.863C614.239 108.936 607.908 108.9 603.981 112.784L524.57 191.316C520.643 195.199 520.608 201.531 524.491 205.458L528.811 209.825Z"/>
</mask>
<path d="M528.811 209.825C532.694 213.752 539.026 213.787 542.953 209.904L622.363 131.372C626.29 127.489 626.325 121.157 622.442 117.23L618.123 112.863C614.239 108.936 607.908 108.9 603.981 112.784L524.57 191.316C520.643 195.199 520.608 201.531 524.491 205.458L528.811 209.825Z" fill="#E7E7E7"/>
<path d="M528.811 209.825C533.082 214.145 540.047 214.184 544.367 209.912L622.355 132.786C626.675 128.514 626.714 121.55 622.442 117.23C625.937 120.764 625.587 126.778 621.66 130.661L542.249 209.193C538.323 213.076 532.306 213.359 528.811 209.825ZM618.123 112.863C613.851 108.543 606.886 108.504 602.567 112.776L524.578 189.902C520.258 194.173 520.22 201.138 524.491 205.458C520.996 201.924 521.346 195.91 525.273 192.027L604.684 113.495C608.611 109.611 614.628 109.328 618.123 112.863ZM517.46 198.347L535.842 216.936L517.46 198.347ZM629.474 124.34L611.091 105.752L629.474 124.34Z" fill="black" mask="url(#path-58-inside-9_236_1117)"/>
<ellipse cx="11.9966" cy="12.7742" rx="11.9966" ry="12.7742" transform="matrix(0.71103 -0.703162 -0.703162 -0.71103 624.088 136.352)" fill="#E7E7E7"/>
<ellipse cx="11.9966" cy="12.7742" rx="11.9966" ry="12.7742" transform="matrix(0.71103 -0.703162 -0.703162 -0.71103 532.19 233.081)" fill="#E7E7E7"/>
<ellipse cx="11.9966" cy="12.7742" rx="11.9966" ry="12.7742" transform="matrix(0.71103 -0.703162 -0.703162 -0.71103 520.075 220.83)" fill="#E7E7E7"/>
<ellipse cx="11.9966" cy="12.7742" rx="11.9966" ry="12.7742" transform="matrix(0.71103 -0.703162 -0.703162 -0.71103 616.483 125.488)" fill="#E7E7E7"/>
<path d="M536.44 399.022C531.908 404.592 523.236 405.137 517.054 400.107C510.871 395.077 509.64 386.475 514.172 380.905C518.703 375.335 527.376 374.789 533.559 379.819C539.741 384.849 540.972 393.451 536.44 399.022Z" fill="#E7E7E7" stroke="black"/>
<path d="M519.848 385.523C515.317 391.093 506.645 391.638 500.462 386.608C494.279 381.578 493.048 372.977 497.58 367.407C502.111 361.836 510.784 361.291 516.967 366.321C523.15 371.351 524.38 379.953 519.848 385.523Z" fill="#E7E7E7" stroke="black"/>
<path d="M434.167 490.841C429.636 496.411 420.964 496.956 414.781 491.926C408.598 486.896 407.368 478.295 411.899 472.724C416.431 467.154 425.103 466.608 431.286 471.639C437.469 476.669 438.699 485.271 434.167 490.841Z" fill="#E7E7E7" stroke="black"/>
<path d="M452.142 505.464C447.611 511.034 438.939 511.579 432.756 506.549C426.573 501.519 425.342 492.918 429.874 487.348C434.405 481.777 443.078 481.232 449.261 486.262C455.444 491.292 456.674 499.894 452.142 505.464Z" fill="#E7E7E7" stroke="black"/>
<mask id="path-68-inside-10_236_1117" fill="white">
<path d="M516.532 387.726C520.817 391.211 521.464 397.51 517.979 401.794L449.718 485.699C446.232 489.983 439.934 490.631 435.65 487.145L430.885 483.269C426.601 479.783 425.953 473.485 429.439 469.201L497.7 385.296C501.185 381.012 507.483 380.364 511.768 383.849L516.532 387.726Z"/>
</mask>
<path d="M516.532 387.726C520.817 391.211 521.464 397.51 517.979 401.794L449.718 485.699C446.232 489.983 439.934 490.631 435.65 487.145L430.885 483.269C426.601 479.783 425.953 473.485 429.439 469.201L497.7 385.296C501.185 381.012 507.483 380.364 511.768 383.849L516.532 387.726Z" fill="#E7E7E7"/>
<path d="M516.532 387.726C521.245 391.56 521.957 398.488 518.123 403.201L451.125 485.554C447.291 490.267 440.362 490.979 435.65 487.145C439.506 490.282 445.457 489.352 448.942 485.068L517.203 401.163C520.688 396.879 520.388 390.863 516.532 387.726ZM430.885 483.269C426.172 479.435 425.46 472.507 429.294 467.794L496.293 385.44C500.127 380.728 507.055 380.015 511.768 383.849C507.912 380.713 501.961 381.643 498.475 385.927L430.214 469.832C426.729 474.116 427.029 480.132 430.885 483.269ZM504.01 377.539L524.29 394.037L504.01 377.539ZM443.407 493.456L423.128 476.958L443.407 493.456Z" fill="black" mask="url(#path-68-inside-10_236_1117)"/>
<ellipse cx="437.356" cy="488.184" rx="11.676" ry="12.7742" transform="rotate(129.13 437.356 488.184)" fill="#E7E7E7"/>
<ellipse cx="522.493" cy="390.125" rx="11.676" ry="12.7742" transform="rotate(129.13 522.493 390.125)" fill="#E7E7E7"/>
<ellipse cx="509.128" cy="379.252" rx="11.676" ry="12.7742" transform="rotate(129.13 509.128 379.252)" fill="#E7E7E7"/>
<ellipse cx="425.846" cy="481.62" rx="11.676" ry="12.7742" transform="rotate(129.13 425.846 481.62)" fill="#E7E7E7"/>
</svg>
