<svg width="1006" height="447" viewBox="0 0 1006 447" fill="none" xmlns="http://www.w3.org/2000/svg">
<rect width="1003.02" height="534.465" transform="matrix(1 7.02734e-05 6.77791e-05 1 0.984375 -0.0620117)" fill="#F5F5F5"/>
<ellipse cx="46.3342" cy="54.7538" rx="46.3342" ry="54.7538" transform="matrix(0.701644 0.712528 -0.68346 0.729988 712.264 240.392)" fill="#D9D9D9" fill-opacity="0.56"/>
<path d="M738.914 276.893C746.198 284.29 751.948 291.506 753.253 299.687C754.551 307.825 751.464 317.06 740.715 328.541C730.809 339.122 717.011 348.714 703.7 353.619C690.361 358.535 677.677 358.692 669.809 350.702C662.692 343.475 661.541 331.783 665.041 318.794C668.535 305.822 676.646 291.671 687.863 279.69C699.085 267.704 708.245 263.411 716.343 263.857C724.456 264.303 731.644 269.51 738.914 276.893Z" fill="#CF6944" fill-opacity="0.76" stroke="black" stroke-width="0.89071"/>
<path d="M744.626 313.946C740.957 323.741 733.626 329.798 731.45 328.67C729.273 327.543 733.076 319.658 736.745 309.863C740.413 300.068 743.372 292.784 745.548 293.912C747.725 295.039 748.294 304.151 744.626 313.946Z" fill="#E9E9E9"/>
<path d="M745.39 294.335C745.743 294.518 746.138 295.104 746.433 296.245C746.72 297.351 746.879 298.851 746.857 300.644C746.814 304.225 746.051 308.895 744.235 313.743C742.424 318.578 739.709 322.49 737.184 325.048C735.921 326.328 734.716 327.259 733.709 327.798C733.206 328.067 732.764 328.232 732.397 328.3C732.025 328.369 731.769 328.33 731.608 328.247C731.47 328.175 731.369 328.054 731.304 327.824C731.233 327.574 731.211 327.21 731.262 326.714C731.364 325.723 731.734 324.37 732.301 322.706C733.437 319.373 735.289 314.994 737.136 310.065C738.972 305.163 740.619 300.918 742.076 298.04C742.807 296.597 743.473 295.532 744.071 294.9C744.685 294.251 745.098 294.184 745.39 294.335Z" stroke="black" stroke-opacity="0.77" stroke-width="0.89071"/>
<mask id="path-6-inside-1_236_1117" fill="white">
<path d="M664.151 340.558C665.189 344.502 667.045 347.969 669.807 350.773C672.546 353.555 675.861 355.344 679.575 356.291L668.369 368.213C668.147 368.449 667.914 368.669 667.675 368.874C667.687 368.887 667.7 368.899 667.712 368.911C672.555 373.845 673.095 381.445 668.92 385.887C664.745 390.328 657.434 389.929 652.591 384.996C649.824 382.177 648.464 378.488 648.583 375.015C645.25 375.213 641.678 373.879 638.911 371.06C634.068 366.126 633.526 358.526 637.702 354.084C641.376 350.176 647.478 350.016 652.19 353.395C652.416 353.081 652.664 352.778 652.934 352.49L664.151 340.558Z"/>
</mask>
<path d="M664.151 340.558C665.189 344.502 667.045 347.969 669.807 350.773C672.546 353.555 675.861 355.344 679.575 356.291L668.369 368.213C668.147 368.449 667.914 368.669 667.675 368.874C667.687 368.887 667.7 368.899 667.712 368.911C672.555 373.845 673.095 381.445 668.92 385.887C664.745 390.328 657.434 389.929 652.591 384.996C649.824 382.177 648.464 378.488 648.583 375.015C645.25 375.213 641.678 373.879 638.911 371.06C634.068 366.126 633.526 358.526 637.702 354.084C641.376 350.176 647.478 350.016 652.19 353.395C652.416 353.081 652.664 352.778 652.934 352.49L664.151 340.558Z" fill="#E7E7E7"/>
<path d="M664.151 340.558L664.992 340.319L664.59 338.792L663.527 339.922L664.151 340.558ZM669.807 350.773L669.198 351.423L669.198 351.423L669.807 350.773ZM679.575 356.291L680.198 356.927L681.269 355.788L679.782 355.409L679.575 356.291ZM668.369 368.213L668.993 368.849L668.993 368.848L668.369 368.213ZM667.675 368.874L667.119 368.173L666.367 368.818L667.067 369.526L667.675 368.874ZM667.712 368.911L668.322 368.262L668.322 368.262L667.712 368.911ZM668.92 385.887L669.544 386.523L669.544 386.523L668.92 385.887ZM652.591 384.996L651.982 385.645L651.982 385.645L652.591 384.996ZM648.583 375.015L649.455 375.048L649.489 374.051L648.532 374.108L648.583 375.015ZM638.911 371.06L638.301 371.709L638.301 371.709L638.911 371.06ZM637.702 354.084L637.078 353.448L637.078 353.448L637.702 354.084ZM652.19 353.395L651.695 354.143L652.385 354.638L652.887 353.942L652.19 353.395ZM652.934 352.49L652.311 351.854L652.311 351.854L652.934 352.49ZM664.151 340.558L663.309 340.798C664.385 344.88 666.314 348.495 669.198 351.423L669.807 350.773L670.415 350.123C667.777 347.443 665.994 344.123 664.992 340.319L664.151 340.558ZM669.807 350.773L669.198 351.423C672.061 354.331 675.52 356.192 679.368 357.174L679.575 356.291L679.782 355.409C676.202 354.495 673.031 352.779 670.415 350.123L669.807 350.773ZM679.575 356.291L678.951 355.655L667.745 367.577L668.369 368.213L668.993 368.848L680.198 356.927L679.575 356.291ZM668.369 368.213L667.745 367.577C667.547 367.788 667.337 367.986 667.119 368.173L667.675 368.874L668.23 369.576C668.491 369.352 668.747 369.11 668.993 368.849L668.369 368.213ZM667.675 368.874L667.067 369.526C667.076 369.534 667.083 369.542 667.089 369.547C667.094 369.553 667.1 369.558 667.102 369.56C667.106 369.563 667.106 369.564 667.107 369.565C667.107 369.565 667.105 369.563 667.103 369.56L667.712 368.911L668.322 368.262C668.306 368.245 668.29 368.23 668.285 368.225C668.281 368.222 668.28 368.221 668.279 368.22C668.278 368.219 668.28 368.22 668.282 368.223L667.675 368.874ZM667.712 368.911L667.103 369.56C671.677 374.22 672.065 381.242 668.296 385.251L668.92 385.887L669.544 386.523C674.126 381.649 673.434 373.47 668.322 368.262L667.712 368.911ZM668.92 385.887L668.296 385.251C664.527 389.26 657.776 389.007 653.201 384.347L652.591 384.996L651.982 385.645C657.093 390.852 664.962 391.397 669.544 386.523L668.92 385.887ZM652.591 384.996L653.201 384.347C650.603 381.7 649.345 378.256 649.455 375.048L648.583 375.015L647.711 374.982C647.583 378.721 649.046 382.655 651.982 385.645L652.591 384.996ZM648.583 375.015L648.532 374.108C645.454 374.291 642.119 373.058 639.521 370.411L638.911 371.06L638.301 371.709C641.237 374.7 645.046 376.136 648.634 375.922L648.583 375.015ZM638.911 371.06L639.521 370.411C634.946 365.751 634.557 358.729 638.325 354.72L637.702 354.084L637.078 353.448C632.496 358.323 633.189 366.502 638.301 371.709L638.911 371.06ZM637.702 354.084L638.325 354.72C641.645 351.189 647.26 350.962 651.695 354.143L652.19 353.395L652.684 352.647C647.695 349.07 641.107 349.163 637.078 353.448L637.702 354.084ZM652.19 353.395L652.887 353.942C653.093 353.657 653.316 353.384 653.558 353.126L652.934 352.49L652.311 351.854C652.011 352.172 651.74 352.506 651.492 352.849L652.19 353.395ZM652.934 352.49L653.558 353.126L664.774 341.194L664.151 340.558L663.527 339.922L652.311 351.854L652.934 352.49Z" fill="black" mask="url(#path-6-inside-1_236_1117)"/>
<ellipse cx="46.5444" cy="54.504" rx="46.5444" ry="54.504" transform="matrix(0.617453 0.786608 -0.761434 0.648243 930.703 295.767)" fill="#D9D9D9" fill-opacity="0.56"/>
<path d="M953.241 335.158C959.68 343.362 964.615 351.206 965.029 359.489C965.44 367.727 961.376 376.542 949.456 386.689C938.471 396.042 923.726 403.955 909.97 407.27C896.186 410.592 883.564 409.264 876.606 400.4C870.313 392.383 870.433 380.63 875.312 368.135C880.186 355.655 889.772 342.546 902.212 331.955C914.656 321.361 924.221 318.169 932.219 319.56C940.233 320.954 946.814 326.971 953.241 335.158Z" fill="#CF6944" fill-opacity="0.76" stroke="black" stroke-width="0.89071"/>
<path d="M954.917 372.643C950.214 381.946 942.275 387.105 940.234 385.73C938.193 384.355 942.823 376.966 947.526 367.663C952.229 358.36 955.956 351.469 957.997 352.845C960.038 354.22 959.619 363.341 954.917 372.643Z" fill="#E9E9E9"/>
<path d="M957.793 353.248C958.125 353.471 958.454 354.102 958.625 355.27C958.79 356.402 958.786 357.911 958.571 359.689C958.141 363.242 956.879 367.793 954.552 372.398C952.23 376.989 949.11 380.557 946.325 382.803C944.932 383.927 943.635 384.71 942.576 385.127C942.047 385.336 941.589 385.448 941.217 385.472C940.84 385.497 940.59 385.43 940.437 385.327C940.306 385.239 940.218 385.106 940.178 384.869C940.135 384.613 940.153 384.249 940.257 383.762C940.465 382.791 940.979 381.49 941.722 379.903C943.211 376.724 945.524 372.591 947.891 367.909C950.245 363.253 952.341 359.228 954.099 356.539C954.981 355.191 955.758 354.212 956.42 353.654C957.098 353.082 957.517 353.062 957.793 353.248Z" stroke="black" stroke-opacity="0.77" stroke-width="0.89071"/>
<mask id="path-12-inside-2_236_1117" fill="white">
<path d="M872.078 389.66C872.684 393.7 874.154 397.364 876.594 400.473C879.016 403.558 882.118 405.724 885.705 407.1L873.313 417.607C873.056 417.825 872.79 418.023 872.518 418.206C872.529 418.221 872.542 418.235 872.553 418.25C876.833 423.719 876.55 431.334 871.922 435.259C867.293 439.183 860.072 437.93 855.792 432.461C853.347 429.336 852.394 425.511 852.886 422.074C849.553 421.881 846.148 420.136 843.704 417.011C839.424 411.542 839.707 403.926 844.336 400.002C848.41 396.548 854.492 397.106 858.809 401.018C859.076 400.722 859.364 400.439 859.675 400.176L872.078 389.66Z"/>
</mask>
<path d="M872.078 389.66C872.684 393.7 874.154 397.364 876.594 400.473C879.016 403.558 882.118 405.724 885.705 407.1L873.313 417.607C873.056 417.825 872.79 418.023 872.518 418.206C872.529 418.221 872.542 418.235 872.553 418.25C876.833 423.719 876.55 431.334 871.922 435.259C867.293 439.183 860.072 437.93 855.792 432.461C853.347 429.336 852.394 425.511 852.886 422.074C849.553 421.881 846.148 420.136 843.704 417.011C839.424 411.542 839.707 403.926 844.336 400.002C848.41 396.548 854.492 397.106 858.809 401.018C859.076 400.722 859.364 400.439 859.675 400.176L872.078 389.66Z" fill="#E7E7E7"/>
<path d="M872.078 389.66L872.94 389.514L872.707 387.96L871.529 388.959L872.078 389.66ZM876.594 400.473L875.916 401.051L875.916 401.051L876.594 400.473ZM885.705 407.1L886.254 407.802L887.441 406.796L886.013 406.248L885.705 407.1ZM873.313 417.607L873.862 418.309L873.862 418.309L873.313 417.607ZM872.518 418.206L872.048 417.445L871.222 418L871.841 418.785L872.518 418.206ZM872.553 418.25L873.233 417.673L873.232 417.673L872.553 418.25ZM871.922 435.259L872.47 435.961L872.47 435.961L871.922 435.259ZM855.792 432.461L855.113 433.037L855.113 433.037L855.792 432.461ZM852.886 422.074L853.75 422.201L853.89 421.223L852.942 421.168L852.886 422.074ZM843.704 417.011L843.025 417.588L843.025 417.588L843.704 417.011ZM844.336 400.002L843.787 399.3L843.787 399.3L844.336 400.002ZM858.809 401.018L858.232 401.705L858.865 402.278L859.444 401.637L858.809 401.018ZM859.675 400.176L859.126 399.474L859.126 399.474L859.675 400.176ZM872.078 389.66L871.215 389.807C871.842 393.989 873.368 397.805 875.916 401.051L876.594 400.473L877.273 399.896C874.939 396.922 873.526 393.412 872.94 389.514L872.078 389.66ZM876.594 400.473L875.916 401.051C878.446 404.273 881.681 406.527 885.397 407.952L885.705 407.1L886.013 406.248C882.554 404.921 879.586 402.843 877.273 399.896L876.594 400.473ZM885.705 407.1L885.157 406.399L872.764 416.905L873.313 417.607L873.862 418.309L886.254 407.802L885.705 407.1ZM873.313 417.607L872.764 416.905C872.536 417.099 872.296 417.278 872.048 417.445L872.518 418.206L872.988 418.967C873.283 418.768 873.576 418.551 873.862 418.309L873.313 417.607ZM872.518 418.206L871.841 418.785C871.854 418.802 871.867 418.818 871.872 418.823C871.878 418.831 871.877 418.83 871.874 418.826L872.553 418.25L873.232 417.673C873.218 417.655 873.205 417.639 873.199 417.633C873.192 417.623 873.193 417.624 873.195 417.627L872.518 418.206ZM872.553 418.25L871.874 418.826C875.923 424 875.543 431.021 871.373 434.557L871.922 435.259L872.47 435.961C877.558 431.647 877.743 423.439 873.233 417.673L872.553 418.25ZM871.922 435.259L871.373 434.557C867.203 438.093 860.519 437.058 856.471 431.884L855.792 432.461L855.113 433.037C859.624 438.802 867.384 440.273 872.47 435.961L871.922 435.259ZM855.792 432.461L856.471 431.884C854.173 428.947 853.295 425.375 853.75 422.201L852.886 422.074L852.023 421.947C851.492 425.647 852.522 429.725 855.113 433.037L855.792 432.461ZM852.886 422.074L852.942 421.168C849.863 420.989 846.681 419.372 844.383 416.435L843.704 417.011L843.025 417.588C845.616 420.9 849.243 422.772 852.831 422.981L852.886 422.074ZM843.704 417.011L844.383 416.435C840.335 411.261 840.714 404.239 844.885 400.704L844.336 400.002L843.787 399.3C838.7 403.613 838.514 411.822 843.025 417.588L843.704 417.011ZM844.336 400.002L844.884 400.704C848.559 397.589 854.163 398.017 858.232 401.705L858.809 401.018L859.386 400.332C854.821 396.195 848.261 395.507 843.787 399.3L844.336 400.002ZM858.809 401.018L859.444 401.637C859.686 401.368 859.945 401.113 860.224 400.878L859.675 400.176L859.126 399.474C858.783 399.765 858.466 400.076 858.175 400.4L858.809 401.018ZM859.675 400.176L860.224 400.878L872.626 390.362L872.078 389.66L871.529 388.959L859.126 399.474L859.675 400.176Z" fill="black" mask="url(#path-12-inside-2_236_1117)"/>
<ellipse cx="46.4893" cy="54.5695" rx="46.4893" ry="54.5695" transform="matrix(0.63785 -0.770161 0.743909 0.668281 808.665 82.3726)" fill="#D9D9D9" fill-opacity="0.56"/>
<path d="M842.019 52.4488C848.663 44.4266 855.228 38.0095 862.989 36.1547C870.709 34.31 879.749 36.9565 891.409 47.4309C902.154 57.0839 912.19 70.8422 917.704 84.3801C923.231 97.9459 924.158 111.122 916.98 119.789C910.488 127.629 899.352 129.537 886.691 126.69C874.044 123.847 859.987 116.277 847.819 105.346C835.647 94.4115 830.973 85.152 830.905 76.7072C830.837 68.2456 835.388 60.4555 842.019 52.4488Z" fill="#CF6944" fill-opacity="0.76" stroke="black" stroke-width="0.89071"/>
<path d="M877.181 44.2548C886.792 47.472 893.045 54.7245 892.098 57.0554C891.15 59.3863 883.361 55.913 873.749 52.6958C864.137 49.4785 856.976 46.846 857.923 44.5151C858.871 42.1842 867.569 41.0376 877.181 44.2548Z" fill="#E9E9E9"/>
<path d="M858.34 44.6541C858.494 44.2751 859.032 43.8286 860.107 43.452C861.149 43.0869 862.577 42.8305 864.297 42.744C867.731 42.5712 872.253 43.0795 877.011 44.6719C881.755 46.2598 885.67 48.8445 888.276 51.313C889.579 52.5481 890.545 53.7432 891.123 54.7572C891.412 55.2645 891.597 55.7148 891.684 56.0919C891.773 56.4741 891.751 56.7429 891.681 56.9163C891.62 57.0655 891.51 57.1779 891.294 57.2597C891.058 57.3485 890.712 57.3933 890.234 57.3706C889.278 57.3253 887.959 57.0232 886.329 56.5347C883.066 55.5567 878.756 53.8979 873.919 52.2786C869.108 50.6685 864.939 49.2133 862.092 47.874C860.664 47.2024 859.604 46.5751 858.962 45.9924C858.303 45.3944 858.212 44.9685 858.34 44.6541Z" stroke="black" stroke-opacity="0.77" stroke-width="0.89071"/>
<mask id="path-18-inside-3_236_1117" fill="white">
<path d="M907.606 126.289C911.322 124.97 914.532 122.83 917.051 119.789C919.549 116.772 921.06 113.216 921.741 109.299L933.83 120.203C934.077 120.426 934.309 120.662 934.527 120.906C934.538 120.892 934.55 120.877 934.561 120.863C938.994 115.528 946.245 114.503 950.757 118.573C955.269 122.643 955.334 130.268 950.902 135.602C948.369 138.65 944.917 140.288 941.581 140.376C941.975 143.829 940.914 147.623 938.382 150.67C933.949 156.005 926.698 157.03 922.186 152.96C918.215 149.378 917.689 143.043 920.642 137.939C920.319 137.717 920.005 137.473 919.705 137.203L907.606 126.289Z"/>
</mask>
<path d="M907.606 126.289C911.322 124.97 914.532 122.83 917.051 119.789C919.549 116.772 921.06 113.216 921.741 109.299L933.83 120.203C934.077 120.426 934.309 120.662 934.527 120.906C934.538 120.892 934.55 120.877 934.561 120.863C938.994 115.528 946.245 114.503 950.757 118.573C955.269 122.643 955.334 130.268 950.902 135.602C948.369 138.65 944.917 140.288 941.581 140.376C941.975 143.829 940.914 147.623 938.382 150.67C933.949 156.005 926.698 157.03 922.186 152.96C918.215 149.378 917.689 143.043 920.642 137.939C920.319 137.717 920.005 137.473 919.705 137.203L907.606 126.289Z" fill="#E7E7E7"/>
<path d="M907.606 126.289L907.32 125.43L905.888 125.938L907.037 126.974L907.606 126.289ZM917.051 119.789L917.713 120.384L917.713 120.384L917.051 119.789ZM921.741 109.299L922.311 108.614L921.154 107.57L920.882 109.132L921.741 109.299ZM933.83 120.203L934.399 119.518L934.399 119.518L933.83 120.203ZM934.527 120.906L933.888 121.522L934.555 122.271L935.191 121.5L934.527 120.906ZM934.561 120.863L933.9 120.267L933.9 120.267L934.561 120.863ZM950.757 118.573L951.327 117.888L951.327 117.888L950.757 118.573ZM950.902 135.602L951.563 136.199L951.563 136.199L950.902 135.602ZM941.581 140.376L941.554 139.468L940.602 139.493L940.714 140.478L941.581 140.376ZM938.382 150.67L939.043 151.267L939.044 151.266L938.382 150.67ZM922.186 152.96L921.617 153.645L921.617 153.645L922.186 152.96ZM920.642 137.939L921.391 138.41L921.823 137.663L921.119 137.181L920.642 137.939ZM919.705 137.203L919.135 137.887L919.135 137.887L919.705 137.203ZM907.606 126.289L907.893 127.149C911.738 125.783 915.084 123.559 917.713 120.384L917.051 119.789L916.388 119.194C913.98 122.101 910.905 124.156 907.32 125.43L907.606 126.289ZM917.051 119.789L917.713 120.384C920.323 117.232 921.895 113.524 922.6 109.466L921.741 109.299L920.882 109.132C920.226 112.909 918.775 116.312 916.388 119.194L917.051 119.789ZM921.741 109.299L921.172 109.984L933.26 120.888L933.83 120.203L934.399 119.518L922.311 108.614L921.741 109.299ZM933.83 120.203L933.26 120.888C933.481 121.087 933.69 121.3 933.888 121.522L934.527 120.906L935.165 120.291C934.928 120.024 934.673 119.765 934.399 119.518L933.83 120.203ZM934.527 120.906L935.191 121.5C935.198 121.491 935.205 121.483 935.21 121.477C935.214 121.471 935.219 121.465 935.221 121.462C935.228 121.453 935.226 121.455 935.223 121.459L934.561 120.863L933.9 120.267C933.885 120.285 933.872 120.301 933.867 120.307C933.859 120.317 933.861 120.315 933.863 120.313L934.527 120.906ZM934.561 120.863L935.223 121.459C939.414 116.415 946.121 115.589 950.188 119.257L950.757 118.573L951.327 117.888C946.369 113.416 938.573 114.641 933.9 120.267L934.561 120.863ZM950.757 118.573L950.188 119.257C954.255 122.927 954.431 129.962 950.24 135.006L950.902 135.602L951.563 136.199C956.237 130.574 956.283 122.359 951.327 117.888L950.757 118.573ZM950.902 135.602L950.24 135.006C947.86 137.87 944.634 139.387 941.554 139.468L941.581 140.376L941.608 141.284C945.199 141.189 948.879 139.43 951.563 136.199L950.902 135.602ZM941.581 140.376L940.714 140.478C941.078 143.667 940.099 147.21 937.72 150.074L938.382 150.67L939.044 151.266C941.728 148.035 942.872 143.99 942.448 140.274L941.581 140.376ZM938.382 150.67L937.72 150.074C933.529 155.118 926.823 155.944 922.755 152.276L922.186 152.96L921.617 153.645C926.574 158.116 934.37 156.892 939.043 151.267L938.382 150.67ZM922.186 152.96L922.756 152.276C919.172 149.043 918.608 143.22 921.391 138.41L920.642 137.939L919.894 137.467C916.77 142.866 917.257 149.713 921.617 153.645L922.186 152.96ZM920.642 137.939L921.119 137.181C920.825 136.98 920.542 136.76 920.274 136.518L919.705 137.203L919.135 137.887C919.468 138.187 919.813 138.455 920.166 138.696L920.642 137.939ZM919.705 137.203L920.274 136.518L908.176 125.605L907.606 126.289L907.037 126.974L919.135 137.887L919.705 137.203Z" fill="black" mask="url(#path-18-inside-3_236_1117)"/>
<ellipse cx="46.6365" cy="54.3941" rx="46.6365" ry="54.3941" transform="matrix(0.577125 0.816656 -0.793693 0.608318 251.43 5.63818)" fill="#D9D9D9" fill-opacity="0.56"/>
<path d="M272.016 46.1717C278.047 54.7056 282.593 62.8024 282.602 71.0968C282.61 79.3459 278.121 87.9335 265.722 97.4365C254.295 106.195 239.183 113.317 225.284 115.9C211.356 118.487 198.814 116.493 192.297 107.271C186.403 98.9304 187.097 87.1977 192.579 74.9781C198.055 62.7726 208.27 50.1879 221.209 40.2703C234.154 30.349 243.861 27.6677 251.781 29.4807C259.717 31.2974 265.997 37.6545 272.016 46.1717Z" fill="#CF6944" fill-opacity="0.76" stroke="black" stroke-width="0.89071"/>
<path d="M271.861 83.6967C266.71 92.7384 258.529 97.4708 256.558 95.9893C254.587 94.5078 259.572 87.3733 264.723 78.3316C269.874 69.29 273.932 62.6054 275.903 64.0869C277.874 65.5684 277.012 74.655 271.861 83.6967Z" fill="#E9E9E9"/>
<path d="M275.68 64.4792C276.002 64.721 276.3 65.3681 276.413 66.5431C276.523 67.6824 276.445 69.1897 276.144 70.9544C275.541 74.4795 274.058 78.9572 271.509 83.4323C268.967 87.8944 265.676 91.293 262.785 93.3886C261.339 94.437 260.006 95.1504 258.928 95.5113C258.389 95.6919 257.927 95.7801 257.554 95.7848C257.177 95.7895 256.929 95.7079 256.782 95.5971C256.654 95.5015 256.574 95.3633 256.545 95.1257C256.514 94.8672 256.55 94.5052 256.678 94.0247C256.932 93.0654 257.509 91.7939 258.329 90.2476C259.971 87.1523 262.483 83.1475 265.075 78.5965C267.653 74.0714 269.942 70.1626 271.83 67.5705C272.776 66.2709 273.599 65.334 274.287 64.8124C274.993 64.2775 275.412 64.2783 275.68 64.4792Z" stroke="black" stroke-opacity="0.77" stroke-width="0.89071"/>
<mask id="path-24-inside-4_236_1117" fill="white">
<path d="M188.298 96.3046C188.707 100.371 189.995 104.108 192.281 107.343C194.549 110.552 197.541 112.88 201.057 114.444L188.182 124.269C187.91 124.477 187.629 124.664 187.343 124.835C187.355 124.851 187.367 124.867 187.378 124.883C191.385 130.572 190.731 138.163 185.917 141.837C181.102 145.511 173.952 143.877 169.945 138.189C167.655 134.938 166.89 131.068 167.55 127.661C164.23 127.292 160.914 125.369 158.625 122.119C154.618 116.43 155.273 108.839 160.087 105.165C164.325 101.931 170.372 102.811 174.493 106.948C174.778 106.662 175.084 106.39 175.412 106.139L188.298 96.3046Z"/>
</mask>
<path d="M188.298 96.3046C188.707 100.371 189.995 104.108 192.281 107.343C194.549 110.552 197.541 112.88 201.057 114.444L188.182 124.269C187.91 124.477 187.629 124.664 187.343 124.835C187.355 124.851 187.367 124.867 187.378 124.883C191.385 130.572 190.731 138.163 185.917 141.837C181.102 145.511 173.952 143.877 169.945 138.189C167.655 134.938 166.89 131.068 167.55 127.661C164.23 127.292 160.914 125.369 158.625 122.119C154.618 116.43 155.273 108.839 160.087 105.165C164.325 101.931 170.372 102.811 174.493 106.948C174.778 106.662 175.084 106.39 175.412 106.139L188.298 96.3046Z" fill="#E7E7E7"/>
<path d="M188.298 96.3046L189.168 96.2004L189.011 94.6408L187.786 95.5761L188.298 96.3046ZM192.281 107.343L191.574 107.885L191.574 107.885L192.281 107.343ZM201.057 114.444L201.569 115.173L202.804 114.23L201.409 113.61L201.057 114.444ZM188.182 124.269L188.695 124.998L188.695 124.998L188.182 124.269ZM187.343 124.835L186.913 124.051L186.057 124.562L186.637 125.379L187.343 124.835ZM187.378 124.883L188.086 124.343L188.086 124.343L187.378 124.883ZM185.917 141.837L186.429 142.565L186.429 142.565L185.917 141.837ZM169.945 138.189L169.237 138.729L169.237 138.729L169.945 138.189ZM167.55 127.661L168.407 127.83L168.594 126.864L167.653 126.76L167.55 127.661ZM158.625 122.119L157.917 122.659L157.917 122.659L158.625 122.119ZM160.087 105.165L159.574 104.437L159.574 104.437L160.087 105.165ZM174.493 106.948L173.882 107.603L174.486 108.21L175.097 107.597L174.493 106.948ZM175.412 106.139L174.899 105.411L174.899 105.411L175.412 106.139ZM188.298 96.3046L187.429 96.4088C187.852 100.618 189.189 104.509 191.574 107.885L192.281 107.343L192.988 106.801C190.802 103.707 189.562 100.125 189.168 96.2004L188.298 96.3046ZM192.281 107.343L191.574 107.885C193.943 111.236 197.063 113.658 200.704 115.278L201.057 114.444L201.409 113.61C198.019 112.101 195.156 109.868 192.988 106.801L192.281 107.343ZM201.057 114.444L200.544 113.716L187.67 123.541L188.182 124.269L188.695 124.998L201.569 115.173L201.057 114.444ZM188.182 124.269L187.67 123.541C187.428 123.726 187.175 123.894 186.913 124.051L187.343 124.835L187.773 125.62C188.083 125.434 188.393 125.229 188.695 124.998L188.182 124.269ZM187.343 124.835L186.637 125.379C186.65 125.396 186.662 125.413 186.667 125.419C186.673 125.427 186.672 125.427 186.671 125.424L187.378 124.883L188.086 124.343C188.073 124.324 188.06 124.307 188.055 124.3C188.048 124.29 188.048 124.29 188.049 124.292L187.343 124.835ZM187.378 124.883L186.671 125.424C190.463 130.809 189.738 137.801 185.404 141.108L185.917 141.837L186.429 142.565C191.724 138.525 192.307 130.336 188.086 124.343L187.378 124.883ZM185.917 141.837L185.404 141.108C181.07 144.416 174.445 143.033 170.652 137.648L169.945 138.189L169.237 138.729C173.458 144.722 181.135 146.605 186.429 142.565L185.917 141.837ZM169.945 138.189L170.652 137.648C168.499 134.591 167.797 130.976 168.407 127.83L167.55 127.661L166.693 127.493C165.983 131.16 166.811 135.286 169.237 138.729L169.945 138.189ZM167.55 127.661L167.653 126.76C164.587 126.418 161.486 124.634 159.333 121.578L158.625 122.119L157.917 122.659C160.343 126.103 163.874 128.166 167.447 128.563L167.55 127.661ZM158.625 122.119L159.333 121.578C155.54 116.193 156.266 109.201 160.599 105.894L160.087 105.165L159.574 104.437C154.28 108.477 153.696 116.666 157.917 122.659L158.625 122.119ZM160.087 105.165L160.599 105.894C164.419 102.979 169.995 103.701 173.882 107.603L174.493 106.948L175.105 106.293C170.75 101.92 164.231 100.883 159.574 104.437L160.087 105.165ZM174.493 106.948L175.097 107.597C175.357 107.336 175.632 107.092 175.925 106.868L175.412 106.139L174.899 105.411C174.535 105.689 174.2 105.988 173.89 106.299L174.493 106.948ZM175.412 106.139L175.925 106.868L188.811 97.0331L188.298 96.3046L187.786 95.5761L174.899 105.411L175.412 106.139Z" fill="black" mask="url(#path-24-inside-4_236_1117)"/>
<ellipse cx="46.4511" cy="54.6152" rx="46.4511" ry="54.6152" transform="matrix(0.653485 -0.756962 0.729929 0.683498 235.78 300.435)" fill="#D9D9D9" fill-opacity="0.56"/>
<path d="M269.718 271.231C276.519 263.353 283.21 257.077 291.006 255.389C298.761 253.71 307.746 256.549 319.197 267.271C329.749 277.153 339.51 291.123 344.757 304.776C350.014 318.458 350.681 331.653 343.333 340.164C336.687 347.862 325.516 349.53 312.913 346.413C300.326 343.3 286.42 335.43 274.471 324.241C262.517 313.048 258.027 303.689 258.126 295.245C258.226 286.784 262.93 279.094 269.718 271.231Z" fill="#CF6944" fill-opacity="0.76" stroke="black" stroke-width="0.89071"/>
<path d="M305.034 263.792C314.58 267.214 320.689 274.599 319.695 276.909C318.702 279.219 310.983 275.58 301.437 272.158C291.891 268.735 284.783 265.95 285.776 263.64C286.77 261.33 295.488 260.37 305.034 263.792Z" fill="#E9E9E9"/>
<path d="M286.189 263.788C286.351 263.412 286.898 262.977 287.98 262.624C289.029 262.281 290.462 262.056 292.183 262.006C295.62 261.907 300.132 262.511 304.857 264.206C309.568 265.895 313.431 268.563 315.988 271.087C317.267 272.35 318.208 273.565 318.766 274.591C319.045 275.105 319.222 275.559 319.301 275.938C319.382 276.322 319.356 276.59 319.282 276.761C319.218 276.909 319.106 277.019 318.888 277.096C318.651 277.18 318.303 277.217 317.826 277.184C316.871 277.118 315.559 276.788 313.939 276.265C310.695 275.217 306.419 273.467 301.615 271.744C296.837 270.031 292.698 268.487 289.878 267.087C288.464 266.385 287.416 265.735 286.785 265.139C286.138 264.527 286.055 264.099 286.189 263.788Z" stroke="black" stroke-opacity="0.77" stroke-width="0.89071"/>
<mask id="path-30-inside-5_236_1117" fill="white">
<path d="M333.831 346.462C337.572 345.222 340.824 343.15 343.402 340.164C345.96 337.201 347.541 333.679 348.3 329.777L360.175 340.942C360.416 341.169 360.641 341.408 360.852 341.655C360.864 341.641 360.876 341.627 360.888 341.612C365.425 336.374 372.695 335.505 377.126 339.67C381.557 343.836 381.47 351.46 376.934 356.699C374.341 359.692 370.858 361.256 367.521 361.273C367.846 364.733 366.71 368.504 364.119 371.497C359.582 376.735 352.312 377.605 347.881 373.439C343.982 369.772 343.582 363.429 346.634 358.389C346.318 358.162 346.01 357.912 345.717 357.636L333.831 346.462Z"/>
</mask>
<path d="M333.831 346.462C337.572 345.222 340.824 343.15 343.402 340.164C345.96 337.201 347.541 333.679 348.3 329.777L360.175 340.942C360.416 341.169 360.641 341.408 360.852 341.655C360.864 341.641 360.876 341.627 360.888 341.612C365.425 336.374 372.695 335.505 377.126 339.67C381.557 343.836 381.47 351.46 376.934 356.699C374.341 359.692 370.858 361.256 367.521 361.273C367.846 364.733 366.71 368.504 364.119 371.497C359.582 376.735 352.312 377.605 347.881 373.439C343.982 369.772 343.582 363.429 346.634 358.389C346.318 358.162 346.01 357.912 345.717 357.636L333.831 346.462Z" fill="#E7E7E7"/>
<path d="M333.831 346.462L333.563 345.596L332.12 346.074L333.248 347.135L333.831 346.462ZM343.402 340.164L344.052 340.773L344.052 340.773L343.402 340.164ZM348.3 329.777L348.883 329.104L347.747 328.036L347.444 329.593L348.3 329.777ZM360.175 340.942L360.758 340.269L360.758 340.269L360.175 340.942ZM360.852 341.655L360.202 342.258L360.853 343.019L361.504 342.263L360.852 341.655ZM360.888 341.612L360.239 341.003L360.239 341.003L360.888 341.612ZM377.126 339.67L377.709 338.997L377.709 338.997L377.126 339.67ZM376.934 356.699L377.583 357.309L377.583 357.309L376.934 356.699ZM367.521 361.273L367.513 360.364L366.559 360.369L366.652 361.357L367.521 361.273ZM364.119 371.497L364.768 372.106L364.768 372.106L364.119 371.497ZM347.881 373.439L347.297 374.112L347.297 374.112L347.881 373.439ZM346.634 358.389L347.373 358.876L347.82 358.138L347.127 357.641L346.634 358.389ZM345.717 357.636L346.3 356.963L346.3 356.963L345.717 357.636ZM333.831 346.462L334.099 347.327C337.972 346.044 341.36 343.891 344.052 340.773L343.402 340.164L342.752 339.555C340.287 342.41 337.173 344.4 333.563 345.596L333.831 346.462ZM343.402 340.164L344.052 340.773C346.725 337.677 348.369 334.003 349.155 329.961L348.3 329.777L347.444 329.593C346.713 333.355 345.195 336.725 342.752 339.555L343.402 340.164ZM348.3 329.777L347.716 330.45L359.592 341.615L360.175 340.942L360.758 340.269L348.883 329.104L348.3 329.777ZM360.175 340.942L359.592 341.615C359.806 341.817 360.009 342.032 360.202 342.258L360.852 341.655L361.503 341.053C361.273 340.784 361.026 340.521 360.758 340.269L360.175 340.942ZM360.852 341.655L361.504 342.263C361.512 342.254 361.518 342.246 361.523 342.239C361.528 342.234 361.533 342.228 361.535 342.225C361.542 342.217 361.54 342.219 361.537 342.222L360.888 341.612L360.239 341.003C360.223 341.02 360.21 341.037 360.205 341.043C360.197 341.052 360.199 341.051 360.201 341.048L360.852 341.655ZM360.888 341.612L361.537 342.222C365.826 337.27 372.547 336.587 376.542 340.343L377.126 339.67L377.709 338.997C372.843 334.422 365.024 335.477 360.239 341.003L360.888 341.612ZM377.126 339.67L376.542 340.343C380.538 344.1 380.573 351.137 376.284 356.089L376.934 356.699L377.583 357.309C382.368 351.784 382.575 343.573 377.709 338.997L377.126 339.67ZM376.934 356.699L376.284 356.089C373.849 358.901 370.594 360.349 367.513 360.364L367.521 361.273L367.528 362.181C371.121 362.163 374.834 360.482 377.583 357.309L376.934 356.699ZM367.521 361.273L366.652 361.357C366.953 364.553 365.905 368.075 363.469 370.887L364.119 371.497L364.768 372.106C367.516 368.933 368.739 364.912 368.389 361.188L367.521 361.273ZM364.119 371.497L363.469 370.887C359.181 375.839 352.459 376.522 348.464 372.766L347.881 373.439L347.297 374.112C352.164 378.687 359.983 377.632 364.768 372.106L364.119 371.497ZM347.881 373.439L348.464 372.766C344.945 369.457 344.498 363.623 347.373 358.876L346.634 358.389L345.896 357.902C342.666 363.234 343.018 370.088 347.297 374.112L347.881 373.439ZM346.634 358.389L347.127 357.641C346.839 357.435 346.562 357.21 346.3 356.963L345.717 357.636L345.133 358.309C345.457 358.614 345.796 358.889 346.142 359.137L346.634 358.389ZM345.717 357.636L346.3 356.963L334.415 345.789L333.831 346.462L333.248 347.135L345.133 358.309L345.717 357.636Z" fill="black" mask="url(#path-30-inside-5_236_1117)"/>
<ellipse cx="46.4905" cy="54.5677" rx="46.4905" ry="54.5677" transform="matrix(0.639878 0.768455 -0.742152 0.670257 219.322 336.723)" fill="#D9D9D9" fill-opacity="0.56"/>
<path d="M242.95 375.415C249.616 383.42 254.767 391.111 255.412 399.377C256.052 407.599 252.236 416.534 240.604 427.039C229.884 436.72 215.366 445.077 201.709 448.807C188.023 452.545 175.37 451.6 168.168 442.952C161.655 435.13 161.446 423.378 165.975 410.74C170.498 398.117 179.715 384.722 191.854 373.76C203.997 362.793 213.469 359.311 221.502 360.46C229.552 361.611 236.298 367.426 242.95 375.415Z" fill="#CF6944" fill-opacity="0.76" stroke="black" stroke-width="0.89071"/>
<path d="M245.671 412.833C241.229 422.275 233.438 427.672 231.359 426.36C229.281 425.047 233.703 417.52 238.145 408.079C242.586 398.638 246.119 391.637 248.197 392.95C250.275 394.263 250.112 403.392 245.671 412.833Z" fill="#E9E9E9"/>
<path d="M248.005 393.359C248.343 393.572 248.69 394.191 248.893 395.353C249.089 396.48 249.127 397.989 248.962 399.773C248.631 403.338 247.497 407.925 245.298 412.599C243.106 417.258 240.087 420.92 237.366 423.249C236.005 424.415 234.73 425.237 233.683 425.687C233.16 425.911 232.705 426.037 232.334 426.073C231.958 426.109 231.706 426.048 231.551 425.95C231.418 425.866 231.327 425.736 231.281 425.502C231.23 425.246 231.238 424.883 231.328 424.393C231.509 423.415 231.986 422.099 232.685 420.49C234.084 417.268 236.281 413.066 238.516 408.314C240.739 403.589 242.722 399.502 244.405 396.761C245.249 395.387 245.998 394.384 246.644 393.807C247.307 393.214 247.725 393.182 248.005 393.359Z" stroke="black" stroke-opacity="0.77" stroke-width="0.89071"/>
<mask id="path-36-inside-6_236_1117" fill="white">
<path d="M163.342 432.353C164.061 436.372 165.632 439.989 168.159 443.023C170.665 446.034 173.826 448.105 177.45 449.372L165.349 460.257C165.101 460.48 164.843 460.683 164.579 460.873C164.591 460.887 164.604 460.901 164.616 460.915C169.047 466.253 168.976 473.874 164.459 477.937C159.941 482 152.688 480.966 148.258 475.629C145.727 472.579 144.667 468.785 145.064 465.335C141.727 465.243 138.274 463.601 135.743 460.552C131.313 455.214 131.384 447.594 135.901 443.531C139.876 439.955 145.971 440.328 150.396 444.107C150.652 443.806 150.93 443.517 151.231 443.247L163.342 432.353Z"/>
</mask>
<path d="M163.342 432.353C164.061 436.372 165.632 439.989 168.159 443.023C170.665 446.034 173.826 448.105 177.45 449.372L165.349 460.257C165.101 460.48 164.843 460.683 164.579 460.873C164.591 460.887 164.604 460.901 164.616 460.915C169.047 466.253 168.976 473.874 164.459 477.937C159.941 482 152.688 480.966 148.258 475.629C145.727 472.579 144.667 468.785 145.064 465.335C141.727 465.243 138.274 463.601 135.743 460.552C131.313 455.214 131.384 447.594 135.901 443.531C139.876 439.955 145.971 440.328 150.396 444.107C150.652 443.806 150.93 443.517 151.231 443.247L163.342 432.353Z" fill="#E7E7E7"/>
<path d="M163.342 432.353L164.2 432.182L163.923 430.633L162.774 431.667L163.342 432.353ZM168.159 443.023L167.498 443.62L167.498 443.62L168.159 443.023ZM177.45 449.372L178.019 450.058L179.177 449.016L177.732 448.511L177.45 449.372ZM165.349 460.257L165.917 460.942L165.917 460.942L165.349 460.257ZM164.579 460.873L164.087 460.126L163.279 460.705L163.919 461.471L164.579 460.873ZM164.616 460.915L165.278 460.32L165.278 460.32L164.616 460.915ZM164.459 477.937L165.027 478.623L165.027 478.623L164.459 477.937ZM148.258 475.629L147.596 476.224L147.596 476.224L148.258 475.629ZM145.064 465.335L145.931 465.438L146.044 464.453L145.092 464.427L145.064 465.335ZM135.743 460.552L135.081 461.148L135.081 461.148L135.743 460.552ZM135.901 443.531L135.332 442.845L135.332 442.845L135.901 443.531ZM150.396 444.107L149.839 444.811L150.488 445.364L151.047 444.708L150.396 444.107ZM151.231 443.247L150.662 442.561L150.662 442.561L151.231 443.247ZM163.342 432.353L162.484 432.524C163.228 436.685 164.86 440.453 167.498 443.62L168.159 443.023L168.82 442.426C166.404 439.525 164.894 436.06 164.2 432.182L163.342 432.353ZM168.159 443.023L167.498 443.62C170.116 446.765 173.413 448.92 177.168 450.233L177.45 449.372L177.732 448.511C174.238 447.289 171.214 445.302 168.82 442.426L168.159 443.023ZM177.45 449.372L176.882 448.686L164.78 459.571L165.349 460.257L165.917 460.942L178.019 450.058L177.45 449.372ZM165.349 460.257L164.78 459.571C164.56 459.769 164.328 459.953 164.087 460.126L164.579 460.873L165.072 461.619C165.358 461.414 165.642 461.19 165.917 460.942L165.349 460.257ZM164.579 460.873L163.919 461.471C163.933 461.488 163.947 461.503 163.951 461.508C163.958 461.516 163.957 461.515 163.954 461.511L164.616 460.915L165.278 460.32C165.263 460.302 165.249 460.286 165.244 460.28C165.236 460.271 165.237 460.272 165.239 460.274L164.579 460.873ZM164.616 460.915L163.954 461.511C168.143 466.559 167.962 473.589 163.89 477.251L164.459 477.937L165.027 478.623C169.99 474.159 169.95 465.948 165.278 460.32L164.616 460.915ZM164.459 477.937L163.89 477.251C159.818 480.914 153.109 480.08 148.92 475.033L148.258 475.629L147.596 476.224C152.267 481.852 160.065 483.086 165.027 478.623L164.459 477.937ZM148.258 475.629L148.92 475.033C146.541 472.167 145.564 468.624 145.931 465.438L145.064 465.335L144.197 465.232C143.77 468.947 144.913 472.992 147.596 476.224L148.258 475.629ZM145.064 465.335L145.092 464.427C142.01 464.342 138.784 462.822 136.405 459.956L135.743 460.552L135.081 461.148C137.765 464.381 141.444 466.144 145.036 466.243L145.064 465.335ZM135.743 460.552L136.405 459.956C132.216 454.909 132.398 447.879 136.469 444.216L135.901 443.531L135.332 442.845C130.369 447.309 130.41 455.52 135.081 461.148L135.743 460.552ZM135.901 443.531L136.469 444.216C140.057 440.99 145.67 441.249 149.839 444.811L150.396 444.107L150.952 443.404C146.272 439.406 139.696 438.92 135.332 442.845L135.901 443.531ZM150.396 444.107L151.047 444.708C151.28 444.434 151.53 444.174 151.799 443.932L151.231 443.247L150.662 442.561C150.329 442.86 150.024 443.178 149.744 443.507L150.396 444.107ZM151.231 443.247L151.799 443.932L163.911 433.039L163.342 432.353L162.774 431.667L150.662 442.561L151.231 443.247Z" fill="black" mask="url(#path-36-inside-6_236_1117)"/>
<path d="M555.91 320.421C550.395 315.465 541.77 316.371 536.652 322.549C531.535 328.726 531.937 337.746 537.452 342.702C542.967 347.658 551.591 346.751 556.709 340.573C561.826 334.396 561.424 325.378 555.91 320.421Z" fill="#E7E7E7" stroke="black"/>
<path d="M542.157 337.022C536.642 332.066 528.017 332.972 522.899 339.15C517.781 345.327 518.183 354.347 523.698 359.303C529.213 364.259 537.838 363.352 542.956 357.174C548.073 350.997 547.671 341.979 542.157 337.022Z" fill="#E7E7E7" stroke="black"/>
<path d="M438.187 243.591C432.672 238.635 424.047 239.541 418.929 245.719C413.811 251.896 414.213 260.916 419.728 265.872C425.243 270.828 433.868 269.92 438.986 263.743C444.103 257.565 443.701 248.547 438.187 243.591Z" fill="#E7E7E7" stroke="black"/>
<path d="M453.086 225.607C447.572 220.651 438.947 221.557 433.829 227.734C428.711 233.912 429.113 242.931 434.628 247.887C440.143 252.843 448.768 251.936 453.886 245.759C459.003 239.581 458.601 230.563 453.086 225.607Z" fill="#E7E7E7" stroke="black"/>
<mask id="path-42-inside-7_236_1117" fill="white">
<path d="M538.535 335.273C542.059 331.02 541.585 324.579 537.478 320.888L454.197 246.046C450.089 242.355 443.903 242.81 440.379 247.063L436.338 251.941C432.814 256.194 433.288 262.635 437.396 266.326L520.676 341.168C524.784 344.859 530.971 344.404 534.494 340.151L538.535 335.273Z"/>
</mask>
<path d="M538.535 335.273C542.059 331.02 541.585 324.579 537.478 320.888L454.197 246.046C450.089 242.355 443.903 242.81 440.379 247.063L436.338 251.941C432.814 256.194 433.288 262.635 437.396 266.326L520.676 341.168C524.784 344.859 530.971 344.404 534.494 340.151L538.535 335.273Z" fill="#E7E7E7"/>
<path d="M538.535 335.273C542.411 330.594 541.89 323.51 537.372 319.449L455.579 245.945C451.06 241.884 444.255 242.385 440.379 247.063C443.55 243.235 449.451 243.125 453.559 246.817L536.84 321.658C540.947 325.349 541.707 331.445 538.535 335.273ZM436.338 251.941C432.462 256.62 432.983 263.704 437.502 267.765L519.295 341.269C523.813 345.33 530.618 344.829 534.494 340.151C531.323 343.978 525.422 344.089 521.314 340.397L438.034 265.556C433.926 261.865 433.167 255.769 436.338 251.941ZM528.114 347.852L544.915 327.572L528.114 347.852ZM446.759 239.362L429.958 259.642L446.759 239.362Z" fill="black" mask="url(#path-42-inside-7_236_1117)"/>
<ellipse cx="12.0253" cy="12.8709" rx="12.0253" ry="12.8709" transform="matrix(-0.743769 -0.668412 -0.637972 0.770083 458.974 243.901)" fill="#E7E7E7"/>
<ellipse cx="12.0253" cy="12.8709" rx="12.0253" ry="12.8709" transform="matrix(-0.743769 -0.668412 -0.637972 0.770083 561.043 329.993)" fill="#E7E7E7"/>
<ellipse cx="12.0253" cy="12.8709" rx="12.0253" ry="12.8709" transform="matrix(-0.743769 -0.668412 -0.637972 0.770083 549.964 343.367)" fill="#E7E7E7"/>
<ellipse cx="12.0253" cy="12.8709" rx="12.0253" ry="12.8709" transform="matrix(-0.743769 -0.668412 -0.637972 0.770083 448.905 252.551)" fill="#E7E7E7"/>
<path d="M533.444 237.984C538.623 232.649 538.43 223.624 532.921 217.822C527.412 212.021 518.749 211.719 513.569 217.053C508.39 222.388 508.582 231.414 514.091 237.216C519.601 243.017 528.265 243.318 533.444 237.984Z" fill="#E7E7E7" stroke="black"/>
<path d="M518.638 222.392C523.817 217.057 523.624 208.032 518.115 202.23C512.606 196.429 503.943 196.128 498.763 201.462C493.584 206.796 493.776 215.822 499.285 221.624C504.794 227.425 513.458 227.726 518.638 222.392Z" fill="#E7E7E7" stroke="black"/>
<path d="M616.266 121.84C621.445 116.506 621.252 107.48 615.743 101.679C610.234 95.8771 601.571 95.5759 596.391 100.91C591.212 106.244 591.404 115.27 596.913 121.072C602.422 126.874 611.087 127.174 616.266 121.84Z" fill="#E7E7E7" stroke="black"/>
<path d="M632.306 138.733C637.485 133.398 637.292 124.373 631.783 118.571C626.274 112.77 617.611 112.469 612.431 117.803C607.252 123.137 607.444 132.163 612.953 137.965C618.462 143.766 627.126 144.067 632.306 138.733Z" fill="#E7E7E7" stroke="black"/>
<mask id="path-52-inside-8_236_1117" fill="white">
<path d="M520.587 218.751C524.389 222.755 530.591 222.79 534.438 218.827L612.668 138.256C616.516 134.293 616.552 127.834 612.749 123.829L608.425 119.276C604.622 115.271 598.421 115.237 594.573 119.2L516.343 199.771C512.496 203.734 512.46 210.193 516.263 214.197L520.587 218.751Z"/>
</mask>
<path d="M520.587 218.751C524.389 222.755 530.591 222.79 534.438 218.827L612.668 138.256C616.516 134.293 616.552 127.834 612.749 123.829L608.425 119.276C604.622 115.271 598.421 115.237 594.573 119.2L516.343 199.771C512.496 203.734 512.46 210.193 516.263 214.197L520.587 218.751Z" fill="#E7E7E7"/>
<path d="M520.587 218.751C524.77 223.156 531.592 223.194 535.824 218.835L612.66 139.698C616.892 135.339 616.932 128.235 612.749 123.829C616.171 127.434 615.827 133.568 611.98 137.53L533.75 218.102C529.903 222.065 524.009 222.355 520.587 218.751ZM608.425 119.276C604.242 114.871 597.42 114.833 593.188 119.192L516.352 198.329C512.119 202.687 512.08 209.792 516.263 214.197C512.84 210.593 513.185 204.459 517.032 200.496L595.262 119.925C599.109 115.962 605.003 115.672 608.425 119.276ZM509.377 206.946L527.472 226.002L509.377 206.946ZM619.634 131.081L601.539 112.025L619.634 131.081Z" fill="black" mask="url(#path-52-inside-8_236_1117)"/>
<ellipse cx="12.0531" cy="12.8412" rx="12.0531" ry="12.8412" transform="matrix(0.696616 -0.717469 -0.688573 -0.725143 614.333 143.397)" fill="#E7E7E7"/>
<ellipse cx="12.0531" cy="12.8412" rx="12.0531" ry="12.8412" transform="matrix(0.696616 -0.717469 -0.688573 -0.725143 523.879 242.555)" fill="#E7E7E7"/>
<ellipse cx="12.0531" cy="12.8412" rx="12.0531" ry="12.8412" transform="matrix(0.696616 -0.717469 -0.688573 -0.725143 511.952 229.994)" fill="#E7E7E7"/>
<ellipse cx="12.0531" cy="12.8412" rx="12.0531" ry="12.8412" transform="matrix(0.696616 -0.717469 -0.688573 -0.725143 606.847 132.258)" fill="#E7E7E7"/>
<path d="M528.08 412.677C523.618 418.39 515.079 418.94 508.993 413.783C502.907 408.626 501.687 399.806 506.149 394.093C510.611 388.381 519.149 387.83 525.236 392.987C531.322 398.145 532.542 406.965 528.08 412.677Z" fill="#E7E7E7" stroke="black"/>
<path d="M511.747 398.839C507.285 404.551 498.746 405.102 492.66 399.945C486.573 394.787 485.354 385.968 489.816 380.255C494.278 374.543 502.816 373.992 508.902 379.149C514.989 384.307 516.208 393.126 511.747 398.839Z" fill="#E7E7E7" stroke="black"/>
<mask id="path-60-inside-9_236_1117" fill="white">
<path d="M508.485 401.109C512.698 404.679 513.358 411.102 509.958 415.455L442.673 501.597C439.273 505.949 433.101 506.583 428.888 503.013L424.169 499.015C419.956 495.444 419.296 489.022 422.696 484.669L489.981 398.527C493.381 394.175 499.553 393.54 503.766 397.111L508.485 401.109Z"/>
</mask>
<path d="M508.485 401.109C512.698 404.679 513.358 411.102 509.958 415.455L442.673 501.597C439.273 505.949 433.101 506.583 428.888 503.013L424.169 499.015C419.956 495.444 419.296 489.022 422.696 484.669L489.981 398.527C493.381 394.175 499.553 393.54 503.766 397.111L508.485 401.109Z" fill="#E7E7E7"/>
<path d="M508.485 401.109C513.12 405.036 513.845 412.101 510.106 416.889L444.051 501.455C440.312 506.243 433.523 506.94 428.888 503.013C432.68 506.226 438.51 505.303 441.91 500.95L509.195 414.808C512.595 410.456 512.277 404.322 508.485 401.109ZM424.169 499.015C419.534 495.087 418.809 488.022 422.548 483.235L488.602 398.669C492.342 393.881 499.131 393.183 503.766 397.111C499.974 393.897 494.144 394.821 490.744 399.174L423.459 485.316C420.059 489.668 420.377 495.802 424.169 499.015ZM496.137 390.646L516.114 407.574L496.137 390.646ZM436.517 509.478L416.54 492.55L436.517 509.478Z" fill="black" mask="url(#path-60-inside-9_236_1117)"/>
<ellipse cx="11.7762" cy="12.7909" rx="11.7762" ry="12.7909" transform="matrix(-0.615566 0.788108 -0.762915 -0.646476 531.353 402.54)" fill="#E7E7E7"/>
<ellipse cx="11.7762" cy="12.7909" rx="11.7762" ry="12.7909" transform="matrix(-0.615566 0.788108 -0.762915 -0.646476 518.196 391.392)" fill="#E7E7E7"/>
</svg>
