<svg width="1005" height="447" viewBox="0 0 1005 447" fill="none" xmlns="http://www.w3.org/2000/svg">
<rect width="1003.02" height="481.207" transform="matrix(1 -0.000119011 -0.000126921 1 0.984375 -0.0620117)" fill="#F5F5F5"/>
<ellipse cx="44.0418" cy="51.9281" rx="44.0418" ry="51.9281" transform="matrix(0.738022 0.674777 -0.720796 0.693147 712.218 216.296)" fill="#D9D9D9" fill-opacity="0.56"/>
<path d="M738.845 249.171C746.128 255.83 751.871 262.321 753.173 269.679C754.468 276.996 751.385 285.306 740.636 295.642C730.731 305.168 716.934 313.804 703.626 318.221C690.289 322.649 677.616 322.791 669.759 315.607C662.652 309.109 661.501 298.591 665.002 286.9C668.498 275.223 676.609 262.485 687.826 251.698C699.048 240.907 708.203 237.045 716.291 237.445C724.395 237.845 731.577 242.526 738.845 249.171Z" fill="#CF6944" fill-opacity="0.76" stroke="black" stroke-width="0.89071"/>
<path d="M744.566 282.515C740.896 291.334 733.563 296.789 731.387 295.774C729.211 294.759 733.015 287.659 736.686 278.84C740.356 270.02 743.316 263.462 745.492 264.477C747.669 265.491 748.236 273.695 744.566 282.515Z" fill="#E9E9E9"/>
<path d="M745.325 264.878C745.668 265.038 746.061 265.556 746.356 266.583C746.641 267.575 746.8 268.924 746.778 270.536C746.734 273.757 745.971 277.96 744.155 282.323C742.344 286.673 739.63 290.194 737.107 292.495C735.844 293.647 734.641 294.483 733.637 294.967C733.134 295.21 732.693 295.358 732.329 295.418C731.96 295.48 731.71 295.445 731.554 295.372C731.423 295.311 731.326 295.208 731.262 295.006C731.193 294.785 731.171 294.462 731.222 294.017C731.323 293.128 731.692 291.912 732.26 290.413C733.396 287.412 735.248 283.472 737.096 279.031C738.933 274.617 740.583 270.797 742.039 268.207C742.77 266.907 743.435 265.95 744.03 265.383C744.643 264.801 745.047 264.748 745.325 264.878Z" stroke="black" stroke-opacity="0.77" stroke-width="0.89071"/>
<mask id="path-6-inside-1_236_1117" fill="white">
<path d="M664.086 306.491C665.124 310.041 666.98 313.162 669.74 315.686C672.479 318.19 675.794 319.8 679.508 320.653L668.631 331.07C668.294 331.392 667.936 331.685 667.563 331.947C667.589 331.971 667.616 331.993 667.642 332.017C672.484 336.458 673.024 343.301 668.848 347.301C664.671 351.301 657.359 350.943 652.517 346.502C649.751 343.965 648.392 340.644 648.511 337.517C645.178 337.696 641.606 336.495 638.84 333.958C633.998 329.516 633.459 322.673 637.635 318.673C641.324 315.14 647.458 315.009 652.177 318.087C652.477 317.677 652.817 317.284 653.2 316.917L664.086 306.491Z"/>
</mask>
<path d="M664.086 306.491C665.124 310.041 666.98 313.162 669.74 315.686C672.479 318.19 675.794 319.8 679.508 320.653L668.631 331.07C668.294 331.392 667.936 331.685 667.563 331.947C667.589 331.971 667.616 331.993 667.642 332.017C672.484 336.458 673.024 343.301 668.848 347.301C664.671 351.301 657.359 350.943 652.517 346.502C649.751 343.965 648.392 340.644 648.511 337.517C645.178 337.696 641.606 336.495 638.84 333.958C633.998 329.516 633.459 322.673 637.635 318.673C641.324 315.14 647.458 315.009 652.177 318.087C652.477 317.677 652.817 317.284 653.2 316.917L664.086 306.491Z" fill="#E7E7E7"/>
<path d="M664.086 306.491L664.972 306.261L664.55 304.816L663.43 305.888L664.086 306.491ZM669.74 315.686L669.098 316.304L669.098 316.304L669.74 315.686ZM679.508 320.653L680.164 321.255L681.291 320.175L679.727 319.816L679.508 320.653ZM668.631 331.07L669.287 331.672L669.287 331.672L668.631 331.07ZM667.563 331.947L667.013 331.258L666.147 331.866L666.925 332.568L667.563 331.947ZM667.642 332.017L668.285 331.4L668.285 331.4L667.642 332.017ZM668.848 347.301L669.504 347.903L669.504 347.903L668.848 347.301ZM652.517 346.502L651.874 347.118L651.874 347.119L652.517 346.502ZM648.511 337.517L649.43 337.546L649.466 336.602L648.46 336.656L648.511 337.517ZM638.84 333.958L638.197 334.574L638.197 334.574L638.84 333.958ZM637.635 318.673L636.979 318.071L636.979 318.071L637.635 318.673ZM652.177 318.087L651.652 318.795L652.411 319.291L652.935 318.574L652.177 318.087ZM653.2 316.917L653.857 317.519L653.857 317.519L653.2 316.917ZM664.086 306.491L663.2 306.72C664.276 310.401 666.209 313.662 669.098 316.304L669.74 315.686L670.382 315.069C667.75 312.663 665.972 309.68 664.972 306.261L664.086 306.491ZM669.74 315.686L669.098 316.304C671.967 318.927 675.433 320.605 679.288 321.489L679.508 320.653L679.727 319.816C676.155 318.996 672.991 317.454 670.382 315.069L669.74 315.686ZM679.508 320.653L678.851 320.05L667.975 330.468L668.631 331.07L669.287 331.672L680.164 321.255L679.508 320.653ZM668.631 331.07L667.975 330.468C667.672 330.758 667.349 331.021 667.013 331.258L667.563 331.947L668.113 332.636C668.523 332.348 668.917 332.027 669.287 331.672L668.631 331.07ZM667.563 331.947L666.925 332.568C666.946 332.587 666.967 332.606 666.978 332.615C666.992 332.627 666.996 332.631 666.999 332.633L667.642 332.017L668.285 331.4C668.262 331.379 668.24 331.36 668.227 331.349C668.211 331.335 668.205 331.33 668.201 331.326L667.563 331.947ZM667.642 332.017L666.999 332.633C671.56 336.817 671.937 343.111 668.191 346.699L668.848 347.301L669.504 347.903C674.11 343.491 673.408 336.099 668.285 331.4L667.642 332.017ZM668.848 347.301L668.191 346.699C664.445 350.287 657.721 350.069 653.16 345.886L652.517 346.502L651.874 347.119C656.997 351.817 664.897 352.315 669.504 347.903L668.848 347.301ZM652.517 346.502L653.16 345.886C650.571 343.511 649.32 340.421 649.43 337.546L648.511 337.517L647.593 337.487C647.464 340.866 648.931 344.419 651.874 347.118L652.517 346.502ZM648.511 337.517L648.46 336.656C645.395 336.821 642.073 335.716 639.483 333.341L638.84 333.958L638.197 334.574C641.14 337.273 644.962 338.571 648.563 338.377L648.511 337.517ZM638.84 333.958L639.483 333.341C634.922 329.158 634.545 322.863 638.291 319.276L637.635 318.673L636.979 318.071C632.372 322.483 633.074 329.875 638.197 334.574L638.84 333.958ZM637.635 318.673L638.291 319.276C641.603 316.103 647.222 315.905 651.652 318.795L652.177 318.087L652.703 317.38C647.695 314.112 641.045 314.177 636.979 318.071L637.635 318.673ZM652.177 318.087L652.935 318.574C653.206 318.203 653.512 317.849 653.857 317.519L653.2 316.917L652.544 316.314C652.121 316.72 651.748 317.152 651.419 317.601L652.177 318.087ZM653.2 316.917L653.857 317.519L664.742 307.093L664.086 306.491L663.43 305.888L652.544 316.314L653.2 316.917Z" fill="black" mask="url(#path-6-inside-1_236_1117)"/>
<ellipse cx="43.724" cy="52.3006" rx="43.724" ry="52.3006" transform="matrix(0.657123 0.753784 -0.793641 0.608387 930.646 266.111)" fill="#D9D9D9" fill-opacity="0.56"/>
<path d="M953.162 301.584C959.6 308.968 964.527 316.023 964.938 323.47C965.347 330.877 961.287 338.81 949.365 347.949C938.379 356.371 923.633 363.499 909.879 366.485C896.092 369.479 883.486 368.281 876.544 360.318C870.265 353.115 870.381 342.546 875.263 331.295C880.138 320.06 889.726 308.255 902.166 298.719C914.612 289.178 924.173 286.306 932.163 287.555C940.166 288.807 946.739 294.215 953.162 301.584Z" fill="#CF6944" fill-opacity="0.76" stroke="black" stroke-width="0.89071"/>
<path d="M954.845 335.322C950.141 343.699 942.201 348.346 940.16 347.108C938.12 345.87 942.751 339.216 947.456 330.84C952.161 322.463 955.889 316.258 957.929 317.496C959.97 318.734 959.55 326.946 954.845 335.322Z" fill="#E9E9E9"/>
<path d="M957.716 317.876C958.035 318.069 958.363 318.623 958.533 319.675C958.698 320.692 958.694 322.049 958.478 323.65C958.048 326.847 956.785 330.943 954.457 335.088C952.136 339.22 949.016 342.432 946.233 344.454C944.84 345.465 943.545 346.169 942.488 346.544C941.959 346.732 941.504 346.833 941.135 346.855C940.761 346.877 940.517 346.816 940.373 346.729C940.253 346.655 940.169 346.544 940.13 346.337C940.087 346.11 940.104 345.784 940.208 345.347C940.416 344.473 940.929 343.303 941.673 341.874C943.162 339.012 945.476 335.292 947.844 331.075C950.199 326.883 952.296 323.259 954.054 320.839C954.936 319.625 955.711 318.744 956.371 318.243C957.052 317.727 957.459 317.719 957.716 317.876Z" stroke="black" stroke-opacity="0.77" stroke-width="0.89071"/>
<mask id="path-12-inside-2_236_1117" fill="white">
<path d="M872.003 350.659C872.609 354.296 874.078 357.594 876.518 360.393C878.939 363.17 882.04 365.119 885.627 366.358L873.52 375.601C873.164 375.873 872.792 376.114 872.409 376.326C872.43 376.351 872.454 376.375 872.475 376.399C876.753 381.323 876.469 388.18 871.84 391.714C867.21 395.248 859.989 394.121 855.71 389.197C853.266 386.384 852.313 382.942 852.807 379.847C849.474 379.674 846.069 378.103 843.625 375.29C839.346 370.366 839.631 363.509 844.26 359.975C848.348 356.855 854.454 357.37 858.773 360.922C859.107 360.562 859.477 360.222 859.885 359.911L872.003 350.659Z"/>
</mask>
<path d="M872.003 350.659C872.609 354.296 874.078 357.594 876.518 360.393C878.939 363.17 882.04 365.119 885.627 366.358L873.52 375.601C873.164 375.873 872.792 376.114 872.409 376.326C872.43 376.351 872.454 376.375 872.475 376.399C876.753 381.323 876.469 388.18 871.84 391.714C867.21 395.248 859.989 394.121 855.71 389.197C853.266 386.384 852.313 382.942 852.807 379.847C849.474 379.674 846.069 378.103 843.625 375.29C839.346 370.366 839.631 363.509 844.26 359.975C848.348 356.855 854.454 357.37 858.773 360.922C859.107 360.562 859.477 360.222 859.885 359.911L872.003 350.659Z" fill="#E7E7E7"/>
<path d="M872.003 350.659L872.91 350.536L872.661 349.039L871.419 349.987L872.003 350.659ZM876.518 360.393L875.812 360.935L875.812 360.935L876.518 360.393ZM885.627 366.358L886.211 367.03L887.461 366.076L885.934 365.549L885.627 366.358ZM873.52 375.601L874.104 376.274L874.104 376.274L873.52 375.601ZM872.409 376.326L871.935 375.582L871.017 376.091L871.705 376.872L872.409 376.326ZM872.475 376.399L873.183 375.859L873.183 375.859L872.475 376.399ZM871.84 391.714L872.424 392.386L872.424 392.386L871.84 391.714ZM855.71 389.197L855.002 389.738L855.002 389.738L855.71 389.197ZM852.807 379.847L853.715 379.985L853.866 379.038L852.846 378.986L852.807 379.847ZM843.625 375.29L842.917 375.83L842.917 375.83L843.625 375.29ZM844.26 359.975L843.676 359.303L843.676 359.303L844.26 359.975ZM858.773 360.922L858.173 361.568L858.868 362.139L859.467 361.494L858.773 360.922ZM859.885 359.911L859.301 359.238L859.301 359.238L859.885 359.911ZM872.003 350.659L871.097 350.782C871.725 354.556 873.255 358.002 875.812 360.935L876.518 360.393L877.225 359.851C874.901 357.185 873.493 354.037 872.91 350.536L872.003 350.659ZM876.518 360.393L875.812 360.935C878.35 363.847 881.595 365.881 885.32 367.167L885.627 366.358L885.934 365.549C882.485 364.358 879.529 362.494 877.225 359.851L876.518 360.393ZM885.627 366.358L885.043 365.686L872.936 374.929L873.52 375.601L874.104 376.274L886.211 367.03L885.627 366.358ZM873.52 375.601L872.936 374.929C872.616 375.173 872.281 375.39 871.935 375.582L872.409 376.326L872.883 377.071C873.303 376.838 873.712 376.573 874.104 376.274L873.52 375.601ZM872.409 376.326L871.705 376.872C871.724 376.894 871.743 376.914 871.752 376.924C871.758 376.93 871.761 376.933 871.764 376.936C871.766 376.939 871.767 376.94 871.767 376.94L872.475 376.399L873.183 375.859C873.162 375.835 873.143 375.813 873.132 375.802C873.118 375.787 873.115 375.784 873.112 375.781L872.409 376.326ZM872.475 376.399L871.767 376.94C875.787 381.566 875.42 387.862 871.256 391.042L871.84 391.714L872.424 392.386C877.517 388.498 877.72 381.08 873.183 375.859L872.475 376.399ZM871.84 391.714L871.256 391.041C867.091 394.221 860.438 393.283 856.418 388.656L855.71 389.197L855.002 389.738C859.539 394.959 867.33 396.275 872.424 392.386L871.84 391.714ZM855.71 389.197L856.418 388.656C854.134 386.028 853.261 382.831 853.715 379.985L852.807 379.847L851.899 379.709C851.366 383.053 852.398 386.741 855.002 389.738L855.71 389.197ZM852.807 379.847L852.846 378.986C849.781 378.826 846.616 377.377 844.332 374.749L843.625 375.29L842.917 375.83C845.521 378.828 849.166 380.521 852.768 380.708L852.807 379.847ZM843.625 375.29L844.332 374.749C840.312 370.123 840.679 363.827 844.844 360.648L844.26 359.975L843.676 359.303C838.582 363.191 838.38 370.609 842.917 375.83L843.625 375.29ZM844.26 359.975L844.844 360.648C848.525 357.838 854.128 358.241 858.173 361.568L858.773 360.922L859.372 360.275C854.779 356.498 848.171 355.872 843.676 359.303L844.26 359.975ZM858.773 360.922L859.467 361.494C859.77 361.168 860.103 360.862 860.469 360.583L859.885 359.911L859.301 359.238C858.851 359.582 858.445 359.955 858.078 360.349L858.773 360.922ZM859.885 359.911L860.469 360.583L872.587 351.331L872.003 350.659L871.419 349.987L859.301 359.238L859.885 359.911Z" fill="black" mask="url(#path-12-inside-2_236_1117)"/>
<ellipse cx="43.8094" cy="52.2008" rx="43.8094" ry="52.2008" transform="matrix(0.677023 -0.735962 0.777532 0.628843 808.649 74.0039)" fill="#D9D9D9" fill-opacity="0.56"/>
<path d="M842.024 47.0676C848.669 39.8439 855.229 34.0718 862.981 32.4026C870.691 30.7424 879.725 33.1185 891.382 42.5463C902.124 51.2343 912.156 63.6187 917.667 75.8041C923.191 88.0179 924.11 99.8685 916.943 107.659C910.46 114.707 899.337 116.429 886.677 113.869C874.034 111.312 859.981 104.5 847.816 94.6623C835.646 84.8197 830.978 76.4874 830.912 68.8925C830.846 61.284 835.393 54.2761 842.024 47.0676Z" fill="#CF6944" fill-opacity="0.76" stroke="black" stroke-width="0.89071"/>
<path d="M877.172 39.6715C886.783 42.5664 893.035 49.0949 892.086 51.1937C891.138 53.2925 883.35 50.1668 873.739 47.272C864.128 44.3772 856.967 42.0084 857.915 39.9095C858.863 37.8107 867.561 36.7767 877.172 39.6715Z" fill="#E9E9E9"/>
<path d="M858.351 40.041C858.499 39.7126 859.025 39.3132 860.1 38.9738C861.14 38.6457 862.567 38.4148 864.285 38.3366C867.717 38.1805 872.237 38.6375 876.992 40.0698C881.733 41.4978 885.645 43.8231 888.249 46.0436C889.552 47.1545 890.516 48.229 891.092 49.1398C891.381 49.5957 891.565 49.9993 891.652 50.3362C891.74 50.6781 891.718 50.9144 891.651 51.0629C891.594 51.1878 891.491 51.2843 891.28 51.3561C891.049 51.4348 890.705 51.4751 890.228 51.4547C889.275 51.4142 887.958 51.1431 886.328 50.7037C883.065 49.8238 878.757 48.3311 873.919 46.8738C869.109 45.425 864.941 44.1165 862.095 42.9116C860.667 42.3074 859.608 41.743 858.968 41.22C858.309 40.6814 858.23 40.3072 858.351 40.041Z" stroke="black" stroke-opacity="0.77" stroke-width="0.89071"/>
<mask id="path-18-inside-3_236_1117" fill="white">
<path d="M907.582 113.526C911.297 112.337 914.508 110.409 917.027 107.671C919.526 104.954 921.038 101.752 921.72 98.2247L933.506 107.796C933.858 108.082 934.179 108.387 934.472 108.709C934.494 108.684 934.515 108.659 934.538 108.634C938.971 103.83 946.223 102.906 950.735 106.57C955.246 110.234 955.309 117.098 950.876 121.902C948.343 124.646 944.89 126.122 941.554 126.202C941.947 129.31 940.886 132.727 938.353 135.471C933.92 140.275 926.668 141.2 922.157 137.536C918.173 134.301 917.659 128.571 920.646 123.966C920.205 123.718 919.78 123.432 919.378 123.106L907.582 113.526Z"/>
</mask>
<path d="M907.582 113.526C911.297 112.337 914.508 110.409 917.027 107.671C919.526 104.954 921.038 101.752 921.72 98.2247L933.506 107.796C933.858 108.082 934.179 108.387 934.472 108.709C934.494 108.684 934.515 108.659 934.538 108.634C938.971 103.83 946.223 102.906 950.735 106.57C955.246 110.234 955.309 117.098 950.876 121.902C948.343 124.646 944.89 126.122 941.554 126.202C941.947 129.31 940.886 132.727 938.353 135.471C933.92 140.275 926.668 141.2 922.157 137.536C918.173 134.301 917.659 128.571 920.646 123.966C920.205 123.718 919.78 123.432 919.378 123.106L907.582 113.526Z" fill="#E7E7E7"/>
<path d="M907.582 113.526L907.293 112.71L905.768 113.198L906.977 114.18L907.582 113.526ZM917.027 107.671L917.719 108.231L917.719 108.231L917.027 107.671ZM921.72 98.2247L922.324 97.5703L921.106 96.5808L920.816 98.0785L921.72 98.2247ZM933.506 107.796L934.111 107.142L934.111 107.142L933.506 107.796ZM934.472 108.709L933.772 109.273L934.467 110.036L935.168 109.265L934.472 108.709ZM934.538 108.634L933.846 108.073L933.846 108.073L934.538 108.634ZM950.735 106.57L951.339 105.915L951.339 105.915L950.735 106.57ZM950.876 121.902L951.567 122.463L951.567 122.463L950.876 121.902ZM941.554 126.202L941.539 125.34L940.522 125.365L940.642 126.312L941.554 126.202ZM938.353 135.471L939.045 136.032L939.045 136.032L938.353 135.471ZM922.157 137.536L921.552 138.191L921.552 138.191L922.157 137.536ZM920.646 123.966L921.429 124.41L921.909 123.669L921.124 123.226L920.646 123.966ZM919.378 123.106L918.774 123.76L918.774 123.76L919.378 123.106ZM907.582 113.526L907.87 114.342C911.725 113.108 915.081 111.099 917.719 108.231L917.027 107.671L916.334 107.11C913.935 109.719 910.869 111.566 907.293 112.71L907.582 113.526ZM917.027 107.671L917.719 108.231C920.339 105.383 921.915 102.034 922.623 98.371L921.72 98.2247L920.816 98.0785C920.161 101.471 918.713 104.525 916.334 107.11L917.027 107.671ZM921.72 98.2247L921.115 98.8791L932.902 108.451L933.506 107.796L934.111 107.142L922.324 97.5703L921.72 98.2247ZM933.506 107.796L932.902 108.451C933.218 108.707 933.507 108.982 933.772 109.273L934.472 108.709L935.172 108.145C934.851 107.792 934.498 107.456 934.111 107.142L933.506 107.796ZM934.472 108.709L935.168 109.265C935.187 109.244 935.206 109.223 935.214 109.213C935.22 109.207 935.223 109.203 935.226 109.2C935.227 109.198 935.228 109.197 935.229 109.196C935.229 109.196 935.229 109.196 935.229 109.196C935.229 109.195 935.23 109.195 935.23 109.195L934.538 108.634L933.846 108.073C933.825 108.096 933.806 108.118 933.795 108.13C933.782 108.145 933.779 108.149 933.776 108.152L934.472 108.709ZM934.538 108.634L935.229 109.195C939.398 104.679 946.075 103.931 950.13 107.224L950.735 106.57L951.339 105.915C946.372 101.881 938.545 102.982 933.846 108.073L934.538 108.634ZM950.735 106.57L950.13 107.224C954.186 110.518 954.352 116.824 950.184 121.34L950.876 121.902L951.567 122.463C956.265 117.372 956.306 109.949 951.339 105.915L950.735 106.57ZM950.876 121.902L950.184 121.34C947.816 123.906 944.606 125.267 941.539 125.34L941.554 126.202L941.568 127.064C945.173 126.978 948.869 125.386 951.567 122.463L950.876 121.902ZM941.554 126.202L940.642 126.312C941.003 129.17 940.029 132.345 937.661 134.91L938.353 135.471L939.045 136.032C941.742 133.109 942.89 129.451 942.466 126.093L941.554 126.202ZM938.353 135.471L937.661 134.91C933.493 139.427 926.817 140.175 922.761 136.882L922.157 137.536L921.552 138.191C926.52 142.225 934.346 141.123 939.045 136.032L938.353 135.471ZM922.157 137.536L922.761 136.882C919.177 133.971 918.63 128.724 921.429 124.41L920.646 123.966L919.862 123.523C916.688 128.417 917.17 134.631 921.552 138.191L922.157 137.536ZM920.646 123.966L921.124 123.226C920.726 123.001 920.343 122.744 919.983 122.451L919.378 123.106L918.774 123.76C919.217 124.12 919.684 124.434 920.167 124.706L920.646 123.966ZM919.378 123.106L919.983 122.451L908.186 112.872L907.582 113.526L906.977 114.18L918.774 123.76L919.378 123.106Z" fill="black" mask="url(#path-18-inside-3_236_1117)"/>
<ellipse cx="43.5837" cy="52.4635" rx="43.5837" ry="52.4635" transform="matrix(0.617383 0.786663 -0.82302 0.568012 251.429 5.02246)" fill="#D9D9D9" fill-opacity="0.56"/>
<path d="M271.994 41.522C278.023 49.2035 282.56 56.4829 282.567 63.9389C282.574 71.3563 278.089 79.0871 265.686 87.6468C254.257 95.5345 239.144 101.95 225.245 104.278C211.313 106.611 198.79 104.812 192.29 96.5304C186.411 89.0394 187.099 78.49 192.585 67.485C198.062 56.4964 208.278 45.1641 221.219 36.2323C234.167 27.2962 243.873 24.8826 251.785 26.5117C259.709 28.1436 265.979 33.8573 271.994 41.522Z" fill="#CF6944" fill-opacity="0.76" stroke="black" stroke-width="0.89071"/>
<path d="M271.845 75.2983C266.692 83.44 258.511 87.7024 256.54 86.3689C254.569 85.0354 259.556 78.6109 264.708 70.4692C269.861 62.3275 273.921 56.3083 275.891 57.6418C277.862 58.9753 276.998 67.1566 271.845 75.2983Z" fill="#E9E9E9"/>
<path d="M275.659 58.01C275.965 58.2174 276.262 58.7856 276.376 59.8448C276.485 60.8681 276.407 62.2234 276.105 63.8116C275.502 66.9842 274.019 71.0151 271.469 75.0441C268.927 79.0612 265.637 82.1209 262.748 84.0075C261.302 84.9514 259.969 85.5931 258.893 85.9176C258.355 86.0799 257.895 86.1582 257.526 86.1624C257.15 86.1667 256.911 86.0946 256.773 86.0011C256.657 85.9228 256.58 85.8084 256.552 85.5993C256.522 85.3702 256.556 85.0464 256.684 84.6142C256.939 83.7515 257.515 82.6069 258.336 81.2145C259.978 78.4274 262.49 74.8214 265.084 70.723C267.662 66.6482 269.953 63.1292 271.84 60.7955C272.787 59.6251 273.61 58.7825 274.297 58.3136C275.005 57.8297 275.411 57.8426 275.659 58.01Z" stroke="black" stroke-opacity="0.77" stroke-width="0.89071"/>
<mask id="path-24-inside-4_236_1117" fill="white">
<path d="M188.28 86.6674C188.687 90.3286 189.975 93.6922 192.261 96.6041C194.528 99.4932 197.519 101.588 201.035 102.996L188.419 111.666C188.057 111.915 187.68 112.133 187.294 112.324C187.314 112.349 187.335 112.372 187.354 112.397C191.36 117.519 190.705 124.353 185.89 127.662C181.075 130.971 173.924 129.502 169.918 124.38C167.629 121.454 166.864 117.97 167.525 114.902C164.206 114.57 160.89 112.84 158.602 109.914C154.596 104.793 155.252 97.9584 160.067 94.6494C164.317 91.7288 170.386 92.5324 174.507 96.283C174.855 95.9462 175.237 95.6313 175.653 95.3452L188.28 86.6674Z"/>
</mask>
<path d="M188.28 86.6674C188.687 90.3286 189.975 93.6922 192.261 96.6041C194.528 99.4932 197.519 101.588 201.035 102.996L188.419 111.666C188.057 111.915 187.68 112.133 187.294 112.324C187.314 112.349 187.335 112.372 187.354 112.397C191.36 117.519 190.705 124.353 185.89 127.662C181.075 130.971 173.924 129.502 169.918 124.38C167.629 121.454 166.864 117.97 167.525 114.902C164.206 114.57 160.89 112.84 158.602 109.914C154.596 104.793 155.252 97.9584 160.067 94.6494C164.317 91.7288 170.386 92.5324 174.507 96.283C174.855 95.9462 175.237 95.6313 175.653 95.3452L188.28 86.6674Z" fill="#E7E7E7"/>
<path d="M188.28 86.6674L189.191 86.5927L189.023 85.0783L187.731 85.9657L188.28 86.6674ZM192.261 96.6041L191.528 97.1101L191.528 97.1101L192.261 96.6041ZM201.035 102.996L201.583 103.697L202.884 102.804L201.38 102.201L201.035 102.996ZM188.419 111.666L188.968 112.367L188.968 112.367L188.419 111.666ZM187.294 112.324L186.857 111.557L185.919 112.021L186.564 112.834L187.294 112.324ZM187.354 112.397L188.088 111.893L188.088 111.892L187.354 112.397ZM185.89 127.662L186.439 128.364L186.439 128.364L185.89 127.662ZM169.918 124.38L169.184 124.885L169.184 124.885L169.918 124.38ZM167.525 114.902L168.423 115.089L168.627 114.145L167.605 114.043L167.525 114.902ZM158.602 109.914L157.868 110.419L157.868 110.419L158.602 109.914ZM160.067 94.6494L159.519 93.9476L159.519 93.9477L160.067 94.6494ZM174.507 96.283L173.877 96.8996L174.539 97.5022L175.169 96.8917L174.507 96.283ZM175.653 95.3452L175.105 94.6435L175.104 94.6435L175.653 95.3452ZM188.28 86.6674L187.368 86.7421C187.791 90.5412 189.132 94.0579 191.528 97.1101L192.261 96.6041L192.994 96.0982C190.819 93.3265 189.583 90.116 189.191 86.5927L188.28 86.6674ZM192.261 96.6041L191.528 97.1101C193.906 100.141 197.039 102.328 200.69 103.79L201.035 102.996L201.38 102.201C198 100.848 195.15 98.8457 192.994 96.0982L192.261 96.6041ZM201.035 102.996L200.487 102.294L187.871 110.964L188.419 111.666L188.968 112.367L201.583 103.697L201.035 102.996ZM188.419 111.666L187.871 110.964C187.546 111.187 187.207 111.384 186.857 111.557L187.294 112.324L187.731 113.091C188.154 112.882 188.568 112.642 188.968 112.367L188.419 111.666ZM187.294 112.324L186.564 112.834C186.582 112.856 186.6 112.878 186.608 112.887C186.619 112.9 186.62 112.902 186.62 112.902L187.354 112.397L188.088 111.892C188.069 111.868 188.05 111.845 188.041 111.834C188.028 111.819 188.026 111.816 188.024 111.814L187.294 112.324ZM187.354 112.397L186.62 112.902C190.38 117.709 189.679 123.98 185.342 126.96L185.89 127.662L186.439 128.364C191.731 124.726 192.34 117.329 188.088 111.893L187.354 112.397ZM185.89 127.662L185.342 126.96C181.004 129.941 174.412 128.682 170.652 123.875L169.918 124.38L169.184 124.885C173.436 130.321 181.147 132.001 186.439 128.364L185.89 127.662ZM169.918 124.38L170.652 123.875C168.515 121.144 167.816 117.909 168.423 115.089L167.525 114.902L166.627 114.716C165.913 118.03 166.744 121.765 169.184 124.885L169.918 124.38ZM167.525 114.902L167.605 114.043C164.553 113.738 161.472 112.141 159.336 109.409L158.602 109.914L157.868 110.419C160.308 113.539 163.859 115.403 167.445 115.762L167.525 114.902ZM158.602 109.914L159.336 109.409C155.576 104.603 156.278 98.3318 160.616 95.351L160.067 94.6494L159.519 93.9477C154.226 97.5849 153.616 104.983 157.868 110.419L158.602 109.914ZM160.067 94.6494L160.616 95.3511C164.448 92.7179 170.021 93.3904 173.877 96.8996L174.507 96.283L175.137 95.6664C170.751 91.6744 164.187 90.7397 159.519 93.9476L160.067 94.6494ZM174.507 96.283L175.169 96.8917C175.483 96.5878 175.827 96.3042 176.201 96.0468L175.653 95.3452L175.104 94.6435C174.646 94.9585 174.226 95.3046 173.845 95.6744L174.507 96.283ZM175.653 95.3452L176.201 96.0469L188.828 87.3691L188.28 86.6674L187.731 85.9657L175.105 94.6435L175.653 95.3452Z" fill="black" mask="url(#path-24-inside-4_236_1117)"/>
<ellipse cx="43.8676" cy="52.1331" rx="43.8676" ry="52.1331" transform="matrix(0.692124 -0.721803 0.764546 0.644543 235.722 270.447)" fill="#D9D9D9" fill-opacity="0.56"/>
<path d="M269.682 244.16C276.485 237.065 283.17 231.42 290.957 229.901C298.702 228.389 307.681 230.94 319.128 240.59C329.677 249.484 339.435 262.059 344.678 274.348C349.932 286.665 350.59 298.531 343.253 306.183C336.616 313.104 325.457 314.612 312.857 311.808C300.273 309.008 286.372 301.927 274.427 291.856C262.476 281.781 257.993 273.361 258.093 265.767C258.194 258.158 262.894 251.239 269.682 244.16Z" fill="#CF6944" fill-opacity="0.76" stroke="black" stroke-width="0.89071"/>
<path d="M304.984 237.443C314.529 240.522 320.636 247.17 319.642 249.25C318.649 251.33 310.93 248.055 301.385 244.975C291.84 241.896 284.732 239.389 285.726 237.309C286.72 235.229 295.439 234.363 304.984 237.443Z" fill="#E9E9E9"/>
<path d="M286.159 237.449C286.315 237.123 286.851 236.735 287.933 236.416C288.979 236.108 290.41 235.904 292.129 235.859C295.564 235.769 300.073 236.313 304.796 237.836C309.505 239.356 313.365 241.756 315.919 244.026C317.197 245.162 318.137 246.255 318.694 247.177C318.972 247.638 319.147 248.045 319.226 248.384C319.306 248.727 319.279 248.963 319.209 249.11C319.15 249.235 319.044 249.329 318.832 249.397C318.599 249.471 318.255 249.504 317.778 249.475C316.826 249.416 315.515 249.12 313.895 248.649C310.652 247.707 306.379 246.132 301.573 244.581C296.796 243.04 292.657 241.651 289.839 240.391C288.425 239.76 287.379 239.176 286.75 238.641C286.104 238.09 286.033 237.714 286.159 237.449Z" stroke="black" stroke-opacity="0.77" stroke-width="0.89071"/>
<mask id="path-30-inside-5_236_1117" fill="white">
<path d="M333.765 311.868C337.506 310.751 340.758 308.886 343.337 306.197C345.895 303.528 347.477 300.357 348.236 296.843L359.801 306.633C360.149 306.927 360.467 307.241 360.755 307.571C360.778 307.547 360.8 307.522 360.823 307.498C365.361 302.78 372.632 301.996 377.062 305.746C381.491 309.496 381.404 316.36 376.866 321.077C374.273 323.772 370.789 325.182 367.452 325.197C367.777 328.312 366.64 331.708 364.048 334.403C359.51 339.12 352.24 339.905 347.81 336.155C343.898 332.843 343.51 327.103 346.598 322.557C346.16 322.299 345.738 322.003 345.34 321.666L333.765 311.868Z"/>
</mask>
<path d="M333.765 311.868C337.506 310.751 340.758 308.886 343.337 306.197C345.895 303.528 347.477 300.357 348.236 296.843L359.801 306.633C360.149 306.927 360.467 307.241 360.755 307.571C360.778 307.547 360.8 307.522 360.823 307.498C365.361 302.78 372.632 301.996 377.062 305.746C381.491 309.496 381.404 316.36 376.866 321.077C374.273 323.772 370.789 325.182 367.452 325.197C367.777 328.312 366.64 331.708 364.048 334.403C359.51 339.12 352.24 339.905 347.81 336.155C343.898 332.843 343.51 327.103 346.598 322.557C346.16 322.299 345.738 322.003 345.34 321.666L333.765 311.868Z" fill="#E7E7E7"/>
<path d="M333.765 311.868L333.492 311.047L331.96 311.505L333.147 312.51L333.765 311.868ZM343.337 306.197L344.018 306.771L344.018 306.771L343.337 306.197ZM348.236 296.843L348.854 296.201L347.658 295.189L347.336 296.677L348.236 296.843ZM359.801 306.633L360.419 305.991L360.419 305.991L359.801 306.633ZM360.755 307.571L360.042 308.12L360.722 308.899L361.439 308.142L360.755 307.571ZM360.823 307.498L360.143 306.923L360.143 306.923L360.823 307.498ZM377.062 305.746L377.68 305.104L377.68 305.104L377.062 305.746ZM376.866 321.077L377.546 321.652L377.546 321.652L376.866 321.077ZM367.452 325.197L367.454 324.335L366.439 324.34L366.538 325.287L367.452 325.197ZM364.048 334.403L364.728 334.978L364.728 334.978L364.048 334.403ZM347.81 336.155L347.192 336.797L347.192 336.797L347.81 336.155ZM346.598 322.557L347.372 323.017L347.869 322.286L347.091 321.827L346.598 322.557ZM345.34 321.666L344.722 322.308L344.722 322.308L345.34 321.666ZM333.765 311.868L334.038 312.69C337.919 311.531 341.317 309.587 344.018 306.771L343.337 306.197L342.656 305.622C340.199 308.185 337.094 309.972 333.492 311.047L333.765 311.868ZM343.337 306.197L344.018 306.771C346.699 303.974 348.348 300.657 349.136 297.009L348.236 296.843L347.336 296.677C346.606 300.057 345.091 303.082 342.656 305.622L343.337 306.197ZM348.236 296.843L347.618 297.485L359.184 307.274L359.801 306.633L360.419 305.991L348.854 296.201L348.236 296.843ZM359.801 306.633L359.183 307.274C359.497 307.539 359.783 307.823 360.042 308.12L360.755 307.571L361.467 307.023C361.151 306.66 360.802 306.315 360.419 305.991L359.801 306.633ZM360.755 307.571L361.439 308.142C361.459 308.121 361.478 308.1 361.487 308.09C361.498 308.078 361.502 308.074 361.503 308.073L360.823 307.498L360.143 306.923C360.121 306.945 360.102 306.967 360.091 306.979C360.077 306.994 360.074 306.998 360.07 307.001L360.755 307.571ZM360.823 307.498L361.503 308.073C365.772 303.635 372.464 303.019 376.444 306.388L377.062 305.746L377.68 305.104C372.8 300.973 364.95 301.925 360.143 306.923L360.823 307.498ZM377.062 305.746L376.444 306.388C380.424 309.757 380.454 316.065 376.186 320.502L376.866 321.077L377.546 321.652C382.353 316.655 382.559 309.235 377.68 305.104L377.062 305.746ZM376.866 321.077L376.186 320.502C373.761 323.022 370.522 324.321 367.454 324.335L367.452 325.197L367.451 326.059C371.056 326.042 374.785 324.522 377.546 321.652L376.866 321.077ZM367.452 325.197L366.538 325.287C366.837 328.152 365.792 331.307 363.368 333.827L364.048 334.403L364.728 334.978C367.488 332.108 368.717 328.473 368.366 325.108L367.452 325.197ZM364.048 334.403L363.368 333.827C359.099 338.265 352.408 338.882 348.428 335.513L347.81 336.155L347.192 336.797C352.072 340.927 359.921 339.975 364.728 334.978L364.048 334.403ZM347.81 336.155L348.428 335.513C344.909 332.535 344.477 327.279 347.372 323.017L346.598 322.557L345.825 322.098C342.544 326.928 342.886 333.151 347.192 336.797L347.81 336.155ZM346.598 322.557L347.091 321.827C346.695 321.593 346.315 321.326 345.958 321.024L345.34 321.666L344.722 322.308C345.161 322.679 345.625 323.004 346.105 323.288L346.598 322.557ZM345.34 321.666L345.958 321.024L334.383 311.227L333.765 311.868L333.147 312.51L344.722 322.308L345.34 321.666Z" fill="black" mask="url(#path-30-inside-5_236_1117)"/>
<ellipse cx="43.8052" cy="52.2053" rx="43.8052" ry="52.2053" transform="matrix(0.678947 0.734164 -0.775868 0.630922 219.258 303.122)" fill="#D9D9D9" fill-opacity="0.56"/>
<path d="M242.863 337.965C249.527 345.17 254.67 352.088 255.312 359.521C255.951 366.914 252.139 374.954 240.506 384.414C229.785 393.132 215.267 400.658 201.611 404.019C187.924 407.387 175.285 406.534 168.098 398.762C161.598 391.733 161.388 381.165 165.918 369.786C170.443 358.424 179.66 346.363 191.8 336.491C203.945 326.615 213.412 323.484 221.437 324.515C229.476 325.548 236.214 330.775 242.863 337.965Z" fill="#CF6944" fill-opacity="0.76" stroke="black" stroke-width="0.89071"/>
<path d="M245.592 371.642C241.149 380.144 233.356 385.005 231.278 383.823C229.2 382.642 233.624 375.865 238.067 367.363C242.51 358.862 246.044 352.558 248.122 353.74C250.2 354.921 250.035 363.141 245.592 371.642Z" fill="#E9E9E9"/>
<path d="M247.921 354.125C248.246 354.31 248.592 354.856 248.795 355.902C248.991 356.914 249.028 358.271 248.862 359.876C248.531 363.083 247.396 367.211 245.197 371.418C243.006 375.612 239.987 378.908 237.268 381.004C235.907 382.053 234.633 382.793 233.588 383.197C233.066 383.399 232.614 383.512 232.246 383.544C231.872 383.576 231.626 383.521 231.479 383.438C231.356 383.367 231.269 383.258 231.223 383.052C231.174 382.826 231.181 382.502 231.271 382.061C231.452 381.183 231.928 379.999 232.628 378.55C234.027 375.649 236.225 371.867 238.461 367.587C240.685 363.333 242.668 359.653 244.351 357.186C245.195 355.949 245.943 355.047 246.587 354.529C247.251 353.995 247.657 353.975 247.921 354.125Z" stroke="black" stroke-opacity="0.77" stroke-width="0.89071"/>
<mask id="path-36-inside-6_236_1117" fill="white">
<path d="M163.26 389.233C163.978 392.852 165.548 396.108 168.074 398.84C170.58 401.55 173.741 403.413 177.365 404.553L165.561 414.113C165.21 414.397 164.841 414.652 164.459 414.877C164.482 414.901 164.506 414.925 164.528 414.949C168.958 419.754 168.886 426.616 164.368 430.274C159.85 433.933 152.597 433.004 148.168 428.199C145.637 425.454 144.578 422.038 144.976 418.931C141.638 418.848 138.186 417.371 135.656 414.626C131.227 409.822 131.299 402.961 135.816 399.302C139.806 396.071 145.927 396.419 150.355 399.852C150.681 399.479 151.043 399.126 151.446 398.8L163.26 389.233Z"/>
</mask>
<path d="M163.26 389.233C163.978 392.852 165.548 396.108 168.074 398.84C170.58 401.55 173.741 403.413 177.365 404.553L165.561 414.113C165.21 414.397 164.841 414.652 164.459 414.877C164.482 414.901 164.506 414.925 164.528 414.949C168.958 419.754 168.886 426.616 164.368 430.274C159.85 433.933 152.597 433.004 148.168 428.199C145.637 425.454 144.578 422.038 144.976 418.931C141.638 418.848 138.186 417.371 135.656 414.626C131.227 409.822 131.299 402.961 135.816 399.302C139.806 396.071 145.927 396.419 150.355 399.852C150.681 399.479 151.043 399.126 151.446 398.8L163.26 389.233Z" fill="#E7E7E7"/>
<path d="M163.26 389.233L164.163 389.082L163.868 387.596L162.656 388.577L163.26 389.233ZM168.074 398.84L167.383 399.402L167.383 399.402L168.074 398.84ZM177.365 404.553L177.969 405.208L179.189 404.22L177.65 403.735L177.365 404.553ZM165.561 414.113L166.165 414.768L166.165 414.768L165.561 414.113ZM164.459 414.877L163.965 414.146L163.059 414.681L163.771 415.443L164.459 414.877ZM164.528 414.949L165.22 414.388L165.22 414.388L164.528 414.949ZM164.368 430.274L164.971 430.93L164.971 430.93L164.368 430.274ZM148.168 428.199L147.476 428.76L147.476 428.76L148.168 428.199ZM144.976 418.931L145.887 419.041L146.009 418.094L144.991 418.069L144.976 418.931ZM135.656 414.626L134.964 415.187L134.964 415.187L135.656 414.626ZM135.816 399.302L135.213 398.647L135.213 398.647L135.816 399.302ZM150.355 399.852L149.774 400.515L150.486 401.067L151.066 400.403L150.355 399.852ZM151.446 398.8L152.049 399.455L152.049 399.455L151.446 398.8ZM163.26 389.233L162.357 389.383C163.102 393.137 164.737 396.541 167.383 399.402L168.074 398.84L168.765 398.278C166.359 395.676 164.854 392.566 164.163 389.082L163.26 389.233ZM168.074 398.84L167.383 399.402C170.01 402.242 173.318 404.186 177.081 405.37L177.365 404.553L177.65 403.735C174.164 402.639 171.151 400.857 168.765 398.278L168.074 398.84ZM177.365 404.553L176.762 403.898L164.958 413.458L165.561 414.113L166.165 414.768L177.969 405.208L177.365 404.553ZM165.561 414.113L164.958 413.458C164.642 413.714 164.309 413.943 163.965 414.146L164.459 414.877L164.953 415.608C165.372 415.361 165.777 415.081 166.165 414.768L165.561 414.113ZM164.459 414.877L163.771 415.443C163.791 415.464 163.811 415.484 163.82 415.493C163.826 415.499 163.829 415.503 163.832 415.506C163.833 415.507 163.834 415.508 163.835 415.509C163.835 415.509 163.836 415.51 163.836 415.51C163.836 415.51 163.836 415.51 163.836 415.51L164.528 414.949L165.22 414.388C165.199 414.365 165.178 414.344 165.167 414.333C165.153 414.318 165.15 414.315 165.147 414.311L164.459 414.877ZM164.528 414.949L163.836 415.51C168.001 420.028 167.826 426.33 163.765 429.619L164.368 430.274L164.971 430.93C169.946 426.901 169.914 419.48 165.22 414.388L164.528 414.949ZM164.368 430.274L163.765 429.619C159.703 432.909 153.024 432.156 148.86 427.638L148.168 428.199L147.476 428.76C152.17 433.852 159.997 434.958 164.971 430.93L164.368 430.274ZM148.168 428.199L148.86 427.638C146.494 425.072 145.522 421.898 145.887 419.041L144.976 418.931L144.064 418.82C143.634 422.178 144.78 425.836 147.476 428.76L148.168 428.199ZM144.976 418.931L144.991 418.069C141.923 417.993 138.713 416.632 136.348 414.066L135.656 414.626L134.964 415.187C137.659 418.111 141.354 419.704 144.96 419.793L144.976 418.931ZM135.656 414.626L136.348 414.066C132.184 409.548 132.358 403.246 136.42 399.957L135.816 399.302L135.213 398.647C130.239 402.675 130.27 410.095 134.964 415.187L135.656 414.626ZM135.816 399.302L136.42 399.957C140.01 397.05 145.625 397.298 149.774 400.515L150.355 399.852L150.936 399.19C146.23 395.54 139.602 395.092 135.213 398.647L135.816 399.302ZM150.355 399.852L151.066 400.403C151.361 400.066 151.688 399.748 152.049 399.455L151.446 398.8L150.843 398.145C150.399 398.505 150 398.893 149.643 399.302L150.355 399.852ZM151.446 398.8L152.049 399.455L163.863 389.888L163.26 389.233L162.656 388.577L150.843 398.145L151.446 398.8Z" fill="black" mask="url(#path-36-inside-6_236_1117)"/>
<path d="M555.829 288.402C550.32 283.945 541.713 284.767 536.608 290.314C531.504 295.861 531.897 303.965 537.406 308.422C542.915 312.88 551.522 312.058 556.627 306.511C561.731 300.963 561.338 292.859 555.829 288.402Z" fill="#E7E7E7" stroke="black"/>
<path d="M542.072 303.351C536.563 298.894 527.956 299.716 522.852 305.263C517.747 310.81 518.141 318.914 523.649 323.372C529.158 327.829 537.766 327.007 542.871 321.46C547.975 315.913 547.581 307.808 542.072 303.351Z" fill="#E7E7E7" stroke="black"/>
<path d="M438.12 219.25C432.611 214.793 424.004 215.615 418.9 221.163C413.795 226.71 414.188 234.814 419.697 239.271C425.206 243.728 433.814 242.907 438.919 237.359C444.023 231.812 443.629 223.707 438.12 219.25Z" fill="#E7E7E7" stroke="black"/>
<path d="M453.023 203.055C447.515 198.598 438.907 199.42 433.803 204.967C428.698 210.515 429.092 218.619 434.6 223.076C440.109 227.533 448.717 226.711 453.822 221.164C458.926 215.617 458.532 207.512 453.023 203.055Z" fill="#E7E7E7" stroke="black"/>
<mask id="path-42-inside-7_236_1117" fill="white">
<path d="M538.082 302.179C541.821 298.115 541.372 292.005 537.079 288.531L454.488 221.71C450.194 218.236 443.682 218.715 439.942 222.779L436.68 226.323C432.94 230.388 433.389 236.498 437.683 239.972L520.274 306.793C524.568 310.267 531.08 309.788 534.82 305.724L538.082 302.179Z"/>
</mask>
<path d="M538.082 302.179C541.821 298.115 541.372 292.005 537.079 288.531L454.488 221.71C450.194 218.236 443.682 218.715 439.942 222.779L436.68 226.323C432.94 230.388 433.389 236.498 437.683 239.972L520.274 306.793C524.568 310.267 531.08 309.788 534.82 305.724L538.082 302.179Z" fill="#E7E7E7"/>
<path d="M538.082 302.179C542.195 297.709 541.702 290.987 536.979 287.166L455.942 221.603C451.219 217.782 444.056 218.308 439.942 222.779C443.308 219.121 449.517 218.972 453.811 222.446L536.402 289.267C540.695 292.741 541.447 298.522 538.082 302.179ZM436.68 226.323C432.566 230.794 433.06 237.516 437.783 241.337L518.819 306.9C523.542 310.721 530.706 310.195 534.82 305.724C531.454 309.382 525.245 309.531 520.951 306.057L438.36 239.236C434.066 235.762 433.314 229.981 436.68 226.323ZM528.048 313.083L544.853 294.821L528.048 313.083ZM446.714 215.42L429.909 233.682L446.714 215.42Z" fill="black" mask="url(#path-42-inside-7_236_1117)"/>
<ellipse cx="11.5031" cy="12.1292" rx="11.5031" ry="12.1292" transform="matrix(-0.7774 -0.628978 -0.677141 0.735874 458.927 219.503)" fill="#E7E7E7"/>
<ellipse cx="11.5031" cy="12.1292" rx="11.5031" ry="12.1292" transform="matrix(-0.7774 -0.628978 -0.677141 0.735874 560.98 296.998)" fill="#E7E7E7"/>
<ellipse cx="11.5031" cy="12.1292" rx="11.5031" ry="12.1292" transform="matrix(-0.7774 -0.628978 -0.677141 0.735874 549.898 309.041)" fill="#E7E7E7"/>
<ellipse cx="11.5031" cy="12.1292" rx="11.5031" ry="12.1292" transform="matrix(-0.7774 -0.628978 -0.677141 0.735874 448.857 227.295)" fill="#E7E7E7"/>
<path d="M533.38 214.143C538.55 209.349 538.36 201.238 532.862 196.025C527.363 190.812 518.716 190.544 513.546 195.338C508.377 200.131 508.566 208.242 514.065 213.456C519.563 218.669 528.21 218.937 533.38 214.143Z" fill="#E7E7E7" stroke="black"/>
<path d="M518.577 200.109C523.746 195.315 523.557 187.204 518.058 181.991C512.56 176.778 503.913 176.51 498.743 181.303C493.574 186.097 493.763 194.208 499.261 199.422C504.76 204.635 513.407 204.903 518.577 200.109Z" fill="#E7E7E7" stroke="black"/>
<path d="M616.224 109.558C621.393 104.764 621.204 96.6532 615.706 91.44C610.207 86.2268 601.56 85.9588 596.39 90.7526C591.221 95.5465 591.41 103.657 596.908 108.871C602.407 114.084 611.054 114.352 616.224 109.558Z" fill="#E7E7E7" stroke="black"/>
<path d="M632.261 124.764C637.43 119.97 637.241 111.859 631.742 106.646C626.244 101.432 617.597 101.164 612.427 105.958C607.257 110.752 607.447 118.863 612.945 124.076C618.443 129.29 627.091 129.558 632.261 124.764Z" fill="#E7E7E7" stroke="black"/>
<mask id="path-52-inside-8_236_1117" fill="white">
<path d="M520.173 196.494C524.18 200.294 530.712 200.33 534.762 196.575L612.277 124.694C616.327 120.939 616.361 114.814 612.353 111.014L608.775 107.621C604.767 103.821 598.235 103.785 594.186 107.541L516.671 179.421C512.621 183.177 512.587 189.301 516.594 193.101L520.173 196.494Z"/>
</mask>
<path d="M520.173 196.494C524.18 200.294 530.712 200.33 534.762 196.575L612.277 124.694C616.327 120.939 616.361 114.814 612.353 111.014L608.775 107.621C604.767 103.821 598.235 103.785 594.186 107.541L516.671 179.421C512.621 183.177 512.587 189.301 516.594 193.101L520.173 196.494Z" fill="#E7E7E7"/>
<path d="M520.173 196.494C524.581 200.674 531.766 200.714 536.221 196.583L612.269 126.062C616.724 121.931 616.761 115.194 612.353 111.014C615.96 114.434 615.601 120.251 611.551 124.006L534.036 195.887C529.987 199.642 523.78 199.914 520.173 196.494ZM608.775 107.621C604.366 103.441 597.181 103.402 592.727 107.533L516.678 178.053C512.224 182.184 512.186 188.921 516.594 193.101C512.988 189.681 513.347 183.865 517.396 180.109L594.911 108.229C598.961 104.473 605.168 104.201 608.775 107.621ZM509.338 186.221L527.429 203.375L509.338 186.221ZM619.61 117.895L601.518 100.741L619.61 117.895Z" fill="black" mask="url(#path-52-inside-8_236_1117)"/>
<ellipse cx="11.4529" cy="12.1827" rx="11.4529" ry="12.1827" transform="matrix(0.733266 -0.679967 -0.72565 -0.688039 614.306 128.984)" fill="#E7E7E7"/>
<ellipse cx="11.4529" cy="12.1827" rx="11.4529" ry="12.1827" transform="matrix(0.733266 -0.679967 -0.72565 -0.688039 523.833 218.279)" fill="#E7E7E7"/>
<ellipse cx="11.4529" cy="12.1827" rx="11.4529" ry="12.1827" transform="matrix(0.733266 -0.679967 -0.72565 -0.688039 511.908 206.972)" fill="#E7E7E7"/>
<ellipse cx="11.4529" cy="12.1827" rx="11.4529" ry="12.1827" transform="matrix(0.733266 -0.679967 -0.72565 -0.688039 606.822 118.958)" fill="#E7E7E7"/>
<path d="M527.985 371.436C523.541 376.558 515.02 377.067 508.934 372.424C502.848 367.782 501.645 359.855 506.089 354.732C510.534 349.61 519.055 349.101 525.141 353.744C531.227 358.387 532.429 366.313 527.985 371.436Z" fill="#E7E7E7" stroke="black"/>
<path d="M511.654 358.98C507.21 364.102 498.69 364.611 492.604 359.968C486.518 355.325 485.315 347.399 489.759 342.276C494.203 337.154 502.725 336.645 508.81 341.288C514.896 345.931 516.099 353.857 511.654 358.98Z" fill="#E7E7E7" stroke="black"/>
<path d="M427.3 456.199C422.856 461.322 414.335 461.831 408.249 457.188C402.163 452.545 400.96 444.618 405.404 439.496C409.849 434.373 418.37 433.865 424.456 438.508C430.542 443.15 431.744 451.077 427.3 456.199Z" fill="#E7E7E7" stroke="black"/>
<path d="M444.992 469.694C440.548 474.817 432.027 475.325 425.941 470.683C419.855 466.04 418.652 458.113 423.096 452.99C427.541 447.868 436.062 447.36 442.148 452.002C448.234 456.645 449.436 464.571 444.992 469.694Z" fill="#E7E7E7" stroke="black"/>
<mask id="path-62-inside-9_236_1117" fill="white">
<path d="M508.086 360.791C512.477 364.141 513.102 370.238 509.483 374.409L442.973 451.067C439.354 455.239 432.86 455.905 428.469 452.556L424.396 449.449C420.005 446.099 419.38 440.002 422.999 435.83L489.509 359.172C493.128 355.001 499.622 354.334 504.013 357.684L508.086 360.791Z"/>
</mask>
<path d="M508.086 360.791C512.477 364.141 513.102 370.238 509.483 374.409L442.973 451.067C439.354 455.239 432.86 455.905 428.469 452.556L424.396 449.449C420.005 446.099 419.38 440.002 422.999 435.83L489.509 359.172C493.128 355.001 499.622 354.334 504.013 357.684L508.086 360.791Z" fill="#E7E7E7"/>
<path d="M508.086 360.791C512.916 364.476 513.604 371.182 509.622 375.771L444.424 450.918C440.442 455.507 433.299 456.24 428.469 452.556C432.421 455.57 438.559 454.632 442.178 450.461L508.688 373.803C512.307 369.631 512.037 363.806 508.086 360.791ZM424.396 449.449C419.566 445.764 418.878 439.057 422.86 434.468L488.058 359.321C492.04 354.732 499.183 353.999 504.013 357.684C500.061 354.669 493.923 355.607 490.304 359.779L423.794 436.437C420.175 440.608 420.444 446.434 424.396 449.449ZM496.062 351.619L516.036 366.856L496.062 351.619ZM436.42 458.621L416.446 443.384L436.42 458.621Z" fill="black" mask="url(#path-62-inside-9_236_1117)"/>
<ellipse cx="11.0643" cy="12.272" rx="11.0643" ry="12.272" transform="matrix(-0.655334 0.755358 -0.795046 -0.606517 447.458 452.841)" fill="#E7E7E7"/>
<ellipse cx="11.0643" cy="12.272" rx="11.0643" ry="12.272" transform="matrix(-0.655334 0.755358 -0.795046 -0.606517 531.276 362.32)" fill="#E7E7E7"/>
<ellipse cx="11.0643" cy="12.272" rx="11.0643" ry="12.272" transform="matrix(-0.655334 0.755358 -0.795046 -0.606517 518.121 352.285)" fill="#E7E7E7"/>
<ellipse cx="11.0643" cy="12.272" rx="11.0643" ry="12.272" transform="matrix(-0.655334 0.755358 -0.795046 -0.606517 436.129 446.783)" fill="#E7E7E7"/>
</svg>
